<svg xmlns="http://www.w3.org/2000/svg" viewBox="0 0 800 300" role="img" aria-labelledby="t148"><title id="t148">Mountain goats in space helmets on Venus, under its clouds</title>
<defs><linearGradient id="g148" x1="0" y1="0" x2="0" y2="1"><stop offset="0" stop-color="#c98b2e"/><stop offset="1" stop-color="#f1cf86"/></linearGradient></defs><rect width="800" height="300" fill="url(#g148)"/>
<circle cx="190" cy="60" r="34" fill="#fff0c0" opacity=".45"/><ellipse cx="126" cy="82" rx="99" ry="8" fill="#e3b45a" opacity=".5"/><ellipse cx="653" cy="76" rx="214" ry="11" fill="#e3b45a" opacity=".5"/><ellipse cx="127" cy="145" rx="163" ry="7" fill="#e3b45a" opacity=".5"/><ellipse cx="430" cy="66" rx="113" ry="9" fill="#e3b45a" opacity=".5"/><ellipse cx="744" cy="24" rx="112" ry="6" fill="#e3b45a" opacity=".5"/><ellipse cx="736" cy="15" rx="101" ry="11" fill="#e3b45a" opacity=".5"/><ellipse cx="190" cy="126" rx="103" ry="6" fill="#e3b45a" opacity=".5"/><ellipse cx="229" cy="16" rx="113" ry="10" fill="#e3b45a" opacity=".5"/><ellipse cx="599" cy="21" rx="122" ry="5" fill="#e3b45a" opacity=".5"/>
<path d="M-20,196 L-13,195 L-7,197 L-0,196 L6,193 L13,189 L19,185 L26,183 L32,177 L39,177 L46,172 L52,166 L59,165 L65,165 L72,160 L78,161 L85,158 L92,160 L98,158 L105,161 L111,161 L118,157 L124,156 L131,158 L138,155 L144,156 L151,152 L157,153 L164,155 L170,159 L177,160 L183,157 L190,158 L197,151 L203,149 L210,145 L216,139 L223,137 L229,135 L236,131 L242,130 L249,128 L256,127 L262,126 L269,128 L275,130 L282,131 L288,130 L295,126 L302,124 L308,121 L315,117 L321,116 L328,113 L334,116 L341,115 L348,116 L354,118 L361,119 L367,115 L374,115 L380,121 L387,124 L393,126 L400,127 L407,126 L413,129 L420,131 L426,128 L433,126 L439,124 L446,123 L452,118 L459,121 L466,121 L472,127 L479,132 L485,131 L492,136 L498,134 L505,132 L512,128 L518,127 L525,124 L531,126 L538,129 L544,134 L551,136 L558,134 L564,135 L571,132 L577,137 L584,139 L590,139 L597,142 L603,139 L610,136 L617,139 L623,140 L630,143 L636,142 L643,145 L649,142 L656,143 L662,138 L669,137 L676,135 L682,139 L689,139 L695,140 L702,140 L708,138 L715,135 L722,138 L728,142 L735,141 L741,138 L748,140 L754,140 L761,144 L768,147 L774,154 L781,156 L787,163 L794,166 L800,168 L807,166 L813,171 L820,176 L820,305 L-20,305 Z" fill="#b9803f"/>
<path d="M-20,203 L-13,203 L-7,203 L-0,200 L6,201 L13,199 L19,200 L26,198 L32,196 L39,194 L46,195 L52,197 L59,197 L65,198 L72,198 L78,199 L85,200 L92,203 L98,203 L105,205 L111,208 L118,210 L124,211 L131,211 L138,211 L144,210 L151,211 L157,210 L164,211 L170,210 L177,209 L183,209 L190,208 L197,210 L203,209 L210,209 L216,211 L223,213 L229,216 L236,216 L242,217 L249,215 L256,215 L262,216 L269,216 L275,216 L282,215 L288,216 L295,214 L302,215 L308,218 L315,217 L321,218 L328,219 L334,219 L341,219 L348,216 L354,216 L361,213 L367,214 L374,215 L380,213 L387,210 L393,209 L400,209 L407,210 L413,210 L420,210 L426,210 L433,211 L439,213 L446,217 L452,218 L459,217 L466,217 L472,218 L479,217 L485,216 L492,214 L498,216 L505,216 L512,217 L518,215 L525,213 L531,214 L538,213 L544,211 L551,208 L558,206 L564,204 L571,202 L577,201 L584,201 L590,201 L597,199 L603,200 L610,198 L617,197 L623,196 L630,197 L636,196 L643,197 L649,197 L656,198 L662,199 L669,201 L676,203 L682,207 L689,209 L695,211 L702,212 L708,212 L715,214 L722,213 L728,215 L735,216 L741,215 L748,218 L754,219 L761,219 L768,220 L774,219 L781,219 L787,220 L794,220 L800,219 L807,219 L813,219 L820,220 L820,305 L-20,305 Z" fill="#9a6630"/>
<path d="M-20,236 L-13,236 L-7,236 L-0,235 L6,235 L13,236 L19,237 L26,236 L32,236 L39,237 L46,237 L52,237 L59,238 L65,239 L72,240 L78,240 L85,241 L92,241 L98,241 L105,241 L111,240 L118,240 L124,241 L131,242 L138,242 L144,243 L151,243 L157,244 L164,244 L170,246 L177,248 L183,249 L190,250 L197,251 L203,251 L210,251 L216,251 L223,250 L229,250 L236,250 L242,250 L249,250 L256,250 L262,250 L269,250 L275,249 L282,248 L288,247 L295,247 L302,246 L308,246 L315,246 L321,245 L328,247 L334,247 L341,248 L348,248 L354,248 L361,247 L367,245 L374,244 L380,245 L387,244 L393,244 L400,244 L407,244 L413,245 L420,245 L426,245 L433,245 L439,244 L446,244 L452,244 L459,243 L466,243 L472,242 L479,242 L485,242 L492,243 L498,243 L505,243 L512,244 L518,245 L525,247 L531,249 L538,249 L544,250 L551,252 L558,252 L564,254 L571,254 L577,255 L584,255 L590,255 L597,255 L603,256 L610,256 L617,255 L623,255 L630,254 L636,254 L643,254 L649,253 L656,253 L662,252 L669,253 L676,254 L682,255 L689,255 L695,255 L702,254 L708,254 L715,255 L722,253 L728,253 L735,252 L741,251 L748,251 L754,250 L761,250 L768,249 L774,249 L781,249 L787,249 L794,249 L800,249 L807,248 L813,247 L820,247 L820,305 L-20,305 Z" fill="#7a4f25"/>
<path d="M-20,261 L6,261 L32,261 L59,262 L85,261 L111,263 L138,264 L164,264 L190,265 L216,263 L242,261 L269,260 L295,261 L321,261 L348,261 L374,262 L400,263 L426,262 L452,262 L479,260 L505,258 L531,259 L558,260 L584,260 L610,259 L636,258 L662,259 L689,258 L715,257 L741,259 L768,260 L794,259 L820,258 L820,305 L-20,305 Z" fill="#5e3b1c"/>
<ellipse cx="632" cy="293" rx="35" ry="9" fill="#3f2711" opacity=".75"/><ellipse cx="629" cy="291" rx="30" ry="6" fill="#5e3b1c"/>
<ellipse cx="445" cy="284" rx="19" ry="5" fill="#3f2711" opacity=".75"/><ellipse cx="442" cy="282" rx="14" ry="2" fill="#5e3b1c"/>
<ellipse cx="274" cy="294" rx="34" ry="8" fill="#3f2711" opacity=".75"/><ellipse cx="271" cy="292" rx="29" ry="5" fill="#5e3b1c"/>
<ellipse cx="60" cy="272" rx="29" ry="7" fill="#3f2711" opacity=".75"/><ellipse cx="57" cy="270" rx="24" ry="4" fill="#5e3b1c"/>
<ellipse cx="149" cy="272" rx="29" ry="7" fill="#3f2711" opacity=".75"/><ellipse cx="146" cy="270" rx="24" ry="4" fill="#5e3b1c"/>
<ellipse cx="241" cy="286" rx="21" ry="6" fill="#3f2711" opacity=".75"/><ellipse cx="238" cy="284" rx="16" ry="3" fill="#5e3b1c"/>
<ellipse cx="115" cy="282" rx="22" ry="6" fill="#3f2711" opacity=".75"/><ellipse cx="112" cy="280" rx="17" ry="3" fill="#5e3b1c"/>
<ellipse cx="169" cy="293" rx="45" ry="11" fill="#3f2711" opacity=".75"/><ellipse cx="166" cy="291" rx="40" ry="8" fill="#5e3b1c"/>
<ellipse cx="205" cy="280" rx="39" ry="9" fill="#3f2711" opacity=".75"/><ellipse cx="202" cy="278" rx="34" ry="6" fill="#5e3b1c"/>
<ellipse cx="160" cy="272" rx="38" ry="6" fill="#000" opacity=".5"/>
<g transform="translate(160 270) rotate(-14) scale(1.297975935859036 1.297975935859036)"><polygon points="-33.5,-36 -26.5,-36 -31.1,-10 -36.1,-10" fill="#d9dde6" stroke="#12151c" stroke-width="1.31" stroke-linejoin="round"/><rect x="-36.6" y="-11" width="6" height="5" rx="1" fill="#12151c"/><polygon points="-25.5,-36 -18.5,-36 -28.5,-16 -33.5,-16" fill="#ffffff" stroke="#12151c" stroke-width="1.31" stroke-linejoin="round"/><rect x="-34.0" y="-17" width="6" height="5" rx="1" fill="#12151c"/><polygon points="26.5,-36 33.5,-36 14.5,-26 9.5,-26" fill="#ffffff" stroke="#12151c" stroke-width="1.31" stroke-linejoin="round"/><rect x="9.0" y="-27" width="6" height="5" rx="1" fill="#12151c"/><polygon points="34.5,-36 41.5,-36 29.7,-18 24.7,-18" fill="#d9dde6" stroke="#12151c" stroke-width="1.31" stroke-linejoin="round"/><rect x="24.2" y="-19" width="6" height="5" rx="1" fill="#12151c"/><path d="M-30,-50 C-40,-58 -42,-46 -34,-40" fill="none" stroke="#12151c" stroke-width="1.85" stroke-linecap="round"/><ellipse cx="0" cy="-44" rx="31" ry="15.5" fill="#ffffff" stroke="#12151c" stroke-width="1.31"/><path d="M-24,-38 Q0,-29 22,-36" fill="none" stroke="#d9dde6" stroke-width="2.31" opacity=".8"/><polygon points="16,-44 32,-54 40,-66 26,-70 14,-62" fill="#ffffff" stroke="#12151c" stroke-width="1.31" stroke-linejoin="round"/><g transform="rotate(0 28 -58) translate(34 -74)"><path d="M2,-8 C-6,-30 4,-42 16,-46" fill="none" stroke="#12151c" stroke-width="2.77" stroke-linecap="round"/><path d="M8,-8 C6,-30 16,-40 26,-38" fill="none" stroke="#12151c" stroke-width="2.77" stroke-linecap="round"/><polygon points="-4,-4 -16,-8 -6,4" fill="#d9dde6" stroke="#12151c" stroke-width="1.31"/><polygon points="-2,-8 22,-10 34,2 28,12 8,12 -4,6" fill="#ffffff" stroke="#12151c" stroke-width="1.31" stroke-linejoin="round"/><polygon points="22,12 28,12 24,30 16,14" fill="#d9dde6" stroke="#12151c" stroke-width="1.31" stroke-linejoin="round"/><circle cx="14" cy="-1" r="2" fill="#12151c"/><circle cx="32" cy="3" r="1.8" fill="#12151c"/><circle cx="17" cy="0" r="30" fill="#cfe9ff" fill-opacity=".22" stroke="#e8f4ff" stroke-width="1.85"/><path d="M-3,-14 A24,24 0 0 1 16,-24" fill="none" stroke="#ffffff" stroke-width="2.00" stroke-linecap="round" opacity=".85"/></g></g>
<ellipse cx="340" cy="269" rx="38" ry="6" fill="#000" opacity=".5"/>
<g transform="translate(340 267) rotate(0) scale(-0.6840333181977118 0.6840333181977118)"><polygon points="-21.5,-30 -14.5,-30 -15.5,-6 -20.5,-6" fill="#d9dde6" stroke="#12151c" stroke-width="1.54" stroke-linejoin="round"/><rect x="-21.0" y="-7" width="6" height="5" rx="1" fill="#12151c"/><polygon points="-13.5,-30 -6.5,-30 -7.5,-6 -12.5,-6" fill="#ffffff" stroke="#12151c" stroke-width="1.54" stroke-linejoin="round"/><rect x="-13.0" y="-7" width="6" height="5" rx="1" fill="#12151c"/><polygon points="10.5,-30 17.5,-30 16.5,-6 11.5,-6" fill="#ffffff" stroke="#12151c" stroke-width="1.54" stroke-linejoin="round"/><rect x="11.0" y="-7" width="6" height="5" rx="1" fill="#12151c"/><polygon points="18.5,-30 25.5,-30 24.5,-6 19.5,-6" fill="#d9dde6" stroke="#12151c" stroke-width="1.54" stroke-linejoin="round"/><rect x="19.0" y="-7" width="6" height="5" rx="1" fill="#12151c"/><path d="M-30,-44 C-40,-52 -42,-40 -34,-34" fill="none" stroke="#12151c" stroke-width="2.18" stroke-linecap="round"/><ellipse cx="0" cy="-38" rx="31" ry="15.5" fill="#ffffff" stroke="#12151c" stroke-width="1.54"/><path d="M-24,-32 Q0,-23 22,-30" fill="none" stroke="#d9dde6" stroke-width="2.72" opacity=".8"/><polygon points="16,-38 32,-48 40,-60 26,-64 14,-56" fill="#ffffff" stroke="#12151c" stroke-width="1.54" stroke-linejoin="round"/><g transform="rotate(0 28 -52) translate(34 -68)"><path d="M2,-8 C-6,-30 4,-42 16,-46" fill="none" stroke="#12151c" stroke-width="3.26" stroke-linecap="round"/><path d="M8,-8 C6,-30 16,-40 26,-38" fill="none" stroke="#12151c" stroke-width="3.26" stroke-linecap="round"/><polygon points="-4,-4 -16,-8 -6,4" fill="#d9dde6" stroke="#12151c" stroke-width="1.54"/><polygon points="-2,-8 22,-10 34,2 28,12 8,12 -4,6" fill="#ffffff" stroke="#12151c" stroke-width="1.54" stroke-linejoin="round"/><polygon points="22,12 28,12 24,30 16,14" fill="#d9dde6" stroke="#12151c" stroke-width="1.54" stroke-linejoin="round"/><circle cx="14" cy="-1" r="2" fill="#12151c"/><circle cx="32" cy="3" r="1.8" fill="#12151c"/><circle cx="17" cy="0" r="30" fill="#cfe9ff" fill-opacity=".22" stroke="#e8f4ff" stroke-width="2.18"/><path d="M-3,-14 A24,24 0 0 1 16,-24" fill="none" stroke="#ffffff" stroke-width="2.36" stroke-linecap="round" opacity=".85"/></g></g>
<ellipse cx="570" cy="268" rx="38" ry="6" fill="#000" opacity=".5"/>
<g transform="translate(570 266) rotate(0) scale(0.6840333181977118 0.6840333181977118)"><polygon points="-21.5,-30 -14.5,-30 -15.5,-6 -20.5,-6" fill="#d9dde6" stroke="#12151c" stroke-width="1.54" stroke-linejoin="round"/><rect x="-21.0" y="-7" width="6" height="5" rx="1" fill="#12151c"/><polygon points="-13.5,-30 -6.5,-30 -7.5,-6 -12.5,-6" fill="#ffffff" stroke="#12151c" stroke-width="1.54" stroke-linejoin="round"/><rect x="-13.0" y="-7" width="6" height="5" rx="1" fill="#12151c"/><polygon points="10.5,-30 17.5,-30 16.5,-6 11.5,-6" fill="#ffffff" stroke="#12151c" stroke-width="1.54" stroke-linejoin="round"/><rect x="11.0" y="-7" width="6" height="5" rx="1" fill="#12151c"/><polygon points="18.5,-30 25.5,-30 24.5,-6 19.5,-6" fill="#d9dde6" stroke="#12151c" stroke-width="1.54" stroke-linejoin="round"/><rect x="19.0" y="-7" width="6" height="5" rx="1" fill="#12151c"/><path d="M-30,-44 C-40,-52 -42,-40 -34,-34" fill="none" stroke="#12151c" stroke-width="2.18" stroke-linecap="round"/><ellipse cx="0" cy="-38" rx="31" ry="15.5" fill="#ffffff" stroke="#12151c" stroke-width="1.54"/><path d="M-24,-32 Q0,-23 22,-30" fill="none" stroke="#d9dde6" stroke-width="2.72" opacity=".8"/><polygon points="16,-38 32,-48 40,-60 26,-64 14,-56" fill="#ffffff" stroke="#12151c" stroke-width="1.54" stroke-linejoin="round"/><g transform="rotate(0 28 -52) translate(34 -68)"><path d="M2,-8 C-6,-30 4,-42 16,-46" fill="none" stroke="#12151c" stroke-width="3.26" stroke-linecap="round"/><path d="M8,-8 C6,-30 16,-40 26,-38" fill="none" stroke="#12151c" stroke-width="3.26" stroke-linecap="round"/><polygon points="-4,-4 -16,-8 -6,4" fill="#d9dde6" stroke="#12151c" stroke-width="1.54"/><polygon points="-2,-8 22,-10 34,2 28,12 8,12 -4,6" fill="#ffffff" stroke="#12151c" stroke-width="1.54" stroke-linejoin="round"/><polygon points="22,12 28,12 24,30 16,14" fill="#d9dde6" stroke="#12151c" stroke-width="1.54" stroke-linejoin="round"/><circle cx="14" cy="-1" r="2" fill="#12151c"/><circle cx="32" cy="3" r="1.8" fill="#12151c"/><circle cx="17" cy="0" r="30" fill="#cfe9ff" fill-opacity=".22" stroke="#e8f4ff" stroke-width="2.18"/><path d="M-3,-14 A24,24 0 0 1 16,-24" fill="none" stroke="#ffffff" stroke-width="2.36" stroke-linecap="round" opacity=".85"/></g></g>
</svg>
