<svg xmlns="http://www.w3.org/2000/svg" viewBox="0 0 800 300" role="img" aria-labelledby="t6"><title id="t6">Mountain goats in space helmets on Mercury</title>
<defs><linearGradient id="g6" x1="0" y1="0" x2="0" y2="1"><stop offset="0" stop-color="#000000"/><stop offset="1" stop-color="#0a0806"/></linearGradient></defs><rect width="800" height="300" fill="url(#g6)"/>
<circle cx="704" cy="166" r="1.7" fill="#ffffff" opacity="0.51"/>
<circle cx="547" cy="36" r="1.7" fill="#ffffff" opacity="0.46"/>
<circle cx="60" cy="69" r="0.7" fill="#ffffff" opacity="0.96"/>
<circle cx="644" cy="50" r="1.2" fill="#ffffff" opacity="0.64"/>
<circle cx="178" cy="100" r="0.7" fill="#ffffff" opacity="0.76"/>
<circle cx="146" cy="89" r="1.2" fill="#ffffff" opacity="0.83"/>
<circle cx="655" cy="48" r="1.2" fill="#ffffff" opacity="0.98"/>
<circle cx="647" cy="179" r="0.9" fill="#ffffff" opacity="0.92"/>
<circle cx="52" cy="73" r="0.9" fill="#ffffff" opacity="0.53"/>
<circle cx="582" cy="9" r="0.7" fill="#ffffff" opacity="0.43"/>
<circle cx="445" cy="141" r="0.7" fill="#ffffff" opacity="0.43"/>
<circle cx="431" cy="68" r="0.9" fill="#ffffff" opacity="0.67"/>
<circle cx="395" cy="12" r="0.9" fill="#ffffff" opacity="0.45"/>
<circle cx="93" cy="171" r="1.7" fill="#ffffff" opacity="0.49"/>
<circle cx="494" cy="74" r="1.2" fill="#ffffff" opacity="0.94"/>
<circle cx="211" cy="80" r="0.7" fill="#ffffff" opacity="0.74"/>
<circle cx="176" cy="121" r="0.7" fill="#ffffff" opacity="0.46"/>
<circle cx="536" cy="126" r="1.7" fill="#ffffff" opacity="0.86"/>
<circle cx="314" cy="113" r="1.2" fill="#ffffff" opacity="0.80"/>
<circle cx="377" cy="89" r="0.7" fill="#ffffff" opacity="0.94"/>
<circle cx="401" cy="169" r="1.7" fill="#ffffff" opacity="0.57"/>
<circle cx="27" cy="29" r="1.7" fill="#ffffff" opacity="0.49"/>
<circle cx="676" cy="106" r="0.9" fill="#ffffff" opacity="0.54"/>
<circle cx="18" cy="73" r="1.7" fill="#ffffff" opacity="0.87"/>
<circle cx="243" cy="37" r="1.2" fill="#ffffff" opacity="0.46"/>
<circle cx="78" cy="103" r="1.7" fill="#ffffff" opacity="0.87"/>
<circle cx="662" cy="67" r="1.2" fill="#ffffff" opacity="0.70"/>
<circle cx="600" cy="183" r="1.2" fill="#ffffff" opacity="0.50"/>
<circle cx="589" cy="34" r="1.7" fill="#ffffff" opacity="0.66"/>
<circle cx="326" cy="57" r="1.2" fill="#ffffff" opacity="0.77"/>
<circle cx="157" cy="131" r="1.2" fill="#ffffff" opacity="0.76"/>
<circle cx="391" cy="128" r="0.7" fill="#ffffff" opacity="0.65"/>
<circle cx="232" cy="135" r="0.7" fill="#ffffff" opacity="0.99"/>
<circle cx="611" cy="158" r="0.7" fill="#ffffff" opacity="0.99"/>
<circle cx="102" cy="144" r="1.2" fill="#ffffff" opacity="0.51"/>
<circle cx="248" cy="115" r="1.2" fill="#ffffff" opacity="0.63"/>
<circle cx="723" cy="98" r="1.2" fill="#ffffff" opacity="0.76"/>
<circle cx="260" cy="51" r="0.7" fill="#ffffff" opacity="0.64"/>
<circle cx="53" cy="112" r="0.9" fill="#ffffff" opacity="0.45"/>
<circle cx="532" cy="98" r="1.7" fill="#ffffff" opacity="0.84"/>
<circle cx="701" cy="61" r="0.7" fill="#ffffff" opacity="0.89"/>
<circle cx="323" cy="150" r="0.7" fill="#ffffff" opacity="0.80"/>
<circle cx="783" cy="33" r="0.9" fill="#ffffff" opacity="0.61"/>
<circle cx="484" cy="132" r="1.7" fill="#ffffff" opacity="0.47"/>
<circle cx="272" cy="68" r="1.2" fill="#ffffff" opacity="0.62"/>
<circle cx="135" cy="188" r="0.7" fill="#ffffff" opacity="0.93"/>
<circle cx="539" cy="47" r="1.2" fill="#ffffff" opacity="0.68"/>
<circle cx="70" cy="147" r="0.9" fill="#ffffff" opacity="0.63"/>
<circle cx="463" cy="31" r="0.9" fill="#ffffff" opacity="0.71"/>
<circle cx="75" cy="94" r="1.7" fill="#ffffff" opacity="0.73"/>
<circle cx="10" cy="100" r="1.2" fill="#ffffff" opacity="0.98"/>
<circle cx="56" cy="141" r="0.7" fill="#ffffff" opacity="0.93"/>
<circle cx="166" cy="143" r="1.7" fill="#ffffff" opacity="0.86"/>
<circle cx="693" cy="94" r="1.7" fill="#ffffff" opacity="0.81"/>
<circle cx="658" cy="165" r="1.2" fill="#ffffff" opacity="0.97"/>
<circle cx="286" cy="131" r="0.9" fill="#ffffff" opacity="0.98"/>
<circle cx="485" cy="4" r="0.9" fill="#ffffff" opacity="0.68"/>
<circle cx="433" cy="165" r="1.7" fill="#ffffff" opacity="0.90"/>
<circle cx="337" cy="47" r="1.2" fill="#ffffff" opacity="0.45"/>
<circle cx="484" cy="148" r="0.9" fill="#ffffff" opacity="0.54"/>
<circle cx="242" cy="103" r="1.2" fill="#ffffff" opacity="0.61"/>
<circle cx="337" cy="86" r="0.9" fill="#ffffff" opacity="0.72"/>
<circle cx="568" cy="161" r="1.2" fill="#ffffff" opacity="0.63"/>
<circle cx="360" cy="98" r="1.7" fill="#ffffff" opacity="0.60"/>
<circle cx="307" cy="183" r="1.7" fill="#ffffff" opacity="0.85"/>
<circle cx="612" cy="130" r="0.7" fill="#ffffff" opacity="0.89"/>
<circle cx="339" cy="137" r="1.2" fill="#ffffff" opacity="0.59"/>
<circle cx="537" cy="15" r="0.9" fill="#ffffff" opacity="0.57"/>
<circle cx="625" cy="60" r="0.7" fill="#ffffff" opacity="0.70"/>
<circle cx="102" cy="159" r="1.7" fill="#ffffff" opacity="0.73"/>
<circle cx="595" cy="69" r="0.7" fill="#ffffff" opacity="0.82"/>
<circle cx="538" cy="159" r="1.2" fill="#ffffff" opacity="0.56"/>
<circle cx="141" cy="89" r="0.9" fill="#ffffff" opacity="0.59"/>
<circle cx="797" cy="144" r="0.9" fill="#ffffff" opacity="0.94"/>
<circle cx="661" cy="184" r="1.7" fill="#ffffff" opacity="0.69"/>
<circle cx="223" cy="81" r="1.7" fill="#ffffff" opacity="0.56"/>
<circle cx="508" cy="152" r="1.2" fill="#ffffff" opacity="0.88"/>
<circle cx="755" cy="107" r="0.7" fill="#ffffff" opacity="0.75"/>
<circle cx="223" cy="104" r="0.9" fill="#ffffff" opacity="0.50"/>
<circle cx="163" cy="43" r="1.7" fill="#ffffff" opacity="0.97"/>
<circle cx="211" cy="179" r="0.9" fill="#ffffff" opacity="0.86"/>
<circle cx="403" cy="181" r="1.2" fill="#ffffff" opacity="0.85"/>
<circle cx="762" cy="47" r="0.9" fill="#ffffff" opacity="0.89"/>
<circle cx="49" cy="76" r="0.7" fill="#ffffff" opacity="0.57"/>
<circle cx="416" cy="151" r="1.2" fill="#ffffff" opacity="0.54"/>
<circle cx="45" cy="186" r="1.2" fill="#ffffff" opacity="0.59"/>
<circle cx="404" cy="67" r="0.9" fill="#ffffff" opacity="0.73"/>
<circle cx="792" cy="96" r="0.9" fill="#ffffff" opacity="0.45"/>
<circle cx="720" cy="126" r="0.9" fill="#ffffff" opacity="0.97"/>
<circle cx="636" cy="164" r="1.7" fill="#ffffff" opacity="0.55"/>
<circle cx="363" cy="116" r="0.7" fill="#ffffff" opacity="0.45"/>
<circle cx="439" cy="148" r="0.7" fill="#ffffff" opacity="0.48"/>
<circle cx="181" cy="118" r="0.9" fill="#ffffff" opacity="0.57"/>
<circle cx="216" cy="22" r="0.9" fill="#ffffff" opacity="0.91"/>
<circle cx="22" cy="168" r="1.7" fill="#ffffff" opacity="0.76"/>
<circle cx="477" cy="99" r="1.7" fill="#ffffff" opacity="0.72"/>
<circle cx="157" cy="112" r="0.9" fill="#ffffff" opacity="0.48"/>
<circle cx="170" cy="21" r="0.7" fill="#ffffff" opacity="0.83"/>
<circle cx="393" cy="179" r="0.7" fill="#ffffff" opacity="0.77"/>
<circle cx="752" cy="80" r="0.7" fill="#ffffff" opacity="0.65"/>
<circle cx="418" cy="102" r="1.2" fill="#ffffff" opacity="0.55"/>
<circle cx="242" cy="144" r="0.7" fill="#ffffff" opacity="0.95"/>
<circle cx="26" cy="181" r="0.9" fill="#ffffff" opacity="0.52"/>
<circle cx="602" cy="73" r="1.2" fill="#ffffff" opacity="0.60"/>
<circle cx="477" cy="52" r="1.2" fill="#ffffff" opacity="0.79"/>
<circle cx="369" cy="184" r="0.9" fill="#ffffff" opacity="0.72"/>
<circle cx="751" cy="114" r="0.9" fill="#ffffff" opacity="0.86"/>
<circle cx="555" cy="87" r="0.7" fill="#ffffff" opacity="0.93"/>
<circle cx="402" cy="51" r="1.2" fill="#ffffff" opacity="0.92"/>
<circle cx="550" cy="96" r="0.9" fill="#ffffff" opacity="0.60"/>
<circle cx="560" cy="175" r="95" fill="#ffd9a0" opacity=".16"/><circle cx="560" cy="175" r="62" fill="#ffe7bd" opacity=".35"/><circle cx="560" cy="175" r="40" fill="#fff6e3"/>
<path d="M-20,198 L-13,194 L-7,193 L-0,188 L6,188 L13,189 L19,191 L26,191 L32,191 L39,194 L46,195 L52,193 L59,192 L65,191 L72,196 L78,200 L85,200 L92,202 L98,202 L105,201 L111,203 L118,204 L124,201 L131,196 L138,192 L144,200 L151,202 L157,203 L164,203 L170,202 L177,200 L183,202 L190,206 L197,207 L203,206 L210,210 L216,212 L223,212 L229,212 L236,211 L242,205 L249,202 L256,204 L262,203 L269,206 L275,210 L282,210 L288,211 L295,206 L302,203 L308,201 L315,201 L321,204 L328,206 L334,204 L341,200 L348,199 L354,203 L361,206 L367,205 L374,206 L380,211 L387,211 L393,208 L400,211 L407,209 L413,211 L420,210 L426,212 L433,210 L439,206 L446,204 L452,208 L459,209 L466,213 L472,212 L479,212 L485,212 L492,210 L498,209 L505,212 L512,212 L518,209 L525,210 L531,206 L538,203 L544,196 L551,195 L558,191 L564,190 L571,188 L577,188 L584,185 L590,186 L597,184 L603,181 L610,181 L617,181 L623,176 L630,178 L636,178 L643,175 L649,176 L656,173 L662,173 L669,176 L676,179 L682,181 L689,185 L695,188 L702,186 L708,187 L715,185 L722,183 L728,179 L735,183 L741,183 L748,186 L754,185 L761,192 L768,194 L774,197 L781,200 L787,202 L794,202 L800,203 L807,203 L813,202 L820,199 L820,305 L-20,305 Z" fill="#8d8780"/>
<path d="M-20,224 L-13,224 L-7,226 L-0,227 L6,225 L13,224 L19,225 L26,226 L32,228 L39,228 L46,227 L52,227 L59,229 L65,231 L72,234 L78,236 L85,238 L92,240 L98,241 L105,240 L111,240 L118,239 L124,239 L131,241 L138,242 L144,241 L151,240 L157,238 L164,236 L170,236 L177,235 L183,234 L190,232 L197,229 L203,227 L210,227 L216,225 L223,225 L229,225 L236,224 L242,223 L249,225 L256,226 L262,225 L269,225 L275,224 L282,222 L288,222 L295,222 L302,220 L308,220 L315,220 L321,219 L328,220 L334,222 L341,221 L348,220 L354,219 L361,219 L367,222 L374,222 L380,220 L387,220 L393,220 L400,219 L407,221 L413,222 L420,224 L426,224 L433,226 L439,226 L446,224 L452,224 L459,224 L466,223 L472,226 L479,225 L485,226 L492,228 L498,231 L505,234 L512,235 L518,235 L525,236 L531,236 L538,234 L544,234 L551,235 L558,236 L564,236 L571,237 L577,239 L584,241 L590,243 L597,244 L603,244 L610,246 L617,245 L623,243 L630,241 L636,239 L643,239 L649,237 L656,236 L662,235 L669,237 L676,238 L682,239 L689,239 L695,240 L702,240 L708,240 L715,239 L722,241 L728,241 L735,240 L741,239 L748,237 L754,236 L761,235 L768,234 L774,233 L781,231 L787,230 L794,228 L800,227 L807,227 L813,227 L820,225 L820,305 L-20,305 Z" fill="#6f6a64"/>
<path d="M-20,229 L-13,229 L-7,229 L-0,229 L6,230 L13,231 L19,231 L26,231 L32,232 L39,232 L46,232 L52,232 L59,232 L65,232 L72,232 L78,232 L85,231 L92,231 L98,231 L105,230 L111,229 L118,228 L124,227 L131,226 L138,226 L144,225 L151,224 L157,224 L164,223 L170,222 L177,221 L183,220 L190,219 L197,220 L203,220 L210,221 L216,221 L223,221 L229,221 L236,223 L242,223 L249,223 L256,223 L262,223 L269,223 L275,223 L282,224 L288,225 L295,225 L302,226 L308,226 L315,226 L321,226 L328,228 L334,229 L341,230 L348,231 L354,231 L361,231 L367,231 L374,232 L380,232 L387,232 L393,233 L400,233 L407,234 L413,235 L420,236 L426,237 L433,237 L439,238 L446,238 L452,238 L459,238 L466,237 L472,238 L479,238 L485,239 L492,240 L498,241 L505,241 L512,242 L518,243 L525,244 L531,245 L538,246 L544,247 L551,247 L558,248 L564,248 L571,248 L577,248 L584,247 L590,247 L597,247 L603,248 L610,249 L617,249 L623,248 L630,248 L636,246 L643,246 L649,246 L656,246 L662,247 L669,247 L676,246 L682,245 L689,244 L695,244 L702,243 L708,244 L715,243 L722,244 L728,245 L735,245 L741,246 L748,247 L754,248 L761,249 L768,250 L774,250 L781,250 L787,251 L794,251 L800,251 L807,250 L813,250 L820,250 L820,305 L-20,305 Z" fill="#524e49"/>
<path d="M-20,260 L6,262 L32,263 L59,265 L85,265 L111,266 L138,269 L164,270 L190,271 L216,272 L242,273 L269,272 L295,272 L321,271 L348,272 L374,272 L400,272 L426,273 L452,272 L479,272 L505,271 L531,270 L558,268 L584,266 L610,265 L636,264 L662,262 L689,261 L715,261 L741,262 L768,263 L794,263 L820,264 L820,305 L-20,305 Z" fill="#3e3a36"/>
<ellipse cx="171" cy="288" rx="25" ry="7" fill="#262320" opacity=".75"/><ellipse cx="168" cy="286" rx="20" ry="4" fill="#3e3a36"/>
<ellipse cx="613" cy="273" rx="34" ry="8" fill="#262320" opacity=".75"/><ellipse cx="610" cy="271" rx="29" ry="5" fill="#3e3a36"/>
<ellipse cx="509" cy="293" rx="40" ry="10" fill="#262320" opacity=".75"/><ellipse cx="506" cy="291" rx="35" ry="7" fill="#3e3a36"/>
<ellipse cx="566" cy="285" rx="37" ry="9" fill="#262320" opacity=".75"/><ellipse cx="563" cy="283" rx="32" ry="6" fill="#3e3a36"/>
<ellipse cx="186" cy="289" rx="24" ry="6" fill="#262320" opacity=".75"/><ellipse cx="183" cy="287" rx="19" ry="3" fill="#3e3a36"/>
<ellipse cx="96" cy="287" rx="42" ry="10" fill="#262320" opacity=".75"/><ellipse cx="93" cy="285" rx="37" ry="7" fill="#3e3a36"/>
<ellipse cx="356" cy="278" rx="20" ry="6" fill="#262320" opacity=".75"/><ellipse cx="353" cy="276" rx="15" ry="3" fill="#3e3a36"/>
<ellipse cx="655" cy="282" rx="16" ry="5" fill="#262320" opacity=".75"/><ellipse cx="652" cy="280" rx="11" ry="2" fill="#3e3a36"/>
<ellipse cx="618" cy="293" rx="30" ry="8" fill="#262320" opacity=".75"/><ellipse cx="615" cy="291" rx="25" ry="5" fill="#3e3a36"/>
<ellipse cx="200" cy="280" rx="38" ry="6" fill="#000" opacity=".5"/>
<g transform="translate(200 278) rotate(0) scale(-1.3831287421565712 1.3831287421565712)"><polygon points="-17.5,-10 -10.5,-10 -11.5,-7 -16.5,-7" fill="#d9dde6" stroke="#12151c" stroke-width="1.23" stroke-linejoin="round"/><rect x="-17.0" y="-8" width="6" height="5" rx="1" fill="#12151c"/><polygon points="-7.5,-10 -0.5,-10 -1.5,-7 -6.5,-7" fill="#ffffff" stroke="#12151c" stroke-width="1.23" stroke-linejoin="round"/><rect x="-7.0" y="-8" width="6" height="5" rx="1" fill="#12151c"/><polygon points="10.5,-10 17.5,-10 16.5,-7 11.5,-7" fill="#ffffff" stroke="#12151c" stroke-width="1.23" stroke-linejoin="round"/><rect x="11.0" y="-8" width="6" height="5" rx="1" fill="#12151c"/><polygon points="20.5,-10 27.5,-10 26.5,-7 21.5,-7" fill="#d9dde6" stroke="#12151c" stroke-width="1.23" stroke-linejoin="round"/><rect x="21.0" y="-8" width="6" height="5" rx="1" fill="#12151c"/><path d="M-30,-30 C-40,-38 -42,-26 -34,-20" fill="none" stroke="#12151c" stroke-width="1.74" stroke-linecap="round"/><ellipse cx="0" cy="-24" rx="31" ry="15.5" fill="#ffffff" stroke="#12151c" stroke-width="1.23"/><path d="M-24,-18 Q0,-9 22,-16" fill="none" stroke="#d9dde6" stroke-width="2.17" opacity=".8"/><polygon points="16,-24 32,-34 40,-46 26,-50 14,-42" fill="#ffffff" stroke="#12151c" stroke-width="1.23" stroke-linejoin="round"/><g transform="rotate(0 28 -38) translate(34 -54)"><path d="M2,-8 C-6,-30 4,-42 16,-46" fill="none" stroke="#12151c" stroke-width="2.60" stroke-linecap="round"/><path d="M8,-8 C6,-30 16,-40 26,-38" fill="none" stroke="#12151c" stroke-width="2.60" stroke-linecap="round"/><polygon points="-4,-4 -16,-8 -6,4" fill="#d9dde6" stroke="#12151c" stroke-width="1.23"/><polygon points="-2,-8 22,-10 34,2 28,12 8,12 -4,6" fill="#ffffff" stroke="#12151c" stroke-width="1.23" stroke-linejoin="round"/><polygon points="22,12 28,12 24,30 16,14" fill="#d9dde6" stroke="#12151c" stroke-width="1.23" stroke-linejoin="round"/><circle cx="14" cy="-1" r="2" fill="#12151c"/><circle cx="32" cy="3" r="1.8" fill="#12151c"/><circle cx="17" cy="0" r="30" fill="#cfe9ff" fill-opacity=".22" stroke="#e8f4ff" stroke-width="1.74"/><path d="M-3,-14 A24,24 0 0 1 16,-24" fill="none" stroke="#ffffff" stroke-width="1.88" stroke-linecap="round" opacity=".85"/></g></g>
<ellipse cx="540" cy="277" rx="38" ry="6" fill="#000" opacity=".5"/>
<g transform="translate(540 275) rotate(0) scale(0.7289088471165129 0.7289088471165129)"><polygon points="-21.5,-30 -14.5,-30 -15.5,-6 -20.5,-6" fill="#d9dde6" stroke="#12151c" stroke-width="1.45" stroke-linejoin="round"/><rect x="-21.0" y="-7" width="6" height="5" rx="1" fill="#12151c"/><polygon points="-13.5,-30 -6.5,-30 -7.5,-6 -12.5,-6" fill="#ffffff" stroke="#12151c" stroke-width="1.45" stroke-linejoin="round"/><rect x="-13.0" y="-7" width="6" height="5" rx="1" fill="#12151c"/><polygon points="10.5,-30 17.5,-30 16.5,-6 11.5,-6" fill="#ffffff" stroke="#12151c" stroke-width="1.45" stroke-linejoin="round"/><rect x="11.0" y="-7" width="6" height="5" rx="1" fill="#12151c"/><polygon points="18.5,-30 25.5,-30 24.5,-6 19.5,-6" fill="#d9dde6" stroke="#12151c" stroke-width="1.45" stroke-linejoin="round"/><rect x="19.0" y="-7" width="6" height="5" rx="1" fill="#12151c"/><path d="M-30,-44 C-40,-52 -42,-40 -34,-34" fill="none" stroke="#12151c" stroke-width="2.04" stroke-linecap="round"/><ellipse cx="0" cy="-38" rx="31" ry="15.5" fill="#ffffff" stroke="#12151c" stroke-width="1.45"/><path d="M-24,-32 Q0,-23 22,-30" fill="none" stroke="#d9dde6" stroke-width="2.55" opacity=".8"/><polygon points="16,-38 32,-48 40,-60 26,-64 14,-56" fill="#ffffff" stroke="#12151c" stroke-width="1.45" stroke-linejoin="round"/><g transform="rotate(58 28 -52) translate(34 -68)"><path d="M2,-8 C-6,-30 4,-42 16,-46" fill="none" stroke="#12151c" stroke-width="3.06" stroke-linecap="round"/><path d="M8,-8 C6,-30 16,-40 26,-38" fill="none" stroke="#12151c" stroke-width="3.06" stroke-linecap="round"/><polygon points="-4,-4 -16,-8 -6,4" fill="#d9dde6" stroke="#12151c" stroke-width="1.45"/><polygon points="-2,-8 22,-10 34,2 28,12 8,12 -4,6" fill="#ffffff" stroke="#12151c" stroke-width="1.45" stroke-linejoin="round"/><polygon points="22,12 28,12 24,30 16,14" fill="#d9dde6" stroke="#12151c" stroke-width="1.45" stroke-linejoin="round"/><circle cx="14" cy="-1" r="2" fill="#12151c"/><circle cx="32" cy="3" r="1.8" fill="#12151c"/><circle cx="17" cy="0" r="30" fill="#cfe9ff" fill-opacity=".22" stroke="#e8f4ff" stroke-width="2.04"/><path d="M-3,-14 A24,24 0 0 1 16,-24" fill="none" stroke="#ffffff" stroke-width="2.21" stroke-linecap="round" opacity=".85"/></g></g>
</svg>
