<svg xmlns="http://www.w3.org/2000/svg" viewBox="0 0 800 300" role="img" aria-labelledby="t15"><title id="t15">Mountain goats on the mountain in black and white at dusk</title>
<defs><linearGradient id="g15" x1="0" y1="0" x2="0" y2="1"><stop offset="0" stop-color="#1a1a1a"/><stop offset="1" stop-color="#4d4d4d"/></linearGradient></defs>
<rect width="800" height="300" fill="url(#g15)"/>
<circle cx="318" cy="115" r="1.1" fill="#ffffff" opacity="0.72"/>
<circle cx="340" cy="25" r="1.6" fill="#ffffff" opacity="0.69"/>
<circle cx="320" cy="87" r="1.1" fill="#ffffff" opacity="0.52"/>
<circle cx="735" cy="107" r="0.8" fill="#ffffff" opacity="0.70"/>
<circle cx="755" cy="75" r="1.6" fill="#ffffff" opacity="0.77"/>
<circle cx="174" cy="71" r="0.8" fill="#ffffff" opacity="0.67"/>
<circle cx="472" cy="125" r="1.6" fill="#ffffff" opacity="0.89"/>
<circle cx="663" cy="74" r="1.1" fill="#ffffff" opacity="0.51"/>
<circle cx="20" cy="105" r="0.8" fill="#ffffff" opacity="0.52"/>
<circle cx="278" cy="96" r="1.1" fill="#ffffff" opacity="0.73"/>
<circle cx="60" cy="18" r="1.6" fill="#ffffff" opacity="0.70"/>
<circle cx="537" cy="78" r="1.6" fill="#ffffff" opacity="0.83"/>
<circle cx="525" cy="141" r="1.6" fill="#ffffff" opacity="0.74"/>
<circle cx="258" cy="149" r="1.6" fill="#ffffff" opacity="0.50"/>
<circle cx="136" cy="118" r="0.8" fill="#ffffff" opacity="0.87"/>
<circle cx="271" cy="131" r="1.1" fill="#ffffff" opacity="0.51"/>
<circle cx="694" cy="22" r="1.6" fill="#ffffff" opacity="0.79"/>
<circle cx="609" cy="146" r="1.6" fill="#ffffff" opacity="0.93"/>
<circle cx="753" cy="47" r="0.8" fill="#ffffff" opacity="0.73"/>
<circle cx="775" cy="86" r="1.1" fill="#ffffff" opacity="0.57"/>
<circle cx="547" cy="25" r="0.8" fill="#ffffff" opacity="0.86"/>
<circle cx="308" cy="144" r="1.1" fill="#ffffff" opacity="0.65"/>
<circle cx="564" cy="129" r="1.6" fill="#ffffff" opacity="0.77"/>
<circle cx="120" cy="18" r="0.8" fill="#ffffff" opacity="0.67"/>
<circle cx="399" cy="37" r="1.1" fill="#ffffff" opacity="0.57"/>
<circle cx="154" cy="106" r="0.8" fill="#ffffff" opacity="0.77"/>
<circle cx="309" cy="51" r="0.8" fill="#ffffff" opacity="0.52"/>
<circle cx="733" cy="50" r="1.6" fill="#ffffff" opacity="0.69"/>
<circle cx="348" cy="50" r="1.6" fill="#ffffff" opacity="0.52"/>
<circle cx="741" cy="46" r="1.6" fill="#ffffff" opacity="0.55"/>
<circle cx="654" cy="67" r="0.8" fill="#ffffff" opacity="0.90"/>
<circle cx="638" cy="147" r="1.1" fill="#ffffff" opacity="0.66"/>
<circle cx="337" cy="37" r="0.8" fill="#ffffff" opacity="0.53"/>
<circle cx="666" cy="115" r="1.1" fill="#ffffff" opacity="0.92"/>
<circle cx="57" cy="142" r="1.1" fill="#ffffff" opacity="0.57"/>
<circle cx="444" cy="88" r="0.8" fill="#ffffff" opacity="0.78"/>
<circle cx="638" cy="54" r="1.1" fill="#ffffff" opacity="0.75"/>
<circle cx="28" cy="67" r="1.6" fill="#ffffff" opacity="0.72"/>
<circle cx="439" cy="37" r="1.6" fill="#ffffff" opacity="1.00"/>
<circle cx="717" cy="83" r="0.8" fill="#ffffff" opacity="0.77"/>
<circle cx="276" cy="5" r="1.6" fill="#ffffff" opacity="0.63"/>
<circle cx="576" cy="7" r="0.8" fill="#ffffff" opacity="0.58"/>
<circle cx="788" cy="60" r="1.6" fill="#ffffff" opacity="0.96"/>
<circle cx="680" cy="10" r="1.6" fill="#ffffff" opacity="0.86"/>
<circle cx="181" cy="70" r="1.1" fill="#ffffff" opacity="0.51"/>
<circle cx="544" cy="149" r="0.8" fill="#ffffff" opacity="0.56"/>
<circle cx="755" cy="30" r="1.6" fill="#ffffff" opacity="0.91"/>
<circle cx="769" cy="68" r="1.6" fill="#ffffff" opacity="0.56"/>
<circle cx="144" cy="43" r="16" fill="#ffffff" opacity=".95"/><circle cx="144" cy="43" r="41" fill="#ffffff" opacity=".22"/>
<g fill="#f2f2f2" opacity="0.55"><ellipse cx="652" cy="28" rx="39" ry="13"/><ellipse cx="629" cy="31" rx="25" ry="10"/><ellipse cx="677" cy="32" rx="28" ry="9"/></g>
<g fill="#f2f2f2" opacity="0.55"><ellipse cx="335" cy="98" rx="36" ry="12"/><ellipse cx="314" cy="101" rx="23" ry="10"/><ellipse cx="358" cy="102" rx="26" ry="9"/></g>
<g fill="#f2f2f2" opacity="0.55"><ellipse cx="87" cy="80" rx="31" ry="10"/><ellipse cx="69" cy="83" rx="20" ry="8"/><ellipse cx="107" cy="84" rx="22" ry="7"/></g>
<g fill="#f2f2f2" opacity="0.55"><ellipse cx="211" cy="35" rx="28" ry="9"/><ellipse cx="194" cy="38" rx="18" ry="8"/><ellipse cx="229" cy="39" rx="20" ry="7"/></g>
<path d="M97,104 q6,-7 11,0 q6,-7 11,0" fill="none" stroke="#000000" stroke-width="1.6" stroke-linecap="round"/>
<path d="M-20,137 L-13,129 L-7,130 L-0,127 L6,127 L13,126 L19,132 L26,129 L32,133 L39,143 L46,150 L52,147 L59,152 L65,148 L72,147 L78,155 L85,157 L92,161 L98,156 L105,154 L111,156 L118,144 L124,140 L131,141 L138,137 L144,134 L151,126 L157,126 L164,125 L170,122 L177,121 L183,117 L190,122 L197,124 L203,125 L210,128 L216,133 L223,132 L229,134 L236,139 L242,145 L249,149 L256,144 L262,142 L269,146 L275,144 L282,150 L288,155 L295,167 L302,177 L308,178 L315,177 L321,174 L328,178 L334,181 L341,179 L348,176 L354,175 L361,183 L367,183 L374,190 L380,195 L387,206 L393,213 L400,225 L407,229 L413,227 L420,222 L426,221 L433,218 L439,214 L446,211 L452,209 L459,213 L466,218 L472,221 L479,217 L485,212 L492,207 L498,201 L505,201 L512,204 L518,209 L525,214 L531,222 L538,228 L544,233 L551,235 L558,234 L564,232 L571,223 L577,228 L584,227 L590,229 L597,233 L603,237 L610,236 L617,243 L623,248 L630,247 L636,249 L643,249 L649,243 L656,235 L662,236 L669,231 L676,225 L682,229 L689,227 L695,231 L702,226 L708,220 L715,210 L722,204 L728,200 L735,194 L741,194 L748,192 L754,197 L761,196 L768,197 L774,194 L781,192 L787,189 L794,184 L800,177 L807,180 L813,188 L820,188 L820,305 L-20,305 Z" fill="#6b6b6b"/>
<clipPath id="c15118"><path d="M-20,-5 L820,-5 L826,115 L808,124 L790,116 L772,123 L754,116 L736,109 L718,119 L700,121 L682,125 L664,118 L646,116 L628,124 L610,116 L592,125 L574,111 L556,109 L538,121 L520,124 L502,116 L484,120 L466,113 L448,125 L430,113 L412,123 L394,111 L376,117 L358,115 L340,124 L322,123 L304,126 L286,113 L268,123 L250,117 L232,121 L214,123 L196,112 L178,119 L160,127 L142,123 L124,118 L106,118 L88,116 L70,126 L52,126 L34,121 L16,123 L-2,115 L-20,122 Z"/></clipPath>
<path d="M-20,137 L-13,129 L-7,130 L-0,127 L6,127 L13,126 L19,132 L26,129 L32,133 L39,143 L46,150 L52,147 L59,152 L65,148 L72,147 L78,155 L85,157 L92,161 L98,156 L105,154 L111,156 L118,144 L124,140 L131,141 L138,137 L144,134 L151,126 L157,126 L164,125 L170,122 L177,121 L183,117 L190,122 L197,124 L203,125 L210,128 L216,133 L223,132 L229,134 L236,139 L242,145 L249,149 L256,144 L262,142 L269,146 L275,144 L282,150 L288,155 L295,167 L302,177 L308,178 L315,177 L321,174 L328,178 L334,181 L341,179 L348,176 L354,175 L361,183 L367,183 L374,190 L380,195 L387,206 L393,213 L400,225 L407,229 L413,227 L420,222 L426,221 L433,218 L439,214 L446,211 L452,209 L459,213 L466,218 L472,221 L479,217 L485,212 L492,207 L498,201 L505,201 L512,204 L518,209 L525,214 L531,222 L538,228 L544,233 L551,235 L558,234 L564,232 L571,223 L577,228 L584,227 L590,229 L597,233 L603,237 L610,236 L617,243 L623,248 L630,247 L636,249 L643,249 L649,243 L656,235 L662,236 L669,231 L676,225 L682,229 L689,227 L695,231 L702,226 L708,220 L715,210 L722,204 L728,200 L735,194 L741,194 L748,192 L754,197 L761,196 L768,197 L774,194 L781,192 L787,189 L794,184 L800,177 L807,180 L813,188 L820,188 L820,305 L-20,305 Z" fill="#f2f2f2" clip-path="url(#c15118)" opacity=".96"/>
<path d="M-20,230 L-13,228 L-7,226 L-0,225 L6,224 L13,225 L19,225 L26,225 L32,229 L39,227 L46,229 L52,228 L59,229 L65,228 L72,225 L78,219 L85,216 L92,215 L98,211 L105,212 L111,212 L118,212 L124,212 L131,215 L138,215 L144,213 L151,214 L157,215 L164,217 L170,220 L177,221 L183,223 L190,226 L197,223 L203,222 L210,220 L216,219 L223,219 L229,219 L236,219 L242,216 L249,215 L256,211 L262,210 L269,212 L275,207 L282,203 L288,201 L295,198 L302,197 L308,199 L315,200 L321,200 L328,197 L334,197 L341,193 L348,191 L354,190 L361,189 L367,192 L374,191 L380,190 L387,191 L393,188 L400,186 L407,185 L413,182 L420,184 L426,184 L433,183 L439,181 L446,183 L452,181 L459,180 L466,178 L472,176 L479,173 L485,172 L492,171 L498,171 L505,172 L512,175 L518,176 L525,174 L531,175 L538,175 L544,172 L551,173 L558,172 L564,172 L571,172 L577,169 L584,168 L590,165 L597,161 L603,161 L610,157 L617,156 L623,155 L630,155 L636,156 L643,157 L649,156 L656,161 L662,162 L669,166 L676,166 L682,164 L689,166 L695,166 L702,162 L708,162 L715,159 L722,158 L728,161 L735,161 L741,158 L748,160 L754,164 L761,164 L768,165 L774,170 L781,177 L787,179 L794,183 L800,184 L807,187 L813,188 L820,193 L820,305 L-20,305 Z" fill="#4a4a4a"/>
<clipPath id="c15155"><path d="M-20,-5 L820,-5 L826,151 L808,153 L790,155 L772,146 L754,158 L736,155 L718,153 L700,158 L682,149 L664,162 L646,157 L628,147 L610,160 L592,147 L574,162 L556,155 L538,155 L520,153 L502,148 L484,147 L466,160 L448,155 L430,163 L412,157 L394,151 L376,162 L358,164 L340,146 L322,152 L304,149 L286,151 L268,151 L250,149 L232,152 L214,161 L196,158 L178,161 L160,157 L142,152 L124,154 L106,150 L88,163 L70,153 L52,157 L34,149 L16,159 L-2,157 L-20,157 Z"/></clipPath>
<path d="M-20,230 L-13,228 L-7,226 L-0,225 L6,224 L13,225 L19,225 L26,225 L32,229 L39,227 L46,229 L52,228 L59,229 L65,228 L72,225 L78,219 L85,216 L92,215 L98,211 L105,212 L111,212 L118,212 L124,212 L131,215 L138,215 L144,213 L151,214 L157,215 L164,217 L170,220 L177,221 L183,223 L190,226 L197,223 L203,222 L210,220 L216,219 L223,219 L229,219 L236,219 L242,216 L249,215 L256,211 L262,210 L269,212 L275,207 L282,203 L288,201 L295,198 L302,197 L308,199 L315,200 L321,200 L328,197 L334,197 L341,193 L348,191 L354,190 L361,189 L367,192 L374,191 L380,190 L387,191 L393,188 L400,186 L407,185 L413,182 L420,184 L426,184 L433,183 L439,181 L446,183 L452,181 L459,180 L466,178 L472,176 L479,173 L485,172 L492,171 L498,171 L505,172 L512,175 L518,176 L525,174 L531,175 L538,175 L544,172 L551,173 L558,172 L564,172 L571,172 L577,169 L584,168 L590,165 L597,161 L603,161 L610,157 L617,156 L623,155 L630,155 L636,156 L643,157 L649,156 L656,161 L662,162 L669,166 L676,166 L682,164 L689,166 L695,166 L702,162 L708,162 L715,159 L722,158 L728,161 L735,161 L741,158 L748,160 L754,164 L761,164 L768,165 L774,170 L781,177 L787,179 L794,183 L800,184 L807,187 L813,188 L820,193 L820,305 L-20,305 Z" fill="#f2f2f2" clip-path="url(#c15155)" opacity=".96"/>
<path d="M-20,242 L-13,242 L-7,242 L-0,242 L6,241 L13,240 L19,240 L26,239 L32,240 L39,240 L46,242 L52,243 L59,243 L65,243 L72,242 L78,242 L85,242 L92,242 L98,242 L105,241 L111,240 L118,240 L124,241 L131,240 L138,240 L144,239 L151,238 L157,238 L164,237 L170,235 L177,234 L183,234 L190,232 L197,234 L203,235 L210,236 L216,239 L223,242 L229,243 L236,245 L242,247 L249,248 L256,248 L262,248 L269,249 L275,250 L282,252 L288,252 L295,253 L302,254 L308,255 L315,257 L321,259 L328,260 L334,260 L341,259 L348,259 L354,259 L361,260 L367,260 L374,259 L380,260 L387,262 L393,263 L400,264 L407,262 L413,261 L420,260 L426,259 L433,259 L439,258 L446,259 L452,258 L459,259 L466,259 L472,259 L479,261 L485,261 L492,262 L498,263 L505,262 L512,263 L518,262 L525,261 L531,261 L538,263 L544,263 L551,263 L558,263 L564,263 L571,264 L577,263 L584,263 L590,263 L597,262 L603,261 L610,260 L617,258 L623,257 L630,255 L636,252 L643,252 L649,252 L656,250 L662,250 L669,249 L676,250 L682,249 L689,247 L695,248 L702,250 L708,250 L715,250 L722,248 L728,248 L735,246 L741,245 L748,246 L754,246 L761,245 L768,246 L774,244 L781,241 L787,238 L794,237 L800,237 L807,236 L813,234 L820,234 L820,305 L-20,305 Z" fill="#2e2e2e"/>
<clipPath id="c15205"><path d="M-20,-5 L820,-5 L826,205 L808,213 L790,206 L772,202 L754,206 L736,199 L718,206 L700,204 L682,206 L664,201 L646,213 L628,211 L610,208 L592,214 L574,199 L556,198 L538,202 L520,202 L502,199 L484,201 L466,205 L448,205 L430,208 L412,211 L394,209 L376,208 L358,198 L340,212 L322,202 L304,213 L286,213 L268,204 L250,213 L232,196 L214,207 L196,204 L178,203 L160,197 L142,201 L124,202 L106,197 L88,202 L70,197 L52,214 L34,208 L16,213 L-2,197 L-20,212 Z"/></clipPath>
<path d="M-20,242 L-13,242 L-7,242 L-0,242 L6,241 L13,240 L19,240 L26,239 L32,240 L39,240 L46,242 L52,243 L59,243 L65,243 L72,242 L78,242 L85,242 L92,242 L98,242 L105,241 L111,240 L118,240 L124,241 L131,240 L138,240 L144,239 L151,238 L157,238 L164,237 L170,235 L177,234 L183,234 L190,232 L197,234 L203,235 L210,236 L216,239 L223,242 L229,243 L236,245 L242,247 L249,248 L256,248 L262,248 L269,249 L275,250 L282,252 L288,252 L295,253 L302,254 L308,255 L315,257 L321,259 L328,260 L334,260 L341,259 L348,259 L354,259 L361,260 L367,260 L374,259 L380,260 L387,262 L393,263 L400,264 L407,262 L413,261 L420,260 L426,259 L433,259 L439,258 L446,259 L452,258 L459,259 L466,259 L472,259 L479,261 L485,261 L492,262 L498,263 L505,262 L512,263 L518,262 L525,261 L531,261 L538,263 L544,263 L551,263 L558,263 L564,263 L571,264 L577,263 L584,263 L590,263 L597,262 L603,261 L610,260 L617,258 L623,257 L630,255 L636,252 L643,252 L649,252 L656,250 L662,250 L669,249 L676,250 L682,249 L689,247 L695,248 L702,250 L708,250 L715,250 L722,248 L728,248 L735,246 L741,245 L748,246 L754,246 L761,245 L768,246 L774,244 L781,241 L787,238 L794,237 L800,237 L807,236 L813,234 L820,234 L820,305 L-20,305 Z" fill="#f2f2f2" clip-path="url(#c15205)" opacity=".96"/>
<polygon points="114,240 180,305 108,300" fill="#1c1c1c" opacity=".45"/>
<polygon points="466,259 503,324 460,300" fill="#1c1c1c" opacity=".45"/>
<polygon points="534,262 566,322 528,300" fill="#1c1c1c" opacity=".45"/>
<polygon points="503,262 557,304 497,300" fill="#1c1c1c" opacity=".45"/>
<polygon points="157,238 205,281 151,300" fill="#1c1c1c" opacity=".45"/>
<path d="M-20,262 L6,263 L32,262 L59,260 L85,260 L111,261 L138,263 L164,264 L190,264 L216,263 L242,262 L269,262 L295,263 L321,259 L348,258 L374,256 L400,255 L426,256 L452,257 L479,255 L505,256 L531,257 L558,257 L584,258 L610,257 L636,258 L662,258 L689,259 L715,259 L741,259 L768,260 L794,262 L820,266 L820,305 L-20,305 Z" fill="#1c1c1c"/>
<ellipse cx="380" cy="262" rx="38" ry="6" fill="#1c1c1c" opacity=".7"/>
<g transform="translate(380 260) rotate(0) scale(-1.3650758301258712 1.3650758301258712)"><polygon points="-21.5,-30 -14.5,-30 -15.5,-6 -20.5,-6" fill="#cfcfcf" stroke="#000000" stroke-width="1.25" stroke-linejoin="round"/><rect x="-21.0" y="-7" width="6" height="5" rx="1" fill="#000000"/><polygon points="-13.5,-30 -6.5,-30 -7.5,-6 -12.5,-6" fill="#fafafa" stroke="#000000" stroke-width="1.25" stroke-linejoin="round"/><rect x="-13.0" y="-7" width="6" height="5" rx="1" fill="#000000"/><polygon points="10.5,-30 17.5,-30 16.5,-6 11.5,-6" fill="#fafafa" stroke="#000000" stroke-width="1.25" stroke-linejoin="round"/><rect x="11.0" y="-7" width="6" height="5" rx="1" fill="#000000"/><polygon points="18.5,-30 25.5,-30 24.5,-6 19.5,-6" fill="#cfcfcf" stroke="#000000" stroke-width="1.25" stroke-linejoin="round"/><rect x="19.0" y="-7" width="6" height="5" rx="1" fill="#000000"/><path d="M-30,-44 C-40,-52 -42,-40 -34,-34" fill="none" stroke="#000000" stroke-width="1.76" stroke-linecap="round"/><ellipse cx="0" cy="-38" rx="31" ry="15.5" fill="#fafafa" stroke="#000000" stroke-width="1.25"/><path d="M-24,-32 Q0,-23 22,-30" fill="none" stroke="#cfcfcf" stroke-width="2.20" opacity=".8"/><polygon points="16,-38 32,-48 40,-60 26,-64 14,-56" fill="#fafafa" stroke="#000000" stroke-width="1.25" stroke-linejoin="round"/><g transform="rotate(58 28 -52) translate(34 -68)"><path d="M2,-8 C-6,-30 4,-42 16,-46" fill="none" stroke="#000000" stroke-width="2.64" stroke-linecap="round"/><path d="M8,-8 C6,-30 16,-40 26,-38" fill="none" stroke="#000000" stroke-width="2.64" stroke-linecap="round"/><polygon points="-4,-4 -16,-8 -6,4" fill="#cfcfcf" stroke="#000000" stroke-width="1.25"/><polygon points="-2,-8 22,-10 34,2 28,12 8,12 -4,6" fill="#fafafa" stroke="#000000" stroke-width="1.25" stroke-linejoin="round"/><polygon points="22,12 28,12 24,30 16,14" fill="#cfcfcf" stroke="#000000" stroke-width="1.25" stroke-linejoin="round"/><circle cx="14" cy="-1" r="2" fill="#000000"/><circle cx="32" cy="3" r="1.8" fill="#000000"/></g></g>
<ellipse cx="640" cy="264" rx="38" ry="6" fill="#1c1c1c" opacity=".7"/>
<g transform="translate(640 262) rotate(0) scale(0.719394962476334 0.719394962476334)"><polygon points="-21.5,-30 -14.5,-30 -15.5,-6 -20.5,-6" fill="#cfcfcf" stroke="#000000" stroke-width="1.47" stroke-linejoin="round"/><rect x="-21.0" y="-7" width="6" height="5" rx="1" fill="#000000"/><polygon points="-13.5,-30 -6.5,-30 -7.5,-6 -12.5,-6" fill="#fafafa" stroke="#000000" stroke-width="1.47" stroke-linejoin="round"/><rect x="-13.0" y="-7" width="6" height="5" rx="1" fill="#000000"/><polygon points="10.5,-30 17.5,-30 16.5,-6 11.5,-6" fill="#fafafa" stroke="#000000" stroke-width="1.47" stroke-linejoin="round"/><rect x="11.0" y="-7" width="6" height="5" rx="1" fill="#000000"/><polygon points="18.5,-30 25.5,-30 24.5,-6 19.5,-6" fill="#cfcfcf" stroke="#000000" stroke-width="1.47" stroke-linejoin="round"/><rect x="19.0" y="-7" width="6" height="5" rx="1" fill="#000000"/><path d="M-30,-44 C-40,-52 -42,-40 -34,-34" fill="none" stroke="#000000" stroke-width="2.07" stroke-linecap="round"/><ellipse cx="0" cy="-38" rx="31" ry="15.5" fill="#fafafa" stroke="#000000" stroke-width="1.47"/><path d="M-24,-32 Q0,-23 22,-30" fill="none" stroke="#cfcfcf" stroke-width="2.59" opacity=".8"/><polygon points="16,-38 32,-48 40,-60 26,-64 14,-56" fill="#fafafa" stroke="#000000" stroke-width="1.47" stroke-linejoin="round"/><g transform="rotate(-22 28 -52) translate(34 -68)"><path d="M2,-8 C-6,-30 4,-42 16,-46" fill="none" stroke="#000000" stroke-width="3.10" stroke-linecap="round"/><path d="M8,-8 C6,-30 16,-40 26,-38" fill="none" stroke="#000000" stroke-width="3.10" stroke-linecap="round"/><polygon points="-4,-4 -16,-8 -6,4" fill="#cfcfcf" stroke="#000000" stroke-width="1.47"/><polygon points="-2,-8 22,-10 34,2 28,12 8,12 -4,6" fill="#fafafa" stroke="#000000" stroke-width="1.47" stroke-linejoin="round"/><polygon points="22,12 28,12 24,30 16,14" fill="#cfcfcf" stroke="#000000" stroke-width="1.47" stroke-linejoin="round"/><circle cx="14" cy="-1" r="2" fill="#000000"/><circle cx="32" cy="3" r="1.8" fill="#000000"/></g></g>
</svg>
