<svg xmlns="http://www.w3.org/2000/svg" viewBox="0 0 800 300" role="img" aria-labelledby="t25"><title id="t25">Mountain goats in space helmets on the Moon</title>
<defs><linearGradient id="g25" x1="0" y1="0" x2="0" y2="1"><stop offset="0" stop-color="#000000"/><stop offset="1" stop-color="#06070d"/></linearGradient></defs><rect width="800" height="300" fill="url(#g25)"/>
<circle cx="253" cy="184" r="0.9" fill="#ffffff" opacity="0.58"/>
<circle cx="137" cy="20" r="0.9" fill="#ffffff" opacity="0.54"/>
<circle cx="558" cy="101" r="1.2" fill="#ffffff" opacity="0.60"/>
<circle cx="780" cy="190" r="1.7" fill="#ffffff" opacity="0.82"/>
<circle cx="736" cy="23" r="1.7" fill="#ffffff" opacity="0.65"/>
<circle cx="40" cy="52" r="0.7" fill="#ffffff" opacity="0.44"/>
<circle cx="531" cy="69" r="0.7" fill="#ffffff" opacity="0.79"/>
<circle cx="373" cy="75" r="0.7" fill="#ffffff" opacity="0.91"/>
<circle cx="129" cy="91" r="0.9" fill="#ffffff" opacity="0.73"/>
<circle cx="291" cy="101" r="1.2" fill="#ffffff" opacity="0.58"/>
<circle cx="630" cy="82" r="0.9" fill="#ffffff" opacity="0.67"/>
<circle cx="440" cy="23" r="1.7" fill="#ffffff" opacity="0.49"/>
<circle cx="24" cy="166" r="1.2" fill="#ffffff" opacity="0.96"/>
<circle cx="29" cy="48" r="0.9" fill="#ffffff" opacity="0.93"/>
<circle cx="76" cy="137" r="1.2" fill="#ffffff" opacity="0.68"/>
<circle cx="499" cy="20" r="0.7" fill="#ffffff" opacity="0.44"/>
<circle cx="105" cy="189" r="1.7" fill="#ffffff" opacity="0.59"/>
<circle cx="217" cy="98" r="0.9" fill="#ffffff" opacity="0.43"/>
<circle cx="12" cy="155" r="0.7" fill="#ffffff" opacity="0.49"/>
<circle cx="161" cy="64" r="0.7" fill="#ffffff" opacity="0.42"/>
<circle cx="265" cy="86" r="1.7" fill="#ffffff" opacity="0.55"/>
<circle cx="375" cy="128" r="0.7" fill="#ffffff" opacity="0.66"/>
<circle cx="619" cy="126" r="0.7" fill="#ffffff" opacity="0.60"/>
<circle cx="392" cy="21" r="0.9" fill="#ffffff" opacity="0.91"/>
<circle cx="616" cy="83" r="0.9" fill="#ffffff" opacity="0.56"/>
<circle cx="161" cy="163" r="0.7" fill="#ffffff" opacity="0.62"/>
<circle cx="220" cy="141" r="0.7" fill="#ffffff" opacity="0.54"/>
<circle cx="595" cy="72" r="1.2" fill="#ffffff" opacity="0.41"/>
<circle cx="763" cy="29" r="1.7" fill="#ffffff" opacity="0.67"/>
<circle cx="292" cy="130" r="1.2" fill="#ffffff" opacity="0.65"/>
<circle cx="357" cy="24" r="1.2" fill="#ffffff" opacity="0.48"/>
<circle cx="371" cy="132" r="1.7" fill="#ffffff" opacity="0.82"/>
<circle cx="67" cy="150" r="1.2" fill="#ffffff" opacity="0.54"/>
<circle cx="225" cy="111" r="1.7" fill="#ffffff" opacity="0.43"/>
<circle cx="303" cy="56" r="1.7" fill="#ffffff" opacity="0.48"/>
<circle cx="235" cy="67" r="0.7" fill="#ffffff" opacity="0.44"/>
<circle cx="367" cy="31" r="0.9" fill="#ffffff" opacity="0.92"/>
<circle cx="20" cy="130" r="1.7" fill="#ffffff" opacity="0.51"/>
<circle cx="664" cy="61" r="1.2" fill="#ffffff" opacity="0.59"/>
<circle cx="464" cy="189" r="1.7" fill="#ffffff" opacity="0.52"/>
<circle cx="540" cy="122" r="1.7" fill="#ffffff" opacity="0.83"/>
<circle cx="28" cy="78" r="0.7" fill="#ffffff" opacity="0.73"/>
<circle cx="303" cy="86" r="1.2" fill="#ffffff" opacity="0.76"/>
<circle cx="611" cy="169" r="1.2" fill="#ffffff" opacity="0.85"/>
<circle cx="601" cy="124" r="0.7" fill="#ffffff" opacity="0.59"/>
<circle cx="738" cy="162" r="1.2" fill="#ffffff" opacity="0.79"/>
<circle cx="446" cy="137" r="1.7" fill="#ffffff" opacity="0.79"/>
<circle cx="132" cy="57" r="0.9" fill="#ffffff" opacity="0.85"/>
<circle cx="709" cy="131" r="0.9" fill="#ffffff" opacity="0.75"/>
<circle cx="209" cy="134" r="0.9" fill="#ffffff" opacity="0.89"/>
<circle cx="429" cy="183" r="0.7" fill="#ffffff" opacity="0.64"/>
<circle cx="387" cy="125" r="0.7" fill="#ffffff" opacity="0.51"/>
<circle cx="350" cy="23" r="1.7" fill="#ffffff" opacity="0.53"/>
<circle cx="212" cy="188" r="1.2" fill="#ffffff" opacity="0.87"/>
<circle cx="473" cy="169" r="1.2" fill="#ffffff" opacity="0.51"/>
<circle cx="462" cy="95" r="1.7" fill="#ffffff" opacity="0.65"/>
<circle cx="709" cy="19" r="1.2" fill="#ffffff" opacity="0.92"/>
<circle cx="184" cy="169" r="1.7" fill="#ffffff" opacity="0.58"/>
<circle cx="6" cy="180" r="1.7" fill="#ffffff" opacity="0.87"/>
<circle cx="485" cy="128" r="1.7" fill="#ffffff" opacity="0.80"/>
<circle cx="328" cy="189" r="1.2" fill="#ffffff" opacity="0.88"/>
<circle cx="293" cy="33" r="1.7" fill="#ffffff" opacity="0.77"/>
<circle cx="90" cy="101" r="0.9" fill="#ffffff" opacity="1.00"/>
<circle cx="516" cy="91" r="0.9" fill="#ffffff" opacity="0.42"/>
<circle cx="141" cy="83" r="1.2" fill="#ffffff" opacity="0.93"/>
<circle cx="278" cy="127" r="0.7" fill="#ffffff" opacity="0.78"/>
<circle cx="423" cy="187" r="0.7" fill="#ffffff" opacity="0.76"/>
<circle cx="58" cy="74" r="1.7" fill="#ffffff" opacity="0.66"/>
<circle cx="432" cy="72" r="1.2" fill="#ffffff" opacity="0.50"/>
<circle cx="745" cy="29" r="1.2" fill="#ffffff" opacity="0.79"/>
<circle cx="301" cy="123" r="0.7" fill="#ffffff" opacity="0.99"/>
<circle cx="632" cy="69" r="0.9" fill="#ffffff" opacity="0.83"/>
<circle cx="443" cy="68" r="0.9" fill="#ffffff" opacity="0.69"/>
<circle cx="586" cy="124" r="1.2" fill="#ffffff" opacity="0.56"/>
<circle cx="608" cy="123" r="0.7" fill="#ffffff" opacity="0.76"/>
<circle cx="537" cy="109" r="0.7" fill="#ffffff" opacity="0.54"/>
<circle cx="69" cy="137" r="1.7" fill="#ffffff" opacity="0.52"/>
<circle cx="235" cy="11" r="1.7" fill="#ffffff" opacity="0.61"/>
<circle cx="141" cy="63" r="0.7" fill="#ffffff" opacity="0.42"/>
<circle cx="402" cy="45" r="1.2" fill="#ffffff" opacity="0.72"/>
<circle cx="750" cy="147" r="0.7" fill="#ffffff" opacity="0.56"/>
<circle cx="103" cy="64" r="1.2" fill="#ffffff" opacity="0.71"/>
<circle cx="391" cy="35" r="0.9" fill="#ffffff" opacity="0.96"/>
<circle cx="157" cy="35" r="1.2" fill="#ffffff" opacity="0.73"/>
<circle cx="143" cy="178" r="1.2" fill="#ffffff" opacity="0.58"/>
<circle cx="129" cy="91" r="0.9" fill="#ffffff" opacity="0.73"/>
<circle cx="710" cy="162" r="1.2" fill="#ffffff" opacity="0.46"/>
<circle cx="438" cy="92" r="0.9" fill="#ffffff" opacity="0.63"/>
<circle cx="493" cy="25" r="1.2" fill="#ffffff" opacity="0.68"/>
<circle cx="453" cy="37" r="0.9" fill="#ffffff" opacity="0.92"/>
<circle cx="279" cy="187" r="1.2" fill="#ffffff" opacity="0.62"/>
<circle cx="344" cy="24" r="0.7" fill="#ffffff" opacity="0.86"/>
<circle cx="757" cy="100" r="1.2" fill="#ffffff" opacity="0.96"/>
<circle cx="23" cy="175" r="1.2" fill="#ffffff" opacity="0.67"/>
<circle cx="364" cy="26" r="1.2" fill="#ffffff" opacity="0.41"/>
<circle cx="709" cy="61" r="0.7" fill="#ffffff" opacity="0.62"/>
<circle cx="513" cy="111" r="1.2" fill="#ffffff" opacity="0.64"/>
<circle cx="418" cy="72" r="0.7" fill="#ffffff" opacity="0.58"/>
<circle cx="198" cy="39" r="0.9" fill="#ffffff" opacity="0.70"/>
<circle cx="662" cy="32" r="0.7" fill="#ffffff" opacity="0.47"/>
<circle cx="686" cy="120" r="1.2" fill="#ffffff" opacity="0.88"/>
<circle cx="421" cy="158" r="1.2" fill="#ffffff" opacity="0.50"/>
<circle cx="685" cy="115" r="1.2" fill="#ffffff" opacity="0.74"/>
<circle cx="420" cy="187" r="0.7" fill="#ffffff" opacity="0.86"/>
<circle cx="22" cy="129" r="0.9" fill="#ffffff" opacity="0.87"/>
<circle cx="273" cy="174" r="1.7" fill="#ffffff" opacity="0.59"/>
<circle cx="96" cy="181" r="1.7" fill="#ffffff" opacity="0.72"/>
<circle cx="279" cy="26" r="1.2" fill="#ffffff" opacity="0.41"/>
<circle cx="383" cy="23" r="1.7" fill="#ffffff" opacity="0.94"/>
<circle cx="73" cy="152" r="1.2" fill="#ffffff" opacity="0.77"/>
<clipPath id="pl"><circle cx="678" cy="73" r="54"/></clipPath><circle cx="678" cy="73" r="54" fill="#2f6fc4"/><g clip-path="url(#pl)"><ellipse cx="663" cy="65" rx="22" ry="17" fill="#4e9a4e"/><ellipse cx="698" cy="87" rx="16" ry="12" fill="#5aa35a"/><ellipse cx="684" cy="51" rx="27" ry="5" fill="#ffffff" opacity=".75"/><ellipse cx="658" cy="93" rx="22" ry="4" fill="#ffffff" opacity=".7"/><circle cx="702" cy="89" r="57" fill="#000" opacity=".4"/></g>
<path d="M-20,176 L-13,175 L-7,178 L-0,182 L6,188 L13,189 L19,191 L26,187 L32,186 L39,189 L46,196 L52,200 L59,201 L65,201 L72,201 L78,199 L85,200 L92,200 L98,197 L105,199 L111,201 L118,199 L124,199 L131,195 L138,193 L144,196 L151,194 L157,195 L164,198 L170,200 L177,200 L183,202 L190,200 L197,203 L203,207 L210,207 L216,206 L223,206 L229,201 L236,202 L242,203 L249,208 L256,207 L262,214 L269,219 L275,219 L282,221 L288,226 L295,228 L302,224 L308,224 L315,219 L321,218 L328,219 L334,220 L341,220 L348,220 L354,224 L361,222 L367,222 L374,224 L380,224 L387,221 L393,219 L400,216 L407,218 L413,216 L420,209 L426,207 L433,207 L439,203 L446,201 L452,201 L459,202 L466,202 L472,204 L479,200 L485,199 L492,194 L498,194 L505,194 L512,195 L518,200 L525,201 L531,205 L538,204 L544,203 L551,206 L558,207 L564,207 L571,203 L577,206 L584,205 L590,208 L597,206 L603,213 L610,215 L617,211 L623,209 L630,209 L636,206 L643,201 L649,198 L656,199 L662,196 L669,195 L676,199 L682,196 L689,193 L695,193 L702,189 L708,185 L715,184 L722,179 L728,179 L735,179 L741,176 L748,174 L754,172 L761,169 L768,171 L774,174 L781,172 L787,173 L794,176 L800,176 L807,176 L813,173 L820,168 L820,305 L-20,305 Z" fill="#9b9b9b"/>
<path d="M-20,210 L-13,209 L-7,207 L-0,207 L6,207 L13,207 L19,206 L26,209 L32,209 L39,211 L46,212 L52,213 L59,212 L65,211 L72,211 L78,208 L85,208 L92,207 L98,206 L105,206 L111,207 L118,206 L124,207 L131,208 L138,207 L144,207 L151,206 L157,206 L164,207 L170,207 L177,207 L183,207 L190,207 L197,205 L203,206 L210,204 L216,204 L223,203 L229,202 L236,201 L242,200 L249,199 L256,197 L262,197 L269,196 L275,195 L282,196 L288,195 L295,195 L302,193 L308,188 L315,186 L321,184 L328,183 L334,182 L341,179 L348,179 L354,177 L361,176 L367,176 L374,175 L380,175 L387,175 L393,173 L400,173 L407,172 L413,171 L420,172 L426,171 L433,173 L439,172 L446,171 L452,171 L459,171 L466,171 L472,168 L479,167 L485,168 L492,167 L498,168 L505,170 L512,169 L518,170 L525,171 L531,172 L538,173 L544,172 L551,174 L558,176 L564,177 L571,180 L577,181 L584,183 L590,184 L597,185 L603,188 L610,190 L617,190 L623,191 L630,191 L636,193 L643,193 L649,194 L656,195 L662,193 L669,195 L676,197 L682,198 L689,201 L695,204 L702,207 L708,207 L715,208 L722,207 L728,206 L735,206 L741,207 L748,207 L754,208 L761,206 L768,207 L774,207 L781,207 L787,204 L794,203 L800,202 L807,202 L813,204 L820,205 L820,305 L-20,305 Z" fill="#7a7a7a"/>
<path d="M-20,238 L-13,239 L-7,239 L-0,238 L6,238 L13,238 L19,237 L26,237 L32,236 L39,236 L46,236 L52,235 L59,234 L65,234 L72,235 L78,234 L85,234 L92,235 L98,235 L105,235 L111,234 L118,233 L124,231 L131,231 L138,230 L144,230 L151,229 L157,228 L164,227 L170,227 L177,227 L183,227 L190,227 L197,227 L203,226 L210,226 L216,226 L223,225 L229,225 L236,224 L242,222 L249,222 L256,222 L262,222 L269,221 L275,220 L282,219 L288,218 L295,217 L302,217 L308,218 L315,218 L321,219 L328,218 L334,217 L341,216 L348,217 L354,217 L361,218 L367,219 L374,219 L380,219 L387,220 L393,219 L400,219 L407,219 L413,219 L420,220 L426,220 L433,219 L439,219 L446,219 L452,219 L459,220 L466,220 L472,221 L479,222 L485,223 L492,223 L498,224 L505,226 L512,226 L518,226 L525,226 L531,227 L538,228 L544,228 L551,229 L558,231 L564,231 L571,232 L577,232 L584,232 L590,234 L597,235 L603,236 L610,237 L617,236 L623,235 L630,236 L636,236 L643,237 L649,237 L656,238 L662,237 L669,237 L676,238 L682,237 L689,237 L695,236 L702,236 L708,235 L715,233 L722,234 L728,235 L735,236 L741,238 L748,239 L754,240 L761,240 L768,240 L774,241 L781,241 L787,242 L794,243 L800,243 L807,243 L813,244 L820,244 L820,305 L-20,305 Z" fill="#5a5a5a"/>
<path d="M-20,265 L6,265 L32,264 L59,262 L85,261 L111,262 L138,261 L164,260 L190,259 L216,262 L242,263 L269,264 L295,264 L321,263 L348,262 L374,263 L400,263 L426,264 L452,265 L479,266 L505,267 L531,268 L558,268 L584,268 L610,266 L636,266 L662,265 L689,264 L715,264 L741,264 L768,266 L794,265 L820,265 L820,305 L-20,305 Z" fill="#454545"/>
<ellipse cx="89" cy="286" rx="18" ry="5" fill="#2c2c2c" opacity=".75"/><ellipse cx="86" cy="284" rx="13" ry="2" fill="#454545"/>
<ellipse cx="171" cy="272" rx="32" ry="8" fill="#2c2c2c" opacity=".75"/><ellipse cx="168" cy="270" rx="27" ry="5" fill="#454545"/>
<ellipse cx="230" cy="293" rx="36" ry="9" fill="#2c2c2c" opacity=".75"/><ellipse cx="227" cy="291" rx="31" ry="6" fill="#454545"/>
<ellipse cx="497" cy="288" rx="46" ry="11" fill="#2c2c2c" opacity=".75"/><ellipse cx="494" cy="286" rx="41" ry="8" fill="#454545"/>
<ellipse cx="601" cy="289" rx="39" ry="9" fill="#2c2c2c" opacity=".75"/><ellipse cx="598" cy="287" rx="34" ry="6" fill="#454545"/>
<ellipse cx="354" cy="284" rx="29" ry="7" fill="#2c2c2c" opacity=".75"/><ellipse cx="351" cy="282" rx="24" ry="4" fill="#454545"/>
<ellipse cx="377" cy="273" rx="45" ry="11" fill="#2c2c2c" opacity=".75"/><ellipse cx="374" cy="271" rx="40" ry="8" fill="#454545"/>
<ellipse cx="619" cy="275" rx="32" ry="8" fill="#2c2c2c" opacity=".75"/><ellipse cx="616" cy="273" rx="27" ry="5" fill="#454545"/>
<ellipse cx="718" cy="285" rx="21" ry="6" fill="#2c2c2c" opacity=".75"/><ellipse cx="715" cy="283" rx="16" ry="3" fill="#454545"/>
<ellipse cx="380" cy="271" rx="38" ry="6" fill="#000" opacity=".5"/>
<g transform="translate(380 269) rotate(0) scale(-1.2042107029070643 1.2042107029070643)"><polygon points="-27.5,-30 -20.5,-30 -26.9,-12 -31.9,-12" fill="#d9dde6" stroke="#12151c" stroke-width="1.41" stroke-linejoin="round"/><rect x="-32.4" y="-13" width="6" height="5" rx="1" fill="#12151c"/><polygon points="-13.5,-30 -6.5,-30 -7.5,-6 -12.5,-6" fill="#ffffff" stroke="#12151c" stroke-width="1.41" stroke-linejoin="round"/><rect x="-13.0" y="-7" width="6" height="5" rx="1" fill="#12151c"/><polygon points="4.5,-30 11.5,-30 14.1,-2 9.1,-2" fill="#ffffff" stroke="#12151c" stroke-width="1.41" stroke-linejoin="round"/><rect x="8.6" y="-3" width="6" height="5" rx="1" fill="#12151c"/><polygon points="22.5,-30 29.5,-30 21.3,-14 16.3,-14" fill="#d9dde6" stroke="#12151c" stroke-width="1.41" stroke-linejoin="round"/><rect x="15.8" y="-15" width="6" height="5" rx="1" fill="#12151c"/><path d="M-30,-44 C-40,-52 -42,-40 -34,-34" fill="none" stroke="#12151c" stroke-width="1.99" stroke-linecap="round"/><ellipse cx="0" cy="-38" rx="31" ry="15.5" fill="#ffffff" stroke="#12151c" stroke-width="1.41"/><path d="M-24,-32 Q0,-23 22,-30" fill="none" stroke="#d9dde6" stroke-width="2.49" opacity=".8"/><polygon points="16,-38 32,-48 40,-60 26,-64 14,-56" fill="#ffffff" stroke="#12151c" stroke-width="1.41" stroke-linejoin="round"/><g transform="rotate(0 28 -52) translate(34 -68)"><path d="M2,-8 C-6,-30 4,-42 16,-46" fill="none" stroke="#12151c" stroke-width="2.99" stroke-linecap="round"/><path d="M8,-8 C6,-30 16,-40 26,-38" fill="none" stroke="#12151c" stroke-width="2.99" stroke-linecap="round"/><polygon points="-4,-4 -16,-8 -6,4" fill="#d9dde6" stroke="#12151c" stroke-width="1.41"/><polygon points="-2,-8 22,-10 34,2 28,12 8,12 -4,6" fill="#ffffff" stroke="#12151c" stroke-width="1.41" stroke-linejoin="round"/><polygon points="22,12 28,12 24,30 16,14" fill="#d9dde6" stroke="#12151c" stroke-width="1.41" stroke-linejoin="round"/><circle cx="14" cy="-1" r="2" fill="#12151c"/><circle cx="32" cy="3" r="1.8" fill="#12151c"/><circle cx="17" cy="0" r="30" fill="#cfe9ff" fill-opacity=".22" stroke="#e8f4ff" stroke-width="1.99"/><path d="M-3,-14 A24,24 0 0 1 16,-24" fill="none" stroke="#ffffff" stroke-width="2.16" stroke-linecap="round" opacity=".85"/></g></g>
<ellipse cx="600" cy="275" rx="38" ry="6" fill="#000" opacity=".5"/>
<g transform="translate(600 273) rotate(0) scale(-0.6346190404320229 0.6346190404320229)"><polygon points="-21.5,-30 -14.5,-30 -15.5,-6 -20.5,-6" fill="#d9dde6" stroke="#12151c" stroke-width="1.66" stroke-linejoin="round"/><rect x="-21.0" y="-7" width="6" height="5" rx="1" fill="#12151c"/><polygon points="-13.5,-30 -6.5,-30 -7.5,-6 -12.5,-6" fill="#ffffff" stroke="#12151c" stroke-width="1.66" stroke-linejoin="round"/><rect x="-13.0" y="-7" width="6" height="5" rx="1" fill="#12151c"/><polygon points="10.5,-30 17.5,-30 16.5,-6 11.5,-6" fill="#ffffff" stroke="#12151c" stroke-width="1.66" stroke-linejoin="round"/><rect x="11.0" y="-7" width="6" height="5" rx="1" fill="#12151c"/><polygon points="18.5,-30 25.5,-30 24.5,-6 19.5,-6" fill="#d9dde6" stroke="#12151c" stroke-width="1.66" stroke-linejoin="round"/><rect x="19.0" y="-7" width="6" height="5" rx="1" fill="#12151c"/><path d="M-30,-44 C-40,-52 -42,-40 -34,-34" fill="none" stroke="#12151c" stroke-width="2.34" stroke-linecap="round"/><ellipse cx="0" cy="-38" rx="31" ry="15.5" fill="#ffffff" stroke="#12151c" stroke-width="1.66"/><path d="M-24,-32 Q0,-23 22,-30" fill="none" stroke="#d9dde6" stroke-width="2.93" opacity=".8"/><polygon points="16,-38 32,-48 40,-60 26,-64 14,-56" fill="#ffffff" stroke="#12151c" stroke-width="1.66" stroke-linejoin="round"/><g transform="rotate(58 28 -52) translate(34 -68)"><path d="M2,-8 C-6,-30 4,-42 16,-46" fill="none" stroke="#12151c" stroke-width="3.52" stroke-linecap="round"/><path d="M8,-8 C6,-30 16,-40 26,-38" fill="none" stroke="#12151c" stroke-width="3.52" stroke-linecap="round"/><polygon points="-4,-4 -16,-8 -6,4" fill="#d9dde6" stroke="#12151c" stroke-width="1.66"/><polygon points="-2,-8 22,-10 34,2 28,12 8,12 -4,6" fill="#ffffff" stroke="#12151c" stroke-width="1.66" stroke-linejoin="round"/><polygon points="22,12 28,12 24,30 16,14" fill="#d9dde6" stroke="#12151c" stroke-width="1.66" stroke-linejoin="round"/><circle cx="14" cy="-1" r="2" fill="#12151c"/><circle cx="32" cy="3" r="1.8" fill="#12151c"/><circle cx="17" cy="0" r="30" fill="#cfe9ff" fill-opacity=".22" stroke="#e8f4ff" stroke-width="2.34"/><path d="M-3,-14 A24,24 0 0 1 16,-24" fill="none" stroke="#ffffff" stroke-width="2.54" stroke-linecap="round" opacity=".85"/></g></g>
</svg>
