<svg xmlns="http://www.w3.org/2000/svg" viewBox="0 0 800 300" role="img" aria-labelledby="t35"><title id="t35">Mountain goats in space helmets on Io, a moon of Jupiter</title>
<defs><linearGradient id="g35" x1="0" y1="0" x2="0" y2="1"><stop offset="0" stop-color="#000000"/><stop offset="1" stop-color="#0a0905"/></linearGradient></defs><rect width="800" height="300" fill="url(#g35)"/>
<circle cx="782" cy="118" r="1.2" fill="#ffffff" opacity="0.91"/>
<circle cx="211" cy="61" r="0.9" fill="#ffffff" opacity="0.65"/>
<circle cx="494" cy="4" r="1.7" fill="#ffffff" opacity="0.65"/>
<circle cx="238" cy="14" r="1.7" fill="#ffffff" opacity="0.69"/>
<circle cx="272" cy="99" r="0.9" fill="#ffffff" opacity="0.84"/>
<circle cx="26" cy="43" r="1.2" fill="#ffffff" opacity="0.49"/>
<circle cx="772" cy="35" r="1.2" fill="#ffffff" opacity="0.97"/>
<circle cx="418" cy="159" r="0.7" fill="#ffffff" opacity="0.76"/>
<circle cx="304" cy="180" r="1.2" fill="#ffffff" opacity="0.84"/>
<circle cx="166" cy="9" r="1.7" fill="#ffffff" opacity="0.41"/>
<circle cx="197" cy="150" r="1.7" fill="#ffffff" opacity="0.79"/>
<circle cx="502" cy="167" r="0.9" fill="#ffffff" opacity="0.78"/>
<circle cx="588" cy="105" r="1.7" fill="#ffffff" opacity="0.71"/>
<circle cx="490" cy="159" r="0.9" fill="#ffffff" opacity="0.47"/>
<circle cx="357" cy="158" r="0.9" fill="#ffffff" opacity="0.82"/>
<circle cx="742" cy="134" r="1.2" fill="#ffffff" opacity="0.54"/>
<circle cx="79" cy="110" r="0.7" fill="#ffffff" opacity="0.87"/>
<circle cx="694" cy="184" r="0.9" fill="#ffffff" opacity="0.64"/>
<circle cx="795" cy="128" r="0.7" fill="#ffffff" opacity="0.96"/>
<circle cx="693" cy="101" r="0.9" fill="#ffffff" opacity="0.76"/>
<circle cx="498" cy="176" r="0.7" fill="#ffffff" opacity="0.87"/>
<circle cx="626" cy="142" r="1.2" fill="#ffffff" opacity="0.74"/>
<circle cx="240" cy="72" r="0.9" fill="#ffffff" opacity="0.95"/>
<circle cx="460" cy="78" r="0.7" fill="#ffffff" opacity="0.72"/>
<circle cx="191" cy="186" r="0.9" fill="#ffffff" opacity="1.00"/>
<circle cx="734" cy="19" r="1.7" fill="#ffffff" opacity="0.48"/>
<circle cx="775" cy="65" r="1.2" fill="#ffffff" opacity="0.73"/>
<circle cx="293" cy="157" r="1.2" fill="#ffffff" opacity="0.75"/>
<circle cx="559" cy="137" r="1.7" fill="#ffffff" opacity="0.61"/>
<circle cx="518" cy="4" r="0.9" fill="#ffffff" opacity="0.94"/>
<circle cx="258" cy="95" r="1.7" fill="#ffffff" opacity="0.68"/>
<circle cx="489" cy="119" r="0.9" fill="#ffffff" opacity="0.76"/>
<circle cx="227" cy="121" r="0.7" fill="#ffffff" opacity="0.53"/>
<circle cx="76" cy="93" r="0.9" fill="#ffffff" opacity="0.74"/>
<circle cx="441" cy="62" r="0.9" fill="#ffffff" opacity="0.68"/>
<circle cx="426" cy="102" r="1.7" fill="#ffffff" opacity="0.53"/>
<circle cx="428" cy="174" r="1.7" fill="#ffffff" opacity="0.67"/>
<circle cx="598" cy="70" r="0.9" fill="#ffffff" opacity="0.60"/>
<circle cx="782" cy="93" r="0.9" fill="#ffffff" opacity="0.90"/>
<circle cx="751" cy="52" r="1.7" fill="#ffffff" opacity="0.40"/>
<circle cx="428" cy="120" r="0.9" fill="#ffffff" opacity="0.77"/>
<circle cx="489" cy="103" r="0.7" fill="#ffffff" opacity="0.81"/>
<circle cx="356" cy="41" r="1.2" fill="#ffffff" opacity="0.68"/>
<circle cx="576" cy="55" r="0.7" fill="#ffffff" opacity="0.50"/>
<circle cx="722" cy="80" r="0.9" fill="#ffffff" opacity="0.58"/>
<circle cx="519" cy="42" r="1.2" fill="#ffffff" opacity="0.75"/>
<circle cx="490" cy="65" r="0.9" fill="#ffffff" opacity="0.81"/>
<circle cx="681" cy="110" r="1.2" fill="#ffffff" opacity="0.73"/>
<circle cx="6" cy="185" r="1.7" fill="#ffffff" opacity="0.90"/>
<circle cx="290" cy="47" r="0.9" fill="#ffffff" opacity="0.53"/>
<circle cx="164" cy="62" r="0.9" fill="#ffffff" opacity="0.96"/>
<circle cx="310" cy="4" r="0.9" fill="#ffffff" opacity="0.75"/>
<circle cx="165" cy="81" r="1.7" fill="#ffffff" opacity="0.69"/>
<circle cx="551" cy="64" r="0.9" fill="#ffffff" opacity="0.66"/>
<circle cx="313" cy="107" r="1.7" fill="#ffffff" opacity="0.79"/>
<circle cx="576" cy="127" r="1.2" fill="#ffffff" opacity="0.87"/>
<circle cx="710" cy="44" r="1.2" fill="#ffffff" opacity="0.65"/>
<circle cx="354" cy="148" r="0.9" fill="#ffffff" opacity="0.47"/>
<circle cx="8" cy="21" r="1.2" fill="#ffffff" opacity="0.58"/>
<circle cx="510" cy="93" r="1.7" fill="#ffffff" opacity="0.49"/>
<circle cx="163" cy="29" r="1.2" fill="#ffffff" opacity="0.64"/>
<circle cx="283" cy="97" r="0.7" fill="#ffffff" opacity="0.82"/>
<circle cx="287" cy="79" r="1.2" fill="#ffffff" opacity="0.48"/>
<circle cx="616" cy="190" r="0.7" fill="#ffffff" opacity="0.91"/>
<circle cx="31" cy="96" r="1.7" fill="#ffffff" opacity="0.51"/>
<circle cx="414" cy="14" r="0.7" fill="#ffffff" opacity="0.44"/>
<circle cx="321" cy="178" r="1.2" fill="#ffffff" opacity="0.53"/>
<circle cx="134" cy="59" r="1.7" fill="#ffffff" opacity="0.79"/>
<circle cx="30" cy="5" r="1.2" fill="#ffffff" opacity="0.49"/>
<circle cx="287" cy="9" r="1.7" fill="#ffffff" opacity="0.76"/>
<circle cx="279" cy="52" r="1.2" fill="#ffffff" opacity="0.56"/>
<circle cx="416" cy="121" r="0.9" fill="#ffffff" opacity="0.90"/>
<circle cx="672" cy="139" r="1.2" fill="#ffffff" opacity="0.48"/>
<circle cx="17" cy="50" r="1.2" fill="#ffffff" opacity="0.85"/>
<circle cx="523" cy="16" r="1.7" fill="#ffffff" opacity="0.90"/>
<circle cx="279" cy="179" r="1.7" fill="#ffffff" opacity="0.90"/>
<circle cx="493" cy="91" r="0.9" fill="#ffffff" opacity="0.89"/>
<circle cx="117" cy="88" r="0.7" fill="#ffffff" opacity="0.66"/>
<circle cx="68" cy="185" r="1.7" fill="#ffffff" opacity="0.61"/>
<circle cx="715" cy="108" r="0.9" fill="#ffffff" opacity="0.79"/>
<circle cx="539" cy="178" r="0.9" fill="#ffffff" opacity="1.00"/>
<circle cx="534" cy="89" r="1.2" fill="#ffffff" opacity="0.45"/>
<circle cx="523" cy="44" r="1.7" fill="#ffffff" opacity="0.90"/>
<circle cx="121" cy="16" r="0.7" fill="#ffffff" opacity="0.94"/>
<circle cx="71" cy="19" r="1.7" fill="#ffffff" opacity="0.97"/>
<circle cx="455" cy="53" r="0.7" fill="#ffffff" opacity="0.62"/>
<circle cx="514" cy="83" r="0.7" fill="#ffffff" opacity="0.66"/>
<circle cx="522" cy="67" r="1.7" fill="#ffffff" opacity="0.58"/>
<circle cx="40" cy="81" r="1.7" fill="#ffffff" opacity="0.42"/>
<circle cx="277" cy="132" r="0.7" fill="#ffffff" opacity="0.69"/>
<circle cx="307" cy="160" r="0.7" fill="#ffffff" opacity="0.41"/>
<circle cx="501" cy="10" r="0.9" fill="#ffffff" opacity="0.72"/>
<circle cx="460" cy="107" r="0.9" fill="#ffffff" opacity="0.59"/>
<circle cx="513" cy="29" r="0.7" fill="#ffffff" opacity="0.85"/>
<circle cx="594" cy="106" r="1.7" fill="#ffffff" opacity="0.96"/>
<circle cx="772" cy="51" r="0.9" fill="#ffffff" opacity="0.78"/>
<circle cx="163" cy="38" r="1.2" fill="#ffffff" opacity="0.83"/>
<circle cx="72" cy="132" r="0.9" fill="#ffffff" opacity="0.85"/>
<circle cx="19" cy="180" r="1.7" fill="#ffffff" opacity="0.89"/>
<circle cx="386" cy="15" r="1.2" fill="#ffffff" opacity="0.98"/>
<circle cx="605" cy="65" r="0.7" fill="#ffffff" opacity="0.66"/>
<circle cx="117" cy="90" r="0.7" fill="#ffffff" opacity="0.75"/>
<circle cx="686" cy="51" r="1.7" fill="#ffffff" opacity="0.59"/>
<circle cx="672" cy="63" r="1.2" fill="#ffffff" opacity="0.70"/>
<circle cx="53" cy="146" r="1.7" fill="#ffffff" opacity="0.98"/>
<circle cx="435" cy="88" r="0.9" fill="#ffffff" opacity="0.85"/>
<circle cx="725" cy="122" r="0.7" fill="#ffffff" opacity="0.91"/>
<circle cx="564" cy="48" r="1.2" fill="#ffffff" opacity="0.54"/>
<circle cx="630" cy="33" r="1.7" fill="#ffffff" opacity="0.93"/>
<circle cx="654" cy="190" r="0.7" fill="#ffffff" opacity="0.54"/>
<clipPath id="pl"><circle cx="600" cy="60" r="105"/></clipPath><circle cx="600" cy="60" r="105" fill="#e9c79a"/><g clip-path="url(#pl)"><rect x="495" y="-45" width="210" height="16" fill="#b5703f" opacity=".75"/><rect x="495" y="-16" width="210" height="16" fill="#f3e1c0" opacity=".75"/><rect x="495" y="13" width="210" height="16" fill="#c98450" opacity=".75"/><rect x="495" y="42" width="210" height="16" fill="#efd6ad" opacity=".75"/><rect x="495" y="72" width="210" height="16" fill="#a65f33" opacity=".75"/><rect x="495" y="101" width="210" height="16" fill="#f0dcb8" opacity=".75"/><rect x="495" y="130" width="210" height="16" fill="#c47a4a" opacity=".75"/><rect x="495" y="159" width="210" height="16" fill="#e6c797" opacity=".75"/><rect x="495" y="188" width="210" height="16" fill="#b5703f" opacity=".75"/><ellipse cx="574" cy="97" rx="21" ry="13" fill="#b8472f"/></g>
<path d="M-20,182 L-13,177 L-7,172 L-0,172 L6,170 L13,168 L19,164 L26,160 L32,157 L39,160 L46,163 L52,160 L59,160 L65,162 L72,162 L78,160 L85,154 L92,155 L98,156 L105,155 L111,148 L118,151 L124,155 L131,156 L138,153 L144,151 L151,148 L157,146 L164,144 L170,140 L177,139 L183,137 L190,139 L197,139 L203,141 L210,138 L216,138 L223,138 L229,139 L236,139 L242,135 L249,134 L256,134 L262,133 L269,137 L275,139 L282,139 L288,139 L295,142 L302,142 L308,141 L315,139 L321,136 L328,141 L334,142 L341,145 L348,146 L354,146 L361,142 L367,146 L374,145 L380,146 L387,149 L393,145 L400,144 L407,144 L413,141 L420,143 L426,146 L433,145 L439,140 L446,139 L452,133 L459,137 L466,139 L472,141 L479,144 L485,143 L492,144 L498,139 L505,140 L512,139 L518,141 L525,141 L531,139 L538,139 L544,139 L551,135 L558,132 L564,132 L571,132 L577,133 L584,138 L590,141 L597,140 L603,142 L610,144 L617,143 L623,148 L630,144 L636,145 L643,147 L649,147 L656,146 L662,142 L669,141 L676,140 L682,140 L689,143 L695,148 L702,154 L708,152 L715,156 L722,157 L728,159 L735,163 L741,164 L748,166 L754,167 L761,170 L768,176 L774,177 L781,176 L787,175 L794,180 L800,179 L807,179 L813,176 L820,173 L820,305 L-20,305 Z" fill="#d9c35a"/>
<path d="M-20,213 L-13,213 L-7,215 L-0,218 L6,220 L13,222 L19,222 L26,223 L32,221 L39,220 L46,221 L52,221 L59,220 L65,222 L72,221 L78,222 L85,224 L92,224 L98,223 L105,221 L111,220 L118,219 L124,219 L131,215 L138,214 L144,214 L151,217 L157,218 L164,217 L170,216 L177,214 L183,214 L190,215 L197,217 L203,216 L210,219 L216,220 L223,222 L229,221 L236,220 L242,218 L249,218 L256,216 L262,215 L269,213 L275,213 L282,212 L288,211 L295,212 L302,209 L308,206 L315,205 L321,202 L328,201 L334,201 L341,198 L348,196 L354,197 L361,196 L367,194 L374,194 L380,194 L387,193 L393,191 L400,191 L407,191 L413,191 L420,193 L426,195 L433,195 L439,197 L446,199 L452,203 L459,204 L466,204 L472,205 L479,206 L485,205 L492,205 L498,203 L505,202 L512,205 L518,208 L525,211 L531,213 L538,214 L544,216 L551,216 L558,217 L564,218 L571,217 L577,217 L584,220 L590,221 L597,221 L603,222 L610,221 L617,220 L623,220 L630,219 L636,221 L643,220 L649,220 L656,219 L662,216 L669,215 L676,214 L682,214 L689,215 L695,212 L702,210 L708,207 L715,207 L722,207 L728,209 L735,209 L741,207 L748,207 L754,207 L761,209 L768,210 L774,209 L781,211 L787,209 L794,208 L800,209 L807,211 L813,209 L820,209 L820,305 L-20,305 Z" fill="#b8a040"/>
<path d="M-20,237 L-13,237 L-7,239 L-0,239 L6,240 L13,242 L19,243 L26,245 L32,247 L39,247 L46,247 L52,247 L59,248 L65,249 L72,250 L78,250 L85,251 L92,251 L98,251 L105,252 L111,252 L118,253 L124,254 L131,255 L138,257 L144,257 L151,258 L157,259 L164,259 L170,259 L177,259 L183,260 L190,261 L197,260 L203,260 L210,260 L216,259 L223,258 L229,258 L236,256 L242,255 L249,255 L256,255 L262,256 L269,256 L275,256 L282,255 L288,255 L295,255 L302,255 L308,255 L315,256 L321,256 L328,256 L334,257 L341,257 L348,258 L354,259 L361,260 L367,261 L374,262 L380,262 L387,263 L393,263 L400,263 L407,264 L413,264 L420,265 L426,266 L433,265 L439,265 L446,265 L452,266 L459,265 L466,265 L472,263 L479,262 L485,261 L492,260 L498,261 L505,261 L512,260 L518,260 L525,259 L531,258 L538,258 L544,257 L551,257 L558,256 L564,255 L571,254 L577,254 L584,254 L590,252 L597,250 L603,250 L610,249 L617,249 L623,249 L630,250 L636,250 L643,249 L649,249 L656,249 L662,250 L669,250 L676,249 L682,248 L689,248 L695,247 L702,246 L708,245 L715,244 L722,244 L728,244 L735,244 L741,244 L748,243 L754,242 L761,242 L768,241 L774,240 L781,240 L787,239 L794,239 L800,237 L807,236 L813,235 L820,235 L820,305 L-20,305 Z" fill="#8f7b2c"/>
<path d="M-20,260 L6,261 L32,260 L59,260 L85,260 L111,261 L138,262 L164,263 L190,263 L216,264 L242,263 L269,263 L295,261 L321,259 L348,258 L374,258 L400,256 L426,257 L452,259 L479,260 L505,260 L531,260 L558,260 L584,261 L610,262 L636,262 L662,262 L689,261 L715,261 L741,263 L768,263 L794,263 L820,262 L820,305 L-20,305 Z" fill="#6e5e20"/>
<ellipse cx="706" cy="293" rx="42" ry="10" fill="#3f3510" opacity=".75"/><ellipse cx="703" cy="291" rx="37" ry="7" fill="#6e5e20"/>
<ellipse cx="643" cy="290" rx="19" ry="5" fill="#3f3510" opacity=".75"/><ellipse cx="640" cy="288" rx="14" ry="2" fill="#6e5e20"/>
<ellipse cx="694" cy="287" rx="18" ry="5" fill="#3f3510" opacity=".75"/><ellipse cx="691" cy="285" rx="13" ry="2" fill="#6e5e20"/>
<ellipse cx="457" cy="275" rx="40" ry="10" fill="#3f3510" opacity=".75"/><ellipse cx="454" cy="273" rx="35" ry="7" fill="#6e5e20"/>
<ellipse cx="621" cy="280" rx="20" ry="6" fill="#3f3510" opacity=".75"/><ellipse cx="618" cy="278" rx="15" ry="3" fill="#6e5e20"/>
<ellipse cx="775" cy="290" rx="25" ry="7" fill="#3f3510" opacity=".75"/><ellipse cx="772" cy="288" rx="20" ry="4" fill="#6e5e20"/>
<ellipse cx="71" cy="276" rx="40" ry="10" fill="#3f3510" opacity=".75"/><ellipse cx="68" cy="274" rx="35" ry="7" fill="#6e5e20"/>
<ellipse cx="724" cy="275" rx="18" ry="5" fill="#3f3510" opacity=".75"/><ellipse cx="721" cy="273" rx="13" ry="2" fill="#6e5e20"/>
<ellipse cx="72" cy="275" rx="40" ry="10" fill="#3f3510" opacity=".75"/><ellipse cx="69" cy="273" rx="35" ry="7" fill="#6e5e20"/>
<ellipse cx="680" cy="269" rx="38" ry="6" fill="#000" opacity=".5"/>
<g transform="translate(680 267) rotate(0) scale(-1.2547607961575662 1.2547607961575662)"><polygon points="-27.5,-30 -20.5,-30 -26.9,-12 -31.9,-12" fill="#d9dde6" stroke="#12151c" stroke-width="1.35" stroke-linejoin="round"/><rect x="-32.4" y="-13" width="6" height="5" rx="1" fill="#12151c"/><polygon points="-13.5,-30 -6.5,-30 -7.5,-6 -12.5,-6" fill="#ffffff" stroke="#12151c" stroke-width="1.35" stroke-linejoin="round"/><rect x="-13.0" y="-7" width="6" height="5" rx="1" fill="#12151c"/><polygon points="4.5,-30 11.5,-30 14.1,-2 9.1,-2" fill="#ffffff" stroke="#12151c" stroke-width="1.35" stroke-linejoin="round"/><rect x="8.6" y="-3" width="6" height="5" rx="1" fill="#12151c"/><polygon points="22.5,-30 29.5,-30 21.3,-14 16.3,-14" fill="#d9dde6" stroke="#12151c" stroke-width="1.35" stroke-linejoin="round"/><rect x="15.8" y="-15" width="6" height="5" rx="1" fill="#12151c"/><path d="M-30,-44 C-40,-52 -42,-40 -34,-34" fill="none" stroke="#12151c" stroke-width="1.91" stroke-linecap="round"/><ellipse cx="0" cy="-38" rx="31" ry="15.5" fill="#ffffff" stroke="#12151c" stroke-width="1.35"/><path d="M-24,-32 Q0,-23 22,-30" fill="none" stroke="#d9dde6" stroke-width="2.39" opacity=".8"/><polygon points="16,-38 32,-48 40,-60 26,-64 14,-56" fill="#ffffff" stroke="#12151c" stroke-width="1.35" stroke-linejoin="round"/><g transform="rotate(0 28 -52) translate(34 -68)"><path d="M2,-8 C-6,-30 4,-42 16,-46" fill="none" stroke="#12151c" stroke-width="2.87" stroke-linecap="round"/><path d="M8,-8 C6,-30 16,-40 26,-38" fill="none" stroke="#12151c" stroke-width="2.87" stroke-linecap="round"/><polygon points="-4,-4 -16,-8 -6,4" fill="#d9dde6" stroke="#12151c" stroke-width="1.35"/><polygon points="-2,-8 22,-10 34,2 28,12 8,12 -4,6" fill="#ffffff" stroke="#12151c" stroke-width="1.35" stroke-linejoin="round"/><polygon points="22,12 28,12 24,30 16,14" fill="#d9dde6" stroke="#12151c" stroke-width="1.35" stroke-linejoin="round"/><circle cx="14" cy="-1" r="2" fill="#12151c"/><circle cx="32" cy="3" r="1.8" fill="#12151c"/><circle cx="17" cy="0" r="30" fill="#cfe9ff" fill-opacity=".22" stroke="#e8f4ff" stroke-width="1.91"/><path d="M-3,-14 A24,24 0 0 1 16,-24" fill="none" stroke="#ffffff" stroke-width="2.07" stroke-linecap="round" opacity=".85"/></g></g>
</svg>
