<svg xmlns="http://www.w3.org/2000/svg" viewBox="0 0 800 300" role="img" aria-labelledby="t45"><title id="t45">Mountain goats on the mountain in black and white</title>
<defs><linearGradient id="g45" x1="0" y1="0" x2="0" y2="1"><stop offset="0" stop-color="#ffffff"/><stop offset="1" stop-color="#e6e6e6"/></linearGradient></defs>
<rect width="800" height="300" fill="url(#g45)"/>
<circle cx="134" cy="87" r="25" fill="#ffffff" opacity=".95"/><circle cx="134" cy="87" r="46" fill="#ffffff" opacity=".22"/>
<g fill="#ffffff" opacity="0.8"><ellipse cx="242" cy="68" rx="34" ry="11"/><ellipse cx="222" cy="71" rx="22" ry="9"/><ellipse cx="264" cy="72" rx="24" ry="8"/></g>
<g fill="#ffffff" opacity="0.8"><ellipse cx="82" cy="98" rx="33" ry="11"/><ellipse cx="63" cy="101" rx="21" ry="9"/><ellipse cx="103" cy="102" rx="23" ry="8"/></g>
<g fill="#ffffff" opacity="0.8"><ellipse cx="404" cy="57" rx="39" ry="13"/><ellipse cx="381" cy="60" rx="25" ry="10"/><ellipse cx="429" cy="61" rx="28" ry="9"/></g>
<g fill="#ffffff" opacity="0.8"><ellipse cx="514" cy="27" rx="33" ry="11"/><ellipse cx="495" cy="30" rx="21" ry="9"/><ellipse cx="535" cy="31" rx="23" ry="8"/></g>
<path d="M-20,150 L-13,151 L-7,151 L-0,156 L6,156 L13,148 L19,147 L26,149 L32,144 L39,143 L46,139 L52,144 L59,142 L65,150 L72,156 L78,160 L85,161 L92,163 L98,158 L105,159 L111,159 L118,162 L124,160 L131,166 L138,164 L144,169 L151,172 L157,173 L164,179 L170,181 L177,189 L183,198 L190,206 L197,205 L203,201 L210,194 L216,186 L223,183 L229,181 L236,183 L242,190 L249,186 L256,189 L262,186 L269,191 L275,185 L282,175 L288,168 L295,167 L302,162 L308,155 L315,149 L321,143 L328,139 L334,138 L341,140 L348,142 L354,145 L361,149 L367,147 L374,146 L380,137 L387,138 L393,140 L400,142 L407,140 L413,145 L420,151 L426,156 L433,157 L439,157 L446,165 L452,169 L459,166 L466,167 L472,168 L479,177 L485,176 L492,175 L498,169 L505,163 L512,159 L518,160 L525,156 L531,149 L538,150 L544,154 L551,159 L558,160 L564,155 L571,160 L577,164 L584,162 L590,169 L597,173 L603,175 L610,183 L617,192 L623,197 L630,197 L636,197 L643,201 L649,202 L656,198 L662,198 L669,189 L676,188 L682,183 L689,183 L695,186 L702,182 L708,185 L715,192 L722,190 L728,188 L735,178 L741,177 L748,187 L754,189 L761,190 L768,187 L774,182 L781,179 L787,180 L794,183 L800,182 L807,179 L813,179 L820,182 L820,305 L-20,305 Z" fill="#c9c9c9"/>
<clipPath id="c45118"><path d="M-20,-5 L820,-5 L826,117 L808,115 L790,119 L772,117 L754,119 L736,113 L718,116 L700,127 L682,120 L664,111 L646,118 L628,113 L610,117 L592,123 L574,112 L556,112 L538,111 L520,123 L502,120 L484,113 L466,126 L448,124 L430,119 L412,116 L394,125 L376,116 L358,123 L340,124 L322,120 L304,116 L286,126 L268,124 L250,112 L232,118 L214,119 L196,113 L178,118 L160,124 L142,114 L124,113 L106,124 L88,120 L70,121 L52,126 L34,114 L16,112 L-2,125 L-20,121 Z"/></clipPath>
<path d="M-20,150 L-13,151 L-7,151 L-0,156 L6,156 L13,148 L19,147 L26,149 L32,144 L39,143 L46,139 L52,144 L59,142 L65,150 L72,156 L78,160 L85,161 L92,163 L98,158 L105,159 L111,159 L118,162 L124,160 L131,166 L138,164 L144,169 L151,172 L157,173 L164,179 L170,181 L177,189 L183,198 L190,206 L197,205 L203,201 L210,194 L216,186 L223,183 L229,181 L236,183 L242,190 L249,186 L256,189 L262,186 L269,191 L275,185 L282,175 L288,168 L295,167 L302,162 L308,155 L315,149 L321,143 L328,139 L334,138 L341,140 L348,142 L354,145 L361,149 L367,147 L374,146 L380,137 L387,138 L393,140 L400,142 L407,140 L413,145 L420,151 L426,156 L433,157 L439,157 L446,165 L452,169 L459,166 L466,167 L472,168 L479,177 L485,176 L492,175 L498,169 L505,163 L512,159 L518,160 L525,156 L531,149 L538,150 L544,154 L551,159 L558,160 L564,155 L571,160 L577,164 L584,162 L590,169 L597,173 L603,175 L610,183 L617,192 L623,197 L630,197 L636,197 L643,201 L649,202 L656,198 L662,198 L669,189 L676,188 L682,183 L689,183 L695,186 L702,182 L708,185 L715,192 L722,190 L728,188 L735,178 L741,177 L748,187 L754,189 L761,190 L768,187 L774,182 L781,179 L787,180 L794,183 L800,182 L807,179 L813,179 L820,182 L820,305 L-20,305 Z" fill="#ffffff" clip-path="url(#c45118)" opacity=".96"/>
<path d="M-20,191 L-13,187 L-7,187 L-0,186 L6,185 L13,180 L19,177 L26,176 L32,171 L39,168 L46,169 L52,170 L59,173 L65,175 L72,173 L78,172 L85,173 L92,170 L98,169 L105,164 L111,162 L118,164 L124,165 L131,163 L138,161 L144,164 L151,165 L157,167 L164,166 L170,167 L177,164 L183,162 L190,161 L197,158 L203,156 L210,155 L216,152 L223,150 L229,149 L236,143 L242,139 L249,137 L256,137 L262,136 L269,135 L275,137 L282,135 L288,134 L295,132 L302,135 L308,139 L315,139 L321,140 L328,142 L334,140 L341,140 L348,140 L354,142 L361,141 L367,140 L374,143 L380,140 L387,139 L393,139 L400,142 L407,145 L413,149 L420,151 L426,149 L433,149 L439,150 L446,149 L452,149 L459,150 L466,149 L472,149 L479,151 L485,153 L492,154 L498,156 L505,157 L512,160 L518,163 L525,165 L531,172 L538,176 L544,177 L551,182 L558,183 L564,185 L571,186 L577,190 L584,192 L590,192 L597,195 L603,197 L610,199 L617,198 L623,195 L630,195 L636,193 L643,193 L649,195 L656,198 L662,197 L669,199 L676,200 L682,196 L689,195 L695,192 L702,190 L708,191 L715,191 L722,189 L728,188 L735,189 L741,189 L748,190 L754,195 L761,198 L768,197 L774,196 L781,199 L787,199 L794,199 L800,202 L807,207 L813,206 L820,208 L820,305 L-20,305 Z" fill="#9a9a9a"/>
<clipPath id="c45155"><path d="M-20,-5 L820,-5 L826,162 L808,148 L790,146 L772,164 L754,153 L736,161 L718,155 L700,155 L682,159 L664,155 L646,160 L628,153 L610,152 L592,149 L574,161 L556,149 L538,148 L520,148 L502,155 L484,162 L466,146 L448,153 L430,161 L412,155 L394,149 L376,163 L358,153 L340,158 L322,161 L304,158 L286,156 L268,151 L250,154 L232,162 L214,154 L196,156 L178,156 L160,163 L142,164 L124,150 L106,149 L88,157 L70,161 L52,148 L34,153 L16,151 L-2,157 L-20,147 Z"/></clipPath>
<path d="M-20,191 L-13,187 L-7,187 L-0,186 L6,185 L13,180 L19,177 L26,176 L32,171 L39,168 L46,169 L52,170 L59,173 L65,175 L72,173 L78,172 L85,173 L92,170 L98,169 L105,164 L111,162 L118,164 L124,165 L131,163 L138,161 L144,164 L151,165 L157,167 L164,166 L170,167 L177,164 L183,162 L190,161 L197,158 L203,156 L210,155 L216,152 L223,150 L229,149 L236,143 L242,139 L249,137 L256,137 L262,136 L269,135 L275,137 L282,135 L288,134 L295,132 L302,135 L308,139 L315,139 L321,140 L328,142 L334,140 L341,140 L348,140 L354,142 L361,141 L367,140 L374,143 L380,140 L387,139 L393,139 L400,142 L407,145 L413,149 L420,151 L426,149 L433,149 L439,150 L446,149 L452,149 L459,150 L466,149 L472,149 L479,151 L485,153 L492,154 L498,156 L505,157 L512,160 L518,163 L525,165 L531,172 L538,176 L544,177 L551,182 L558,183 L564,185 L571,186 L577,190 L584,192 L590,192 L597,195 L603,197 L610,199 L617,198 L623,195 L630,195 L636,193 L643,193 L649,195 L656,198 L662,197 L669,199 L676,200 L682,196 L689,195 L695,192 L702,190 L708,191 L715,191 L722,189 L728,188 L735,189 L741,189 L748,190 L754,195 L761,198 L768,197 L774,196 L781,199 L787,199 L794,199 L800,202 L807,207 L813,206 L820,208 L820,305 L-20,305 Z" fill="#ffffff" clip-path="url(#c45155)" opacity=".96"/>
<path d="M-20,227 L-13,226 L-7,225 L-0,226 L6,226 L13,225 L19,224 L26,224 L32,224 L39,225 L46,225 L52,226 L59,227 L65,227 L72,227 L78,227 L85,228 L92,227 L98,227 L105,228 L111,228 L118,227 L124,225 L131,224 L138,222 L144,221 L151,222 L157,221 L164,219 L170,219 L177,218 L183,218 L190,219 L197,219 L203,220 L210,221 L216,222 L223,220 L229,220 L236,219 L242,220 L249,222 L256,224 L262,225 L269,227 L275,228 L282,229 L288,230 L295,231 L302,229 L308,227 L315,227 L321,226 L328,225 L334,224 L341,223 L348,224 L354,225 L361,226 L367,226 L374,226 L380,226 L387,227 L393,226 L400,225 L407,223 L413,222 L420,221 L426,219 L433,219 L439,217 L446,217 L452,215 L459,215 L466,215 L472,214 L479,215 L485,213 L492,213 L498,213 L505,211 L512,211 L518,210 L525,210 L531,210 L538,210 L544,211 L551,211 L558,211 L564,209 L571,208 L577,208 L584,207 L590,207 L597,207 L603,207 L610,208 L617,208 L623,209 L630,209 L636,210 L643,211 L649,212 L656,212 L662,212 L669,214 L676,214 L682,216 L689,218 L695,220 L702,222 L708,225 L715,227 L722,228 L728,230 L735,231 L741,233 L748,233 L754,233 L761,233 L768,234 L774,233 L781,232 L787,232 L794,232 L800,231 L807,230 L813,231 L820,230 L820,305 L-20,305 Z" fill="#6b6b6b"/>
<clipPath id="c45205"><path d="M-20,-5 L820,-5 L826,213 L808,199 L790,206 L772,207 L754,197 L736,206 L718,213 L700,209 L682,211 L664,203 L646,196 L628,197 L610,209 L592,199 L574,197 L556,200 L538,204 L520,201 L502,212 L484,207 L466,201 L448,198 L430,206 L412,203 L394,206 L376,201 L358,201 L340,211 L322,199 L304,212 L286,212 L268,206 L250,206 L232,199 L214,211 L196,207 L178,198 L160,211 L142,197 L124,200 L106,199 L88,214 L70,212 L52,196 L34,211 L16,209 L-2,211 L-20,197 Z"/></clipPath>
<path d="M-20,227 L-13,226 L-7,225 L-0,226 L6,226 L13,225 L19,224 L26,224 L32,224 L39,225 L46,225 L52,226 L59,227 L65,227 L72,227 L78,227 L85,228 L92,227 L98,227 L105,228 L111,228 L118,227 L124,225 L131,224 L138,222 L144,221 L151,222 L157,221 L164,219 L170,219 L177,218 L183,218 L190,219 L197,219 L203,220 L210,221 L216,222 L223,220 L229,220 L236,219 L242,220 L249,222 L256,224 L262,225 L269,227 L275,228 L282,229 L288,230 L295,231 L302,229 L308,227 L315,227 L321,226 L328,225 L334,224 L341,223 L348,224 L354,225 L361,226 L367,226 L374,226 L380,226 L387,227 L393,226 L400,225 L407,223 L413,222 L420,221 L426,219 L433,219 L439,217 L446,217 L452,215 L459,215 L466,215 L472,214 L479,215 L485,213 L492,213 L498,213 L505,211 L512,211 L518,210 L525,210 L531,210 L538,210 L544,211 L551,211 L558,211 L564,209 L571,208 L577,208 L584,207 L590,207 L597,207 L603,207 L610,208 L617,208 L623,209 L630,209 L636,210 L643,211 L649,212 L656,212 L662,212 L669,214 L676,214 L682,216 L689,218 L695,220 L702,222 L708,225 L715,227 L722,228 L728,230 L735,231 L741,233 L748,233 L754,233 L761,233 L768,234 L774,233 L781,232 L787,232 L794,232 L800,231 L807,230 L813,231 L820,230 L820,305 L-20,305 Z" fill="#ffffff" clip-path="url(#c45205)" opacity=".96"/>
<polygon points="589,207 633,251 583,300" fill="#4a4a4a" opacity=".45"/>
<polygon points="342,223 388,270 336,300" fill="#4a4a4a" opacity=".45"/>
<polygon points="395,226 437,288 389,300" fill="#4a4a4a" opacity=".45"/>
<polygon points="655,212 702,279 649,300" fill="#4a4a4a" opacity=".45"/>
<polygon points="397,226 445,280 391,300" fill="#4a4a4a" opacity=".45"/>
<path d="M-20,267 L6,265 L32,264 L59,263 L85,260 L111,259 L138,257 L164,256 L190,255 L216,256 L242,255 L269,255 L295,258 L321,257 L348,255 L374,253 L400,254 L426,253 L452,252 L479,253 L505,253 L531,251 L558,251 L584,251 L610,250 L636,248 L662,248 L689,251 L715,251 L741,254 L768,255 L794,256 L820,259 L820,305 L-20,305 Z" fill="#4a4a4a"/>
<ellipse cx="110" cy="265" rx="38" ry="6" fill="#4a4a4a" opacity=".7"/>
<g transform="translate(110 263) rotate(0) scale(1.4256895040959832 1.4256895040959832)"><polygon points="-27.5,-30 -20.5,-30 -26.9,-12 -31.9,-12" fill="#dcdcdc" stroke="#111111" stroke-width="1.19" stroke-linejoin="round"/><rect x="-32.4" y="-13" width="6" height="5" rx="1" fill="#111111"/><polygon points="-13.5,-30 -6.5,-30 -7.5,-6 -12.5,-6" fill="#ffffff" stroke="#111111" stroke-width="1.19" stroke-linejoin="round"/><rect x="-13.0" y="-7" width="6" height="5" rx="1" fill="#111111"/><polygon points="4.5,-30 11.5,-30 14.1,-2 9.1,-2" fill="#ffffff" stroke="#111111" stroke-width="1.19" stroke-linejoin="round"/><rect x="8.6" y="-3" width="6" height="5" rx="1" fill="#111111"/><polygon points="22.5,-30 29.5,-30 21.3,-14 16.3,-14" fill="#dcdcdc" stroke="#111111" stroke-width="1.19" stroke-linejoin="round"/><rect x="15.8" y="-15" width="6" height="5" rx="1" fill="#111111"/><path d="M-30,-44 C-40,-52 -42,-40 -34,-34" fill="none" stroke="#111111" stroke-width="1.68" stroke-linecap="round"/><ellipse cx="0" cy="-38" rx="31" ry="15.5" fill="#ffffff" stroke="#111111" stroke-width="1.19"/><path d="M-24,-32 Q0,-23 22,-30" fill="none" stroke="#dcdcdc" stroke-width="2.10" opacity=".8"/><polygon points="16,-38 32,-48 40,-60 26,-64 14,-56" fill="#ffffff" stroke="#111111" stroke-width="1.19" stroke-linejoin="round"/><g transform="rotate(0 28 -52) translate(34 -68)"><path d="M2,-8 C-6,-30 4,-42 16,-46" fill="none" stroke="#111111" stroke-width="2.53" stroke-linecap="round"/><path d="M8,-8 C6,-30 16,-40 26,-38" fill="none" stroke="#111111" stroke-width="2.53" stroke-linecap="round"/><polygon points="-4,-4 -16,-8 -6,4" fill="#dcdcdc" stroke="#111111" stroke-width="1.19"/><polygon points="-2,-8 22,-10 34,2 28,12 8,12 -4,6" fill="#ffffff" stroke="#111111" stroke-width="1.19" stroke-linejoin="round"/><polygon points="22,12 28,12 24,30 16,14" fill="#dcdcdc" stroke="#111111" stroke-width="1.19" stroke-linejoin="round"/><circle cx="14" cy="-1" r="2" fill="#111111"/><circle cx="32" cy="3" r="1.8" fill="#111111"/></g></g>
<ellipse cx="410" cy="259" rx="38" ry="6" fill="#4a4a4a" opacity=".7"/>
<g transform="translate(410 257) rotate(0) scale(-1.2118360784815856 1.2118360784815856)"><polygon points="-27.5,-30 -20.5,-30 -26.9,-12 -31.9,-12" fill="#dcdcdc" stroke="#111111" stroke-width="1.40" stroke-linejoin="round"/><rect x="-32.4" y="-13" width="6" height="5" rx="1" fill="#111111"/><polygon points="-13.5,-30 -6.5,-30 -7.5,-6 -12.5,-6" fill="#ffffff" stroke="#111111" stroke-width="1.40" stroke-linejoin="round"/><rect x="-13.0" y="-7" width="6" height="5" rx="1" fill="#111111"/><polygon points="4.5,-30 11.5,-30 14.1,-2 9.1,-2" fill="#ffffff" stroke="#111111" stroke-width="1.40" stroke-linejoin="round"/><rect x="8.6" y="-3" width="6" height="5" rx="1" fill="#111111"/><polygon points="22.5,-30 29.5,-30 21.3,-14 16.3,-14" fill="#dcdcdc" stroke="#111111" stroke-width="1.40" stroke-linejoin="round"/><rect x="15.8" y="-15" width="6" height="5" rx="1" fill="#111111"/><path d="M-30,-44 C-40,-52 -42,-40 -34,-34" fill="none" stroke="#111111" stroke-width="1.98" stroke-linecap="round"/><ellipse cx="0" cy="-38" rx="31" ry="15.5" fill="#ffffff" stroke="#111111" stroke-width="1.40"/><path d="M-24,-32 Q0,-23 22,-30" fill="none" stroke="#dcdcdc" stroke-width="2.48" opacity=".8"/><polygon points="16,-38 32,-48 40,-60 26,-64 14,-56" fill="#ffffff" stroke="#111111" stroke-width="1.40" stroke-linejoin="round"/><g transform="rotate(0 28 -52) translate(34 -68)"><path d="M2,-8 C-6,-30 4,-42 16,-46" fill="none" stroke="#111111" stroke-width="2.97" stroke-linecap="round"/><path d="M8,-8 C6,-30 16,-40 26,-38" fill="none" stroke="#111111" stroke-width="2.97" stroke-linecap="round"/><polygon points="-4,-4 -16,-8 -6,4" fill="#dcdcdc" stroke="#111111" stroke-width="1.40"/><polygon points="-2,-8 22,-10 34,2 28,12 8,12 -4,6" fill="#ffffff" stroke="#111111" stroke-width="1.40" stroke-linejoin="round"/><polygon points="22,12 28,12 24,30 16,14" fill="#dcdcdc" stroke="#111111" stroke-width="1.40" stroke-linejoin="round"/><circle cx="14" cy="-1" r="2" fill="#111111"/><circle cx="32" cy="3" r="1.8" fill="#111111"/></g></g>
</svg>
