<svg xmlns="http://www.w3.org/2000/svg" viewBox="0 0 800 300" role="img" aria-labelledby="t45"><title id="t45">Mountain goats in space helmets on Titania, a moon of Uranus</title>
<defs><linearGradient id="g45" x1="0" y1="0" x2="0" y2="1"><stop offset="0" stop-color="#000000"/><stop offset="1" stop-color="#06090c"/></linearGradient></defs><rect width="800" height="300" fill="url(#g45)"/>
<circle cx="730" cy="126" r="1.2" fill="#ffffff" opacity="0.51"/>
<circle cx="345" cy="31" r="0.9" fill="#ffffff" opacity="0.79"/>
<circle cx="302" cy="164" r="0.9" fill="#ffffff" opacity="0.49"/>
<circle cx="687" cy="47" r="1.7" fill="#ffffff" opacity="0.58"/>
<circle cx="242" cy="102" r="0.9" fill="#ffffff" opacity="0.74"/>
<circle cx="702" cy="73" r="0.7" fill="#ffffff" opacity="0.78"/>
<circle cx="208" cy="27" r="0.9" fill="#ffffff" opacity="0.92"/>
<circle cx="522" cy="96" r="1.2" fill="#ffffff" opacity="0.87"/>
<circle cx="380" cy="22" r="1.7" fill="#ffffff" opacity="0.54"/>
<circle cx="60" cy="75" r="0.9" fill="#ffffff" opacity="0.43"/>
<circle cx="87" cy="10" r="1.7" fill="#ffffff" opacity="0.55"/>
<circle cx="713" cy="176" r="1.2" fill="#ffffff" opacity="0.64"/>
<circle cx="202" cy="178" r="0.7" fill="#ffffff" opacity="0.58"/>
<circle cx="128" cy="139" r="0.7" fill="#ffffff" opacity="0.62"/>
<circle cx="213" cy="63" r="1.7" fill="#ffffff" opacity="0.98"/>
<circle cx="234" cy="85" r="0.9" fill="#ffffff" opacity="0.63"/>
<circle cx="19" cy="129" r="0.9" fill="#ffffff" opacity="0.41"/>
<circle cx="687" cy="131" r="0.7" fill="#ffffff" opacity="0.43"/>
<circle cx="140" cy="96" r="0.7" fill="#ffffff" opacity="0.66"/>
<circle cx="590" cy="43" r="0.9" fill="#ffffff" opacity="1.00"/>
<circle cx="124" cy="66" r="0.9" fill="#ffffff" opacity="0.88"/>
<circle cx="288" cy="68" r="0.9" fill="#ffffff" opacity="0.64"/>
<circle cx="303" cy="134" r="0.7" fill="#ffffff" opacity="0.50"/>
<circle cx="593" cy="11" r="0.9" fill="#ffffff" opacity="0.98"/>
<circle cx="180" cy="153" r="0.7" fill="#ffffff" opacity="0.91"/>
<circle cx="370" cy="130" r="1.7" fill="#ffffff" opacity="0.52"/>
<circle cx="608" cy="83" r="0.9" fill="#ffffff" opacity="0.64"/>
<circle cx="721" cy="170" r="1.7" fill="#ffffff" opacity="0.48"/>
<circle cx="384" cy="30" r="1.2" fill="#ffffff" opacity="0.79"/>
<circle cx="592" cy="77" r="1.2" fill="#ffffff" opacity="0.95"/>
<circle cx="527" cy="90" r="1.2" fill="#ffffff" opacity="0.96"/>
<circle cx="272" cy="111" r="1.2" fill="#ffffff" opacity="0.68"/>
<circle cx="42" cy="71" r="0.7" fill="#ffffff" opacity="0.66"/>
<circle cx="419" cy="180" r="0.9" fill="#ffffff" opacity="0.63"/>
<circle cx="301" cy="177" r="1.7" fill="#ffffff" opacity="0.60"/>
<circle cx="183" cy="155" r="1.2" fill="#ffffff" opacity="0.77"/>
<circle cx="230" cy="33" r="1.7" fill="#ffffff" opacity="0.87"/>
<circle cx="638" cy="175" r="1.7" fill="#ffffff" opacity="0.98"/>
<circle cx="722" cy="71" r="1.7" fill="#ffffff" opacity="0.48"/>
<circle cx="155" cy="128" r="1.7" fill="#ffffff" opacity="0.50"/>
<circle cx="74" cy="190" r="1.7" fill="#ffffff" opacity="0.91"/>
<circle cx="784" cy="105" r="1.7" fill="#ffffff" opacity="0.62"/>
<circle cx="50" cy="122" r="0.9" fill="#ffffff" opacity="0.99"/>
<circle cx="602" cy="22" r="0.9" fill="#ffffff" opacity="0.77"/>
<circle cx="712" cy="131" r="0.9" fill="#ffffff" opacity="0.58"/>
<circle cx="363" cy="52" r="1.7" fill="#ffffff" opacity="0.77"/>
<circle cx="418" cy="3" r="0.9" fill="#ffffff" opacity="0.48"/>
<circle cx="574" cy="54" r="1.7" fill="#ffffff" opacity="0.95"/>
<circle cx="420" cy="24" r="0.9" fill="#ffffff" opacity="0.44"/>
<circle cx="752" cy="18" r="1.7" fill="#ffffff" opacity="0.87"/>
<circle cx="752" cy="33" r="1.2" fill="#ffffff" opacity="0.46"/>
<circle cx="478" cy="73" r="0.9" fill="#ffffff" opacity="0.53"/>
<circle cx="69" cy="12" r="0.7" fill="#ffffff" opacity="0.99"/>
<circle cx="112" cy="154" r="1.7" fill="#ffffff" opacity="0.46"/>
<circle cx="537" cy="50" r="1.2" fill="#ffffff" opacity="0.63"/>
<circle cx="676" cy="70" r="0.9" fill="#ffffff" opacity="0.51"/>
<circle cx="198" cy="37" r="1.7" fill="#ffffff" opacity="0.94"/>
<circle cx="191" cy="29" r="0.9" fill="#ffffff" opacity="0.74"/>
<circle cx="252" cy="58" r="0.7" fill="#ffffff" opacity="0.58"/>
<circle cx="100" cy="21" r="0.7" fill="#ffffff" opacity="0.70"/>
<circle cx="122" cy="136" r="1.2" fill="#ffffff" opacity="0.51"/>
<circle cx="298" cy="62" r="1.7" fill="#ffffff" opacity="0.80"/>
<circle cx="320" cy="103" r="0.9" fill="#ffffff" opacity="0.42"/>
<circle cx="260" cy="70" r="0.9" fill="#ffffff" opacity="0.97"/>
<circle cx="388" cy="90" r="1.2" fill="#ffffff" opacity="0.52"/>
<circle cx="525" cy="55" r="0.7" fill="#ffffff" opacity="0.50"/>
<circle cx="252" cy="44" r="0.7" fill="#ffffff" opacity="0.70"/>
<circle cx="447" cy="25" r="1.7" fill="#ffffff" opacity="0.76"/>
<circle cx="175" cy="82" r="0.9" fill="#ffffff" opacity="0.51"/>
<circle cx="511" cy="150" r="0.9" fill="#ffffff" opacity="0.81"/>
<circle cx="73" cy="102" r="0.9" fill="#ffffff" opacity="0.93"/>
<circle cx="281" cy="101" r="1.7" fill="#ffffff" opacity="0.53"/>
<circle cx="516" cy="162" r="0.7" fill="#ffffff" opacity="0.89"/>
<circle cx="263" cy="120" r="0.7" fill="#ffffff" opacity="0.55"/>
<circle cx="439" cy="134" r="1.7" fill="#ffffff" opacity="0.49"/>
<circle cx="714" cy="142" r="1.7" fill="#ffffff" opacity="0.88"/>
<circle cx="502" cy="21" r="0.7" fill="#ffffff" opacity="0.72"/>
<circle cx="403" cy="141" r="0.7" fill="#ffffff" opacity="0.56"/>
<circle cx="620" cy="189" r="0.9" fill="#ffffff" opacity="0.55"/>
<circle cx="611" cy="36" r="0.7" fill="#ffffff" opacity="0.54"/>
<circle cx="13" cy="157" r="0.9" fill="#ffffff" opacity="0.75"/>
<circle cx="139" cy="8" r="1.2" fill="#ffffff" opacity="0.49"/>
<circle cx="254" cy="133" r="1.2" fill="#ffffff" opacity="0.82"/>
<circle cx="743" cy="152" r="0.7" fill="#ffffff" opacity="0.81"/>
<circle cx="554" cy="100" r="1.2" fill="#ffffff" opacity="0.86"/>
<circle cx="431" cy="183" r="1.7" fill="#ffffff" opacity="0.65"/>
<circle cx="565" cy="58" r="0.7" fill="#ffffff" opacity="0.66"/>
<circle cx="219" cy="180" r="1.2" fill="#ffffff" opacity="0.72"/>
<circle cx="304" cy="13" r="0.9" fill="#ffffff" opacity="0.66"/>
<circle cx="333" cy="127" r="0.9" fill="#ffffff" opacity="0.41"/>
<circle cx="121" cy="153" r="1.7" fill="#ffffff" opacity="0.98"/>
<circle cx="499" cy="42" r="1.2" fill="#ffffff" opacity="0.72"/>
<circle cx="194" cy="12" r="1.7" fill="#ffffff" opacity="0.69"/>
<circle cx="33" cy="148" r="1.7" fill="#ffffff" opacity="0.51"/>
<circle cx="791" cy="136" r="0.7" fill="#ffffff" opacity="0.99"/>
<circle cx="501" cy="67" r="0.7" fill="#ffffff" opacity="0.60"/>
<circle cx="485" cy="154" r="0.7" fill="#ffffff" opacity="0.68"/>
<circle cx="242" cy="16" r="1.2" fill="#ffffff" opacity="0.86"/>
<circle cx="149" cy="105" r="0.7" fill="#ffffff" opacity="0.62"/>
<circle cx="424" cy="17" r="1.2" fill="#ffffff" opacity="0.40"/>
<circle cx="246" cy="167" r="0.7" fill="#ffffff" opacity="0.76"/>
<circle cx="424" cy="19" r="1.2" fill="#ffffff" opacity="0.97"/>
<circle cx="457" cy="97" r="1.2" fill="#ffffff" opacity="0.73"/>
<circle cx="649" cy="68" r="0.7" fill="#ffffff" opacity="0.62"/>
<circle cx="338" cy="125" r="1.7" fill="#ffffff" opacity="0.48"/>
<circle cx="318" cy="147" r="0.7" fill="#ffffff" opacity="0.87"/>
<circle cx="462" cy="85" r="1.7" fill="#ffffff" opacity="0.42"/>
<circle cx="511" cy="22" r="0.7" fill="#ffffff" opacity="0.92"/>
<circle cx="392" cy="128" r="0.9" fill="#ffffff" opacity="0.84"/>
<circle cx="738" cy="143" r="0.7" fill="#ffffff" opacity="0.66"/>
<ellipse cx="560" cy="100" rx="95" ry="11" fill="none" stroke="#cfe9ee" stroke-width="3" opacity=".8" transform="rotate(-72 560 100)"/><circle cx="560" cy="100" r="50" fill="#a8dde3"/><circle cx="572" cy="108" r="50" fill="#000" opacity=".12"/>
<path d="M-20,197 L-13,203 L-7,206 L-0,203 L6,206 L13,204 L19,199 L26,203 L32,200 L39,201 L46,206 L52,208 L59,204 L65,204 L72,207 L78,213 L85,215 L92,211 L98,210 L105,213 L111,214 L118,218 L124,218 L131,221 L138,228 L144,227 L151,224 L157,226 L164,226 L170,227 L177,233 L183,237 L190,238 L197,233 L203,230 L210,230 L216,226 L223,222 L229,220 L236,222 L242,219 L249,220 L256,221 L262,216 L269,215 L275,219 L282,221 L288,219 L295,219 L302,220 L308,222 L315,220 L321,220 L328,220 L334,220 L341,224 L348,225 L354,222 L361,221 L367,218 L374,212 L380,211 L387,207 L393,207 L400,210 L407,209 L413,203 L420,200 L426,202 L433,204 L439,203 L446,199 L452,198 L459,198 L466,200 L472,203 L479,202 L485,198 L492,196 L498,197 L505,193 L512,189 L518,190 L525,190 L531,195 L538,197 L544,198 L551,199 L558,201 L564,199 L571,199 L577,195 L584,196 L590,193 L597,191 L603,191 L610,194 L617,196 L623,192 L630,194 L636,194 L643,192 L649,194 L656,191 L662,192 L669,190 L676,187 L682,179 L689,174 L695,175 L702,174 L708,173 L715,169 L722,168 L728,169 L735,171 L741,167 L748,169 L754,172 L761,176 L768,179 L774,181 L781,182 L787,186 L794,184 L800,188 L807,188 L813,185 L820,186 L820,305 L-20,305 Z" fill="#b9d3d6"/>
<path d="M-20,230 L-13,231 L-7,231 L-0,230 L6,229 L13,230 L19,230 L26,234 L32,235 L39,232 L46,231 L52,230 L59,228 L65,229 L72,230 L78,229 L85,229 L92,231 L98,233 L105,233 L111,232 L118,233 L124,232 L131,232 L138,232 L144,235 L151,236 L157,237 L164,236 L170,238 L177,238 L183,239 L190,240 L197,241 L203,239 L210,239 L216,236 L223,236 L229,235 L236,233 L242,232 L249,234 L256,233 L262,234 L269,233 L275,231 L282,228 L288,226 L295,226 L302,224 L308,223 L315,222 L321,222 L328,220 L334,218 L341,216 L348,213 L354,213 L361,213 L367,212 L374,214 L380,214 L387,214 L393,211 L400,210 L407,210 L413,211 L420,209 L426,208 L433,205 L439,204 L446,203 L452,201 L459,202 L466,204 L472,205 L479,204 L485,204 L492,203 L498,202 L505,202 L512,202 L518,201 L525,203 L531,202 L538,202 L544,204 L551,204 L558,203 L564,200 L571,197 L577,197 L584,195 L590,193 L597,191 L603,190 L610,191 L617,192 L623,194 L630,196 L636,195 L643,195 L649,196 L656,196 L662,194 L669,196 L676,198 L682,199 L689,200 L695,199 L702,200 L708,200 L715,199 L722,200 L728,200 L735,201 L741,200 L748,201 L754,203 L761,204 L768,207 L774,208 L781,209 L787,207 L794,208 L800,210 L807,211 L813,212 L820,216 L820,305 L-20,305 Z" fill="#93b3b8"/>
<path d="M-20,242 L-13,240 L-7,239 L-0,238 L6,237 L13,237 L19,237 L26,237 L32,237 L39,236 L46,237 L52,238 L59,238 L65,238 L72,238 L78,238 L85,238 L92,236 L98,236 L105,236 L111,235 L118,235 L124,234 L131,234 L138,234 L144,233 L151,232 L157,231 L164,231 L170,230 L177,229 L183,227 L190,227 L197,226 L203,225 L210,225 L216,226 L223,226 L229,225 L236,224 L242,224 L249,224 L256,225 L262,226 L269,227 L275,228 L282,228 L288,228 L295,228 L302,227 L308,227 L315,227 L321,227 L328,227 L334,228 L341,229 L348,230 L354,231 L361,233 L367,233 L374,234 L380,236 L387,237 L393,237 L400,238 L407,238 L413,239 L420,239 L426,240 L433,240 L439,240 L446,240 L452,241 L459,240 L466,239 L472,239 L479,239 L485,239 L492,239 L498,240 L505,240 L512,241 L518,241 L525,243 L531,244 L538,244 L544,246 L551,246 L558,248 L564,249 L571,249 L577,250 L584,252 L590,253 L597,255 L603,255 L610,256 L617,255 L623,254 L630,253 L636,252 L643,251 L649,251 L656,250 L662,249 L669,249 L676,247 L682,247 L689,247 L695,247 L702,246 L708,245 L715,244 L722,245 L728,245 L735,244 L741,244 L748,244 L754,245 L761,245 L768,245 L774,245 L781,244 L787,244 L794,245 L800,245 L807,245 L813,244 L820,244 L820,305 L-20,305 Z" fill="#6e8e93"/>
<path d="M-20,265 L6,264 L32,265 L59,266 L85,267 L111,266 L138,266 L164,267 L190,267 L216,267 L242,266 L269,266 L295,265 L321,265 L348,266 L374,266 L400,266 L426,267 L452,267 L479,267 L505,266 L531,265 L558,266 L584,267 L610,268 L636,267 L662,267 L689,266 L715,265 L741,263 L768,261 L794,260 L820,261 L820,305 L-20,305 Z" fill="#52716f"/>
<ellipse cx="572" cy="280" rx="32" ry="8" fill="#34504e" opacity=".75"/><ellipse cx="569" cy="278" rx="27" ry="5" fill="#52716f"/>
<ellipse cx="72" cy="284" rx="46" ry="11" fill="#34504e" opacity=".75"/><ellipse cx="69" cy="282" rx="41" ry="8" fill="#52716f"/>
<ellipse cx="228" cy="276" rx="30" ry="8" fill="#34504e" opacity=".75"/><ellipse cx="225" cy="274" rx="25" ry="5" fill="#52716f"/>
<ellipse cx="598" cy="292" rx="31" ry="8" fill="#34504e" opacity=".75"/><ellipse cx="595" cy="290" rx="26" ry="5" fill="#52716f"/>
<ellipse cx="211" cy="282" rx="39" ry="9" fill="#34504e" opacity=".75"/><ellipse cx="208" cy="280" rx="34" ry="6" fill="#52716f"/>
<ellipse cx="140" cy="287" rx="41" ry="10" fill="#34504e" opacity=".75"/><ellipse cx="137" cy="285" rx="36" ry="7" fill="#52716f"/>
<ellipse cx="398" cy="277" rx="29" ry="7" fill="#34504e" opacity=".75"/><ellipse cx="395" cy="275" rx="24" ry="4" fill="#52716f"/>
<ellipse cx="243" cy="285" rx="22" ry="6" fill="#34504e" opacity=".75"/><ellipse cx="240" cy="283" rx="17" ry="3" fill="#52716f"/>
<ellipse cx="524" cy="276" rx="19" ry="5" fill="#34504e" opacity=".75"/><ellipse cx="521" cy="274" rx="14" ry="2" fill="#52716f"/>
<ellipse cx="100" cy="274" rx="38" ry="6" fill="#000" opacity=".5"/>
<g transform="translate(100 272) rotate(0) scale(1.266916959343749 1.266916959343749)"><polygon points="-21.5,-30 -14.5,-30 -15.5,-6 -20.5,-6" fill="#d9dde6" stroke="#12151c" stroke-width="1.34" stroke-linejoin="round"/><rect x="-21.0" y="-7" width="6" height="5" rx="1" fill="#12151c"/><polygon points="-13.5,-30 -6.5,-30 -7.5,-6 -12.5,-6" fill="#ffffff" stroke="#12151c" stroke-width="1.34" stroke-linejoin="round"/><rect x="-13.0" y="-7" width="6" height="5" rx="1" fill="#12151c"/><polygon points="10.5,-30 17.5,-30 16.5,-6 11.5,-6" fill="#ffffff" stroke="#12151c" stroke-width="1.34" stroke-linejoin="round"/><rect x="11.0" y="-7" width="6" height="5" rx="1" fill="#12151c"/><polygon points="18.5,-30 25.5,-30 24.5,-6 19.5,-6" fill="#d9dde6" stroke="#12151c" stroke-width="1.34" stroke-linejoin="round"/><rect x="19.0" y="-7" width="6" height="5" rx="1" fill="#12151c"/><path d="M-30,-44 C-40,-52 -42,-40 -34,-34" fill="none" stroke="#12151c" stroke-width="1.89" stroke-linecap="round"/><ellipse cx="0" cy="-38" rx="31" ry="15.5" fill="#ffffff" stroke="#12151c" stroke-width="1.34"/><path d="M-24,-32 Q0,-23 22,-30" fill="none" stroke="#d9dde6" stroke-width="2.37" opacity=".8"/><polygon points="16,-38 32,-48 40,-60 26,-64 14,-56" fill="#ffffff" stroke="#12151c" stroke-width="1.34" stroke-linejoin="round"/><g transform="rotate(58 28 -52) translate(34 -68)"><path d="M2,-8 C-6,-30 4,-42 16,-46" fill="none" stroke="#12151c" stroke-width="2.84" stroke-linecap="round"/><path d="M8,-8 C6,-30 16,-40 26,-38" fill="none" stroke="#12151c" stroke-width="2.84" stroke-linecap="round"/><polygon points="-4,-4 -16,-8 -6,4" fill="#d9dde6" stroke="#12151c" stroke-width="1.34"/><polygon points="-2,-8 22,-10 34,2 28,12 8,12 -4,6" fill="#ffffff" stroke="#12151c" stroke-width="1.34" stroke-linejoin="round"/><polygon points="22,12 28,12 24,30 16,14" fill="#d9dde6" stroke="#12151c" stroke-width="1.34" stroke-linejoin="round"/><circle cx="14" cy="-1" r="2" fill="#12151c"/><circle cx="32" cy="3" r="1.8" fill="#12151c"/><circle cx="17" cy="0" r="30" fill="#cfe9ff" fill-opacity=".22" stroke="#e8f4ff" stroke-width="1.89"/><path d="M-3,-14 A24,24 0 0 1 16,-24" fill="none" stroke="#ffffff" stroke-width="2.05" stroke-linecap="round" opacity=".85"/></g></g>
<ellipse cx="250" cy="274" rx="38" ry="6" fill="#000" opacity=".5"/>
<g transform="translate(250 272) rotate(0) scale(1.0768794154421866 1.0768794154421866)"><polygon points="-21.5,-30 -14.5,-30 -15.5,-6 -20.5,-6" fill="#d9dde6" stroke="#12151c" stroke-width="1.58" stroke-linejoin="round"/><rect x="-21.0" y="-7" width="6" height="5" rx="1" fill="#12151c"/><polygon points="-13.5,-30 -6.5,-30 -7.5,-6 -12.5,-6" fill="#ffffff" stroke="#12151c" stroke-width="1.58" stroke-linejoin="round"/><rect x="-13.0" y="-7" width="6" height="5" rx="1" fill="#12151c"/><polygon points="10.5,-30 17.5,-30 16.5,-6 11.5,-6" fill="#ffffff" stroke="#12151c" stroke-width="1.58" stroke-linejoin="round"/><rect x="11.0" y="-7" width="6" height="5" rx="1" fill="#12151c"/><polygon points="18.5,-30 25.5,-30 24.5,-6 19.5,-6" fill="#d9dde6" stroke="#12151c" stroke-width="1.58" stroke-linejoin="round"/><rect x="19.0" y="-7" width="6" height="5" rx="1" fill="#12151c"/><path d="M-30,-44 C-40,-52 -42,-40 -34,-34" fill="none" stroke="#12151c" stroke-width="2.23" stroke-linecap="round"/><ellipse cx="0" cy="-38" rx="31" ry="15.5" fill="#ffffff" stroke="#12151c" stroke-width="1.58"/><path d="M-24,-32 Q0,-23 22,-30" fill="none" stroke="#d9dde6" stroke-width="2.79" opacity=".8"/><polygon points="16,-38 32,-48 40,-60 26,-64 14,-56" fill="#ffffff" stroke="#12151c" stroke-width="1.58" stroke-linejoin="round"/><g transform="rotate(58 28 -52) translate(34 -68)"><path d="M2,-8 C-6,-30 4,-42 16,-46" fill="none" stroke="#12151c" stroke-width="3.34" stroke-linecap="round"/><path d="M8,-8 C6,-30 16,-40 26,-38" fill="none" stroke="#12151c" stroke-width="3.34" stroke-linecap="round"/><polygon points="-4,-4 -16,-8 -6,4" fill="#d9dde6" stroke="#12151c" stroke-width="1.58"/><polygon points="-2,-8 22,-10 34,2 28,12 8,12 -4,6" fill="#ffffff" stroke="#12151c" stroke-width="1.58" stroke-linejoin="round"/><polygon points="22,12 28,12 24,30 16,14" fill="#d9dde6" stroke="#12151c" stroke-width="1.58" stroke-linejoin="round"/><circle cx="14" cy="-1" r="2" fill="#12151c"/><circle cx="32" cy="3" r="1.8" fill="#12151c"/><circle cx="17" cy="0" r="30" fill="#cfe9ff" fill-opacity=".22" stroke="#e8f4ff" stroke-width="2.23"/><path d="M-3,-14 A24,24 0 0 1 16,-24" fill="none" stroke="#ffffff" stroke-width="2.41" stroke-linecap="round" opacity=".85"/></g></g>
<ellipse cx="680" cy="274" rx="38" ry="6" fill="#000" opacity=".5"/>
<g transform="translate(680 272) rotate(0) scale(1.0768794154421866 1.0768794154421866)"><polygon points="-21.5,-30 -14.5,-30 -15.5,-6 -20.5,-6" fill="#d9dde6" stroke="#12151c" stroke-width="1.58" stroke-linejoin="round"/><rect x="-21.0" y="-7" width="6" height="5" rx="1" fill="#12151c"/><polygon points="-13.5,-30 -6.5,-30 -7.5,-6 -12.5,-6" fill="#ffffff" stroke="#12151c" stroke-width="1.58" stroke-linejoin="round"/><rect x="-13.0" y="-7" width="6" height="5" rx="1" fill="#12151c"/><polygon points="10.5,-30 17.5,-30 16.5,-6 11.5,-6" fill="#ffffff" stroke="#12151c" stroke-width="1.58" stroke-linejoin="round"/><rect x="11.0" y="-7" width="6" height="5" rx="1" fill="#12151c"/><polygon points="18.5,-30 25.5,-30 24.5,-6 19.5,-6" fill="#d9dde6" stroke="#12151c" stroke-width="1.58" stroke-linejoin="round"/><rect x="19.0" y="-7" width="6" height="5" rx="1" fill="#12151c"/><path d="M-30,-44 C-40,-52 -42,-40 -34,-34" fill="none" stroke="#12151c" stroke-width="2.23" stroke-linecap="round"/><ellipse cx="0" cy="-38" rx="31" ry="15.5" fill="#ffffff" stroke="#12151c" stroke-width="1.58"/><path d="M-24,-32 Q0,-23 22,-30" fill="none" stroke="#d9dde6" stroke-width="2.79" opacity=".8"/><polygon points="16,-38 32,-48 40,-60 26,-64 14,-56" fill="#ffffff" stroke="#12151c" stroke-width="1.58" stroke-linejoin="round"/><g transform="rotate(0 28 -52) translate(34 -68)"><path d="M2,-8 C-6,-30 4,-42 16,-46" fill="none" stroke="#12151c" stroke-width="3.34" stroke-linecap="round"/><path d="M8,-8 C6,-30 16,-40 26,-38" fill="none" stroke="#12151c" stroke-width="3.34" stroke-linecap="round"/><polygon points="-4,-4 -16,-8 -6,4" fill="#d9dde6" stroke="#12151c" stroke-width="1.58"/><polygon points="-2,-8 22,-10 34,2 28,12 8,12 -4,6" fill="#ffffff" stroke="#12151c" stroke-width="1.58" stroke-linejoin="round"/><polygon points="22,12 28,12 24,30 16,14" fill="#d9dde6" stroke="#12151c" stroke-width="1.58" stroke-linejoin="round"/><circle cx="14" cy="-1" r="2" fill="#12151c"/><circle cx="32" cy="3" r="1.8" fill="#12151c"/><circle cx="17" cy="0" r="30" fill="#cfe9ff" fill-opacity=".22" stroke="#e8f4ff" stroke-width="2.23"/><path d="M-3,-14 A24,24 0 0 1 16,-24" fill="none" stroke="#ffffff" stroke-width="2.41" stroke-linecap="round" opacity=".85"/></g></g>
</svg>
