<svg xmlns="http://www.w3.org/2000/svg" viewBox="0 0 800 300" role="img" aria-labelledby="t148"><title id="t148">Mountain goats and a trail signpost marked START at the foot of the climb, at dawn</title>
<defs><linearGradient id="g148" x1="0" y1="0" x2="0" y2="1"><stop offset="0" stop-color="#f7c9a9"/><stop offset="1" stop-color="#fbe8cf"/></linearGradient></defs>
<rect width="800" height="300" fill="url(#g148)"/>
<circle cx="703" cy="72" r="26" fill="#ffd9a0" opacity=".95"/><circle cx="703" cy="72" r="44" fill="#ffd9a0" opacity=".22"/>
<g fill="#fff6ee" opacity="0.8"><ellipse cx="641" cy="64" rx="29" ry="9"/><ellipse cx="624" cy="67" rx="19" ry="8"/><ellipse cx="660" cy="68" rx="20" ry="7"/></g>
<g fill="#fff6ee" opacity="0.8"><ellipse cx="137" cy="79" rx="31" ry="10"/><ellipse cx="119" cy="82" rx="20" ry="8"/><ellipse cx="157" cy="83" rx="22" ry="7"/></g>
<g fill="#fff6ee" opacity="0.8"><ellipse cx="678" cy="96" rx="26" ry="8"/><ellipse cx="663" cy="99" rx="17" ry="7"/><ellipse cx="695" cy="100" rx="18" ry="6"/></g>
<path d="M333,115 q6,-7 11,0 q6,-7 11,0" fill="none" stroke="#3a2e3f" stroke-width="1.6" stroke-linecap="round"/>
<path d="M455,111 q5,-6 10,0 q5,-6 10,0" fill="none" stroke="#3a2e3f" stroke-width="1.6" stroke-linecap="round"/>
<path d="M342,57 q6,-7 12,0 q6,-7 12,0" fill="none" stroke="#3a2e3f" stroke-width="1.6" stroke-linecap="round"/>
<path d="M-20,196 L-13,198 L-7,198 L-0,198 L6,192 L13,192 L19,191 L26,197 L32,201 L39,208 L46,209 L52,212 L59,220 L65,226 L72,235 L78,243 L85,247 L92,245 L98,248 L105,254 L111,263 L118,268 L124,271 L131,274 L138,276 L144,284 L151,285 L157,289 L164,286 L170,279 L177,276 L183,275 L190,280 L197,282 L203,289 L210,286 L216,289 L223,288 L229,288 L236,293 L242,298 L249,295 L256,301 L262,293 L269,290 L275,293 L282,287 L288,281 L295,279 L302,275 L308,278 L315,275 L321,270 L328,270 L334,271 L341,280 L348,285 L354,288 L361,284 L367,289 L374,286 L380,284 L387,290 L393,282 L400,282 L407,282 L413,285 L420,283 L426,285 L433,284 L439,285 L446,286 L452,282 L459,288 L466,286 L472,293 L479,294 L485,291 L492,294 L498,291 L505,292 L512,295 L518,297 L525,294 L531,299 L538,295 L544,295 L551,292 L558,293 L564,291 L571,286 L577,288 L584,281 L590,275 L597,268 L603,265 L610,253 L617,251 L623,249 L630,238 L636,234 L643,232 L649,237 L656,233 L662,234 L669,225 L676,221 L682,214 L689,213 L695,210 L702,211 L708,209 L715,205 L722,204 L728,196 L735,199 L741,197 L748,200 L754,204 L761,209 L768,206 L774,208 L781,202 L787,201 L794,198 L800,188 L807,185 L813,181 L820,184 L820,305 L-20,305 Z" fill="#c9a5b8"/>
<clipPath id="c148118"><path d="M-20,-5 L820,-5 L826,112 L808,121 L790,111 L772,112 L754,125 L736,126 L718,110 L700,114 L682,109 L664,117 L646,116 L628,114 L610,112 L592,111 L574,117 L556,123 L538,114 L520,109 L502,111 L484,119 L466,113 L448,112 L430,124 L412,125 L394,117 L376,125 L358,109 L340,111 L322,109 L304,116 L286,127 L268,120 L250,117 L232,121 L214,115 L196,122 L178,117 L160,117 L142,114 L124,126 L106,126 L88,114 L70,125 L52,116 L34,113 L16,125 L-2,121 L-20,113 Z"/></clipPath>
<path d="M-20,196 L-13,198 L-7,198 L-0,198 L6,192 L13,192 L19,191 L26,197 L32,201 L39,208 L46,209 L52,212 L59,220 L65,226 L72,235 L78,243 L85,247 L92,245 L98,248 L105,254 L111,263 L118,268 L124,271 L131,274 L138,276 L144,284 L151,285 L157,289 L164,286 L170,279 L177,276 L183,275 L190,280 L197,282 L203,289 L210,286 L216,289 L223,288 L229,288 L236,293 L242,298 L249,295 L256,301 L262,293 L269,290 L275,293 L282,287 L288,281 L295,279 L302,275 L308,278 L315,275 L321,270 L328,270 L334,271 L341,280 L348,285 L354,288 L361,284 L367,289 L374,286 L380,284 L387,290 L393,282 L400,282 L407,282 L413,285 L420,283 L426,285 L433,284 L439,285 L446,286 L452,282 L459,288 L466,286 L472,293 L479,294 L485,291 L492,294 L498,291 L505,292 L512,295 L518,297 L525,294 L531,299 L538,295 L544,295 L551,292 L558,293 L564,291 L571,286 L577,288 L584,281 L590,275 L597,268 L603,265 L610,253 L617,251 L623,249 L630,238 L636,234 L643,232 L649,237 L656,233 L662,234 L669,225 L676,221 L682,214 L689,213 L695,210 L702,211 L708,209 L715,205 L722,204 L728,196 L735,199 L741,197 L748,200 L754,204 L761,209 L768,206 L774,208 L781,202 L787,201 L794,198 L800,188 L807,185 L813,181 L820,184 L820,305 L-20,305 Z" fill="#fff6ee" clip-path="url(#c148118)" opacity=".96"/>
<path d="M-20,187 L-13,186 L-7,187 L-0,185 L6,186 L13,187 L19,189 L26,188 L32,186 L39,188 L46,188 L52,186 L59,184 L65,184 L72,183 L78,178 L85,174 L92,175 L98,176 L105,174 L111,175 L118,179 L124,181 L131,183 L138,186 L144,189 L151,190 L157,193 L164,198 L170,200 L177,201 L183,201 L190,199 L197,195 L203,193 L210,193 L216,191 L223,189 L229,189 L236,190 L242,189 L249,189 L256,188 L262,187 L269,188 L275,188 L282,187 L288,183 L295,179 L302,176 L308,176 L315,178 L321,179 L328,182 L334,182 L341,185 L348,187 L354,187 L361,189 L367,190 L374,191 L380,189 L387,188 L393,189 L400,191 L407,191 L413,195 L420,195 L426,193 L433,188 L439,186 L446,185 L452,185 L459,180 L466,177 L472,177 L479,174 L485,171 L492,172 L498,170 L505,171 L512,171 L518,172 L525,174 L531,176 L538,181 L544,181 L551,183 L558,182 L564,180 L571,182 L577,179 L584,175 L590,176 L597,179 L603,179 L610,181 L617,182 L623,185 L630,184 L636,185 L643,188 L649,189 L656,191 L662,195 L669,191 L676,190 L682,187 L689,185 L695,186 L702,184 L708,186 L715,187 L722,188 L728,188 L735,184 L741,183 L748,180 L754,180 L761,176 L768,175 L774,175 L781,178 L787,177 L794,176 L800,179 L807,181 L813,181 L820,181 L820,305 L-20,305 Z" fill="#9a7f9c"/>
<clipPath id="c148155"><path d="M-20,-5 L820,-5 L826,159 L808,150 L790,148 L772,152 L754,148 L736,152 L718,150 L700,150 L682,153 L664,161 L646,160 L628,159 L610,152 L592,147 L574,158 L556,151 L538,163 L520,156 L502,150 L484,160 L466,151 L448,162 L430,162 L412,155 L394,155 L376,161 L358,153 L340,151 L322,157 L304,155 L286,159 L268,161 L250,164 L232,149 L214,159 L196,157 L178,164 L160,157 L142,154 L124,149 L106,150 L88,152 L70,147 L52,163 L34,157 L16,160 L-2,156 L-20,149 Z"/></clipPath>
<path d="M-20,187 L-13,186 L-7,187 L-0,185 L6,186 L13,187 L19,189 L26,188 L32,186 L39,188 L46,188 L52,186 L59,184 L65,184 L72,183 L78,178 L85,174 L92,175 L98,176 L105,174 L111,175 L118,179 L124,181 L131,183 L138,186 L144,189 L151,190 L157,193 L164,198 L170,200 L177,201 L183,201 L190,199 L197,195 L203,193 L210,193 L216,191 L223,189 L229,189 L236,190 L242,189 L249,189 L256,188 L262,187 L269,188 L275,188 L282,187 L288,183 L295,179 L302,176 L308,176 L315,178 L321,179 L328,182 L334,182 L341,185 L348,187 L354,187 L361,189 L367,190 L374,191 L380,189 L387,188 L393,189 L400,191 L407,191 L413,195 L420,195 L426,193 L433,188 L439,186 L446,185 L452,185 L459,180 L466,177 L472,177 L479,174 L485,171 L492,172 L498,170 L505,171 L512,171 L518,172 L525,174 L531,176 L538,181 L544,181 L551,183 L558,182 L564,180 L571,182 L577,179 L584,175 L590,176 L597,179 L603,179 L610,181 L617,182 L623,185 L630,184 L636,185 L643,188 L649,189 L656,191 L662,195 L669,191 L676,190 L682,187 L689,185 L695,186 L702,184 L708,186 L715,187 L722,188 L728,188 L735,184 L741,183 L748,180 L754,180 L761,176 L768,175 L774,175 L781,178 L787,177 L794,176 L800,179 L807,181 L813,181 L820,181 L820,305 L-20,305 Z" fill="#fff6ee" clip-path="url(#c148155)" opacity=".96"/>
<path d="M-20,241 L-13,241 L-7,241 L-0,240 L6,241 L13,239 L19,238 L26,238 L32,237 L39,238 L46,238 L52,239 L59,239 L65,238 L72,237 L78,236 L85,237 L92,237 L98,236 L105,236 L111,237 L118,235 L124,234 L131,232 L138,231 L144,230 L151,229 L157,227 L164,226 L170,224 L177,222 L183,221 L190,219 L197,221 L203,224 L210,225 L216,226 L223,227 L229,229 L236,230 L242,232 L249,232 L256,234 L262,234 L269,234 L275,235 L282,235 L288,236 L295,235 L302,235 L308,235 L315,235 L321,236 L328,236 L334,234 L341,234 L348,234 L354,236 L361,237 L367,238 L374,239 L380,239 L387,239 L393,239 L400,239 L407,239 L413,238 L420,239 L426,239 L433,239 L439,238 L446,239 L452,239 L459,240 L466,241 L472,242 L479,245 L485,246 L492,247 L498,247 L505,247 L512,246 L518,246 L525,246 L531,246 L538,244 L544,244 L551,245 L558,246 L564,245 L571,245 L577,243 L584,243 L590,242 L597,239 L603,237 L610,236 L617,235 L623,235 L630,235 L636,235 L643,236 L649,237 L656,238 L662,239 L669,238 L676,238 L682,238 L689,237 L695,238 L702,238 L708,240 L715,241 L722,240 L728,239 L735,240 L741,240 L748,240 L754,240 L761,239 L768,239 L774,237 L781,234 L787,234 L794,232 L800,230 L807,229 L813,229 L820,229 L820,305 L-20,305 Z" fill="#6d5b7b"/>
<clipPath id="c148205"><path d="M-20,-5 L820,-5 L826,211 L808,202 L790,207 L772,200 L754,197 L736,202 L718,205 L700,206 L682,204 L664,213 L646,212 L628,211 L610,209 L592,208 L574,212 L556,205 L538,206 L520,211 L502,213 L484,207 L466,209 L448,204 L430,212 L412,212 L394,208 L376,210 L358,198 L340,200 L322,213 L304,196 L286,201 L268,213 L250,197 L232,214 L214,203 L196,210 L178,202 L160,204 L142,210 L124,210 L106,210 L88,200 L70,202 L52,198 L34,213 L16,210 L-2,206 L-20,204 Z"/></clipPath>
<path d="M-20,241 L-13,241 L-7,241 L-0,240 L6,241 L13,239 L19,238 L26,238 L32,237 L39,238 L46,238 L52,239 L59,239 L65,238 L72,237 L78,236 L85,237 L92,237 L98,236 L105,236 L111,237 L118,235 L124,234 L131,232 L138,231 L144,230 L151,229 L157,227 L164,226 L170,224 L177,222 L183,221 L190,219 L197,221 L203,224 L210,225 L216,226 L223,227 L229,229 L236,230 L242,232 L249,232 L256,234 L262,234 L269,234 L275,235 L282,235 L288,236 L295,235 L302,235 L308,235 L315,235 L321,236 L328,236 L334,234 L341,234 L348,234 L354,236 L361,237 L367,238 L374,239 L380,239 L387,239 L393,239 L400,239 L407,239 L413,238 L420,239 L426,239 L433,239 L439,238 L446,239 L452,239 L459,240 L466,241 L472,242 L479,245 L485,246 L492,247 L498,247 L505,247 L512,246 L518,246 L525,246 L531,246 L538,244 L544,244 L551,245 L558,246 L564,245 L571,245 L577,243 L584,243 L590,242 L597,239 L603,237 L610,236 L617,235 L623,235 L630,235 L636,235 L643,236 L649,237 L656,238 L662,239 L669,238 L676,238 L682,238 L689,237 L695,238 L702,238 L708,240 L715,241 L722,240 L728,239 L735,240 L741,240 L748,240 L754,240 L761,239 L768,239 L774,237 L781,234 L787,234 L794,232 L800,230 L807,229 L813,229 L820,229 L820,305 L-20,305 Z" fill="#fff6ee" clip-path="url(#c148205)" opacity=".96"/>
<polygon points="431,239 500,303 425,300" fill="#54466a" opacity=".45"/>
<polygon points="377,239 430,284 371,300" fill="#54466a" opacity=".45"/>
<polygon points="619,235 683,294 613,300" fill="#54466a" opacity=".45"/>
<polygon points="733,240 802,306 727,300" fill="#54466a" opacity=".45"/>
<polygon points="59,239 99,308 53,300" fill="#54466a" opacity=".45"/>
<polygon points="538,248 529,272 534,272 526,282.45658142908036 550,282.45658142908036 542,272 547,272" fill="#54466a"/>
<polygon points="684,255 676,275 681,275 674,283.5148804690091 694,283.5148804690091 687,275 692,275" fill="#54466a"/>
<polygon points="572,246 562,272 568,272 559,283.6487599938653 585,283.6487599938653 576,272 582,272" fill="#54466a"/>
<polygon points="404,249 393,279 399,279 389,291.6617708619136 419,291.6617708619136 409,279 415,279" fill="#54466a"/>
<polygon points="24,247 14,275 19,275 10,286.57630516504685 38,286.57630516504685 29,275 34,275" fill="#54466a"/>
<path d="M-20,266 L6,267 L32,268 L59,269 L85,270 L111,272 L138,272 L164,273 L190,271 L216,271 L242,269 L269,270 L295,270 L321,272 L348,271 L374,273 L400,272 L426,271 L452,269 L479,269 L505,270 L531,271 L558,271 L584,274 L610,274 L636,272 L662,271 L689,269 L715,266 L741,266 L768,269 L794,269 L820,267 L820,305 L-20,305 Z" fill="#4a3d5a"/>
<ellipse cx="230" cy="276" rx="38" ry="6" fill="#54466a" opacity=".7"/>
<g transform="translate(230 274) rotate(0) scale(-1.2638190251639183 1.2638190251639183)"><polygon points="-17.5,-10 -10.5,-10 -11.5,-7 -16.5,-7" fill="#eadfd3" stroke="#3a2e3f" stroke-width="1.35" stroke-linejoin="round"/><rect x="-17.0" y="-8" width="6" height="5" rx="1" fill="#3a2e3f"/><polygon points="-7.5,-10 -0.5,-10 -1.5,-7 -6.5,-7" fill="#fffaf3" stroke="#3a2e3f" stroke-width="1.35" stroke-linejoin="round"/><rect x="-7.0" y="-8" width="6" height="5" rx="1" fill="#3a2e3f"/><polygon points="10.5,-10 17.5,-10 16.5,-7 11.5,-7" fill="#fffaf3" stroke="#3a2e3f" stroke-width="1.35" stroke-linejoin="round"/><rect x="11.0" y="-8" width="6" height="5" rx="1" fill="#3a2e3f"/><polygon points="20.5,-10 27.5,-10 26.5,-7 21.5,-7" fill="#eadfd3" stroke="#3a2e3f" stroke-width="1.35" stroke-linejoin="round"/><rect x="21.0" y="-8" width="6" height="5" rx="1" fill="#3a2e3f"/><path d="M-30,-30 C-40,-38 -42,-26 -34,-20" fill="none" stroke="#3a2e3f" stroke-width="1.90" stroke-linecap="round"/><ellipse cx="0" cy="-24" rx="31" ry="15.5" fill="#fffaf3" stroke="#3a2e3f" stroke-width="1.35"/><path d="M-24,-18 Q0,-9 22,-16" fill="none" stroke="#eadfd3" stroke-width="2.37" opacity=".8"/><polygon points="16,-24 32,-34 40,-46 26,-50 14,-42" fill="#fffaf3" stroke="#3a2e3f" stroke-width="1.35" stroke-linejoin="round"/><g transform="rotate(0 28 -38) translate(34 -54)"><path d="M2,-8 C-6,-30 4,-42 16,-46" fill="none" stroke="#3a2e3f" stroke-width="2.85" stroke-linecap="round"/><path d="M8,-8 C6,-30 16,-40 26,-38" fill="none" stroke="#3a2e3f" stroke-width="2.85" stroke-linecap="round"/><polygon points="-4,-4 -16,-8 -6,4" fill="#eadfd3" stroke="#3a2e3f" stroke-width="1.35"/><polygon points="-2,-8 22,-10 34,2 28,12 8,12 -4,6" fill="#fffaf3" stroke="#3a2e3f" stroke-width="1.35" stroke-linejoin="round"/><polygon points="22,12 28,12 24,30 16,14" fill="#eadfd3" stroke="#3a2e3f" stroke-width="1.35" stroke-linejoin="round"/><circle cx="14" cy="-1" r="2" fill="#3a2e3f"/><circle cx="32" cy="3" r="1.8" fill="#3a2e3f"/></g></g>
<ellipse cx="500" cy="276" rx="38" ry="6" fill="#54466a" opacity=".7"/>
<g transform="translate(500 274) rotate(0) scale(1.0742461713893305 1.0742461713893305)"><polygon points="-17.5,-10 -10.5,-10 -11.5,-7 -16.5,-7" fill="#eadfd3" stroke="#3a2e3f" stroke-width="1.58" stroke-linejoin="round"/><rect x="-17.0" y="-8" width="6" height="5" rx="1" fill="#3a2e3f"/><polygon points="-7.5,-10 -0.5,-10 -1.5,-7 -6.5,-7" fill="#fffaf3" stroke="#3a2e3f" stroke-width="1.58" stroke-linejoin="round"/><rect x="-7.0" y="-8" width="6" height="5" rx="1" fill="#3a2e3f"/><polygon points="10.5,-10 17.5,-10 16.5,-7 11.5,-7" fill="#fffaf3" stroke="#3a2e3f" stroke-width="1.58" stroke-linejoin="round"/><rect x="11.0" y="-8" width="6" height="5" rx="1" fill="#3a2e3f"/><polygon points="20.5,-10 27.5,-10 26.5,-7 21.5,-7" fill="#eadfd3" stroke="#3a2e3f" stroke-width="1.58" stroke-linejoin="round"/><rect x="21.0" y="-8" width="6" height="5" rx="1" fill="#3a2e3f"/><path d="M-30,-30 C-40,-38 -42,-26 -34,-20" fill="none" stroke="#3a2e3f" stroke-width="2.23" stroke-linecap="round"/><ellipse cx="0" cy="-24" rx="31" ry="15.5" fill="#fffaf3" stroke="#3a2e3f" stroke-width="1.58"/><path d="M-24,-18 Q0,-9 22,-16" fill="none" stroke="#eadfd3" stroke-width="2.79" opacity=".8"/><polygon points="16,-24 32,-34 40,-46 26,-50 14,-42" fill="#fffaf3" stroke="#3a2e3f" stroke-width="1.58" stroke-linejoin="round"/><g transform="rotate(0 28 -38) translate(34 -54)"><path d="M2,-8 C-6,-30 4,-42 16,-46" fill="none" stroke="#3a2e3f" stroke-width="3.35" stroke-linecap="round"/><path d="M8,-8 C6,-30 16,-40 26,-38" fill="none" stroke="#3a2e3f" stroke-width="3.35" stroke-linecap="round"/><polygon points="-4,-4 -16,-8 -6,4" fill="#eadfd3" stroke="#3a2e3f" stroke-width="1.58"/><polygon points="-2,-8 22,-10 34,2 28,12 8,12 -4,6" fill="#fffaf3" stroke="#3a2e3f" stroke-width="1.58" stroke-linejoin="round"/><polygon points="22,12 28,12 24,30 16,14" fill="#eadfd3" stroke="#3a2e3f" stroke-width="1.58" stroke-linejoin="round"/><circle cx="14" cy="-1" r="2" fill="#3a2e3f"/><circle cx="32" cy="3" r="1.8" fill="#3a2e3f"/></g></g>
<g transform="translate(690 258)"><rect x="-3" y="-70" width="6" height="70" fill="#6b4a2f"/><polygon points="-4,-68 40,-68 52,-60 40,-52 -4,-52" fill="#c89a62" stroke="#4a3320" stroke-width="1.5"/><polygon points="4,-46 -38,-46 -50,-38 -38,-30 4,-30" fill="#d8b07a" stroke="#4a3320" stroke-width="1.5"/><text x="2" y="-56" font-family="sans-serif" font-size="9" font-weight="bold" fill="#3a2515" text-anchor="middle">START</text><text x="-22" y="-35" font-family="sans-serif" font-size="8" fill="#3a2515" text-anchor="middle">SUMMIT</text></g></svg>
