<svg xmlns="http://www.w3.org/2000/svg" viewBox="0 0 800 300" role="img" aria-labelledby="t23"><title id="t23">Mountain goats in space helmets on Triton, a moon of Neptune</title>
<defs><linearGradient id="g23" x1="0" y1="0" x2="0" y2="1"><stop offset="0" stop-color="#000000"/><stop offset="1" stop-color="#050810"/></linearGradient></defs><rect width="800" height="300" fill="url(#g23)"/>
<circle cx="206" cy="63" r="0.9" fill="#ffffff" opacity="0.62"/>
<circle cx="787" cy="38" r="0.9" fill="#ffffff" opacity="0.58"/>
<circle cx="333" cy="153" r="0.9" fill="#ffffff" opacity="0.52"/>
<circle cx="605" cy="153" r="0.7" fill="#ffffff" opacity="0.76"/>
<circle cx="701" cy="65" r="1.2" fill="#ffffff" opacity="0.91"/>
<circle cx="788" cy="102" r="0.9" fill="#ffffff" opacity="0.95"/>
<circle cx="417" cy="123" r="1.7" fill="#ffffff" opacity="0.43"/>
<circle cx="490" cy="151" r="1.7" fill="#ffffff" opacity="0.55"/>
<circle cx="642" cy="78" r="0.7" fill="#ffffff" opacity="0.79"/>
<circle cx="659" cy="109" r="1.7" fill="#ffffff" opacity="0.86"/>
<circle cx="680" cy="53" r="1.2" fill="#ffffff" opacity="0.88"/>
<circle cx="237" cy="171" r="1.7" fill="#ffffff" opacity="0.77"/>
<circle cx="473" cy="127" r="0.7" fill="#ffffff" opacity="0.53"/>
<circle cx="734" cy="4" r="0.7" fill="#ffffff" opacity="0.64"/>
<circle cx="375" cy="33" r="0.9" fill="#ffffff" opacity="0.51"/>
<circle cx="568" cy="78" r="0.7" fill="#ffffff" opacity="0.72"/>
<circle cx="552" cy="48" r="0.7" fill="#ffffff" opacity="0.52"/>
<circle cx="116" cy="31" r="1.2" fill="#ffffff" opacity="0.64"/>
<circle cx="371" cy="46" r="0.9" fill="#ffffff" opacity="0.90"/>
<circle cx="188" cy="27" r="1.2" fill="#ffffff" opacity="0.49"/>
<circle cx="457" cy="135" r="1.2" fill="#ffffff" opacity="0.48"/>
<circle cx="127" cy="65" r="0.7" fill="#ffffff" opacity="0.53"/>
<circle cx="402" cy="85" r="1.2" fill="#ffffff" opacity="0.78"/>
<circle cx="69" cy="67" r="1.2" fill="#ffffff" opacity="0.87"/>
<circle cx="491" cy="125" r="1.7" fill="#ffffff" opacity="0.47"/>
<circle cx="552" cy="23" r="0.7" fill="#ffffff" opacity="0.72"/>
<circle cx="769" cy="143" r="0.7" fill="#ffffff" opacity="0.41"/>
<circle cx="184" cy="107" r="0.7" fill="#ffffff" opacity="0.44"/>
<circle cx="586" cy="112" r="0.9" fill="#ffffff" opacity="0.42"/>
<circle cx="479" cy="85" r="1.7" fill="#ffffff" opacity="0.44"/>
<circle cx="384" cy="26" r="0.7" fill="#ffffff" opacity="0.71"/>
<circle cx="258" cy="8" r="1.7" fill="#ffffff" opacity="0.75"/>
<circle cx="619" cy="145" r="1.2" fill="#ffffff" opacity="0.75"/>
<circle cx="489" cy="60" r="1.7" fill="#ffffff" opacity="0.55"/>
<circle cx="621" cy="164" r="0.9" fill="#ffffff" opacity="0.52"/>
<circle cx="771" cy="69" r="1.2" fill="#ffffff" opacity="0.67"/>
<circle cx="257" cy="178" r="1.2" fill="#ffffff" opacity="0.77"/>
<circle cx="479" cy="30" r="1.2" fill="#ffffff" opacity="0.81"/>
<circle cx="145" cy="29" r="0.9" fill="#ffffff" opacity="0.83"/>
<circle cx="405" cy="137" r="0.9" fill="#ffffff" opacity="0.43"/>
<circle cx="440" cy="85" r="1.2" fill="#ffffff" opacity="0.47"/>
<circle cx="715" cy="28" r="1.7" fill="#ffffff" opacity="0.68"/>
<circle cx="58" cy="15" r="1.7" fill="#ffffff" opacity="0.71"/>
<circle cx="492" cy="140" r="0.7" fill="#ffffff" opacity="0.54"/>
<circle cx="212" cy="169" r="0.9" fill="#ffffff" opacity="0.47"/>
<circle cx="392" cy="177" r="0.9" fill="#ffffff" opacity="0.74"/>
<circle cx="431" cy="156" r="0.7" fill="#ffffff" opacity="0.78"/>
<circle cx="176" cy="137" r="1.7" fill="#ffffff" opacity="0.72"/>
<circle cx="301" cy="10" r="1.7" fill="#ffffff" opacity="0.79"/>
<circle cx="370" cy="125" r="1.7" fill="#ffffff" opacity="0.53"/>
<circle cx="586" cy="173" r="0.7" fill="#ffffff" opacity="0.43"/>
<circle cx="494" cy="169" r="0.7" fill="#ffffff" opacity="0.76"/>
<circle cx="794" cy="74" r="1.2" fill="#ffffff" opacity="0.61"/>
<circle cx="90" cy="131" r="1.2" fill="#ffffff" opacity="0.85"/>
<circle cx="455" cy="121" r="0.9" fill="#ffffff" opacity="0.93"/>
<circle cx="261" cy="175" r="1.2" fill="#ffffff" opacity="0.57"/>
<circle cx="484" cy="85" r="0.7" fill="#ffffff" opacity="0.56"/>
<circle cx="597" cy="62" r="0.9" fill="#ffffff" opacity="0.99"/>
<circle cx="442" cy="104" r="1.7" fill="#ffffff" opacity="0.47"/>
<circle cx="455" cy="133" r="0.7" fill="#ffffff" opacity="0.99"/>
<circle cx="196" cy="73" r="0.7" fill="#ffffff" opacity="0.84"/>
<circle cx="22" cy="140" r="0.7" fill="#ffffff" opacity="0.86"/>
<circle cx="600" cy="57" r="1.2" fill="#ffffff" opacity="0.63"/>
<circle cx="45" cy="154" r="0.9" fill="#ffffff" opacity="0.42"/>
<circle cx="149" cy="131" r="1.7" fill="#ffffff" opacity="0.47"/>
<circle cx="60" cy="94" r="0.9" fill="#ffffff" opacity="0.58"/>
<circle cx="45" cy="151" r="1.7" fill="#ffffff" opacity="0.44"/>
<circle cx="56" cy="67" r="1.7" fill="#ffffff" opacity="0.43"/>
<circle cx="728" cy="7" r="0.7" fill="#ffffff" opacity="0.69"/>
<circle cx="733" cy="188" r="1.7" fill="#ffffff" opacity="0.59"/>
<circle cx="113" cy="59" r="1.2" fill="#ffffff" opacity="0.95"/>
<circle cx="96" cy="177" r="1.7" fill="#ffffff" opacity="0.77"/>
<circle cx="589" cy="41" r="0.7" fill="#ffffff" opacity="0.81"/>
<circle cx="392" cy="15" r="1.2" fill="#ffffff" opacity="0.95"/>
<circle cx="592" cy="140" r="0.7" fill="#ffffff" opacity="0.61"/>
<circle cx="349" cy="188" r="1.2" fill="#ffffff" opacity="1.00"/>
<circle cx="227" cy="131" r="0.9" fill="#ffffff" opacity="0.75"/>
<circle cx="293" cy="89" r="0.9" fill="#ffffff" opacity="0.78"/>
<circle cx="210" cy="138" r="0.7" fill="#ffffff" opacity="0.67"/>
<circle cx="336" cy="190" r="1.2" fill="#ffffff" opacity="0.58"/>
<circle cx="149" cy="154" r="0.7" fill="#ffffff" opacity="1.00"/>
<circle cx="142" cy="125" r="0.9" fill="#ffffff" opacity="0.75"/>
<circle cx="411" cy="173" r="0.7" fill="#ffffff" opacity="0.46"/>
<circle cx="681" cy="129" r="1.2" fill="#ffffff" opacity="0.98"/>
<circle cx="763" cy="23" r="0.9" fill="#ffffff" opacity="0.71"/>
<circle cx="582" cy="186" r="0.7" fill="#ffffff" opacity="0.65"/>
<circle cx="347" cy="88" r="0.9" fill="#ffffff" opacity="0.48"/>
<circle cx="573" cy="154" r="1.2" fill="#ffffff" opacity="0.67"/>
<circle cx="226" cy="181" r="0.9" fill="#ffffff" opacity="0.83"/>
<circle cx="728" cy="118" r="1.2" fill="#ffffff" opacity="0.45"/>
<circle cx="19" cy="181" r="0.7" fill="#ffffff" opacity="0.68"/>
<circle cx="421" cy="29" r="1.2" fill="#ffffff" opacity="0.68"/>
<circle cx="167" cy="154" r="1.7" fill="#ffffff" opacity="0.47"/>
<circle cx="205" cy="53" r="0.7" fill="#ffffff" opacity="0.84"/>
<circle cx="770" cy="113" r="0.9" fill="#ffffff" opacity="0.96"/>
<circle cx="198" cy="40" r="1.2" fill="#ffffff" opacity="0.96"/>
<circle cx="307" cy="46" r="1.7" fill="#ffffff" opacity="0.99"/>
<circle cx="744" cy="32" r="0.9" fill="#ffffff" opacity="0.85"/>
<circle cx="630" cy="152" r="0.7" fill="#ffffff" opacity="0.86"/>
<circle cx="460" cy="68" r="1.7" fill="#ffffff" opacity="0.75"/>
<circle cx="789" cy="116" r="0.7" fill="#ffffff" opacity="0.52"/>
<circle cx="286" cy="26" r="0.9" fill="#ffffff" opacity="0.67"/>
<circle cx="286" cy="94" r="0.9" fill="#ffffff" opacity="0.73"/>
<circle cx="652" cy="43" r="1.7" fill="#ffffff" opacity="0.72"/>
<circle cx="167" cy="147" r="1.2" fill="#ffffff" opacity="0.49"/>
<circle cx="245" cy="56" r="1.2" fill="#ffffff" opacity="0.45"/>
<circle cx="666" cy="50" r="1.7" fill="#ffffff" opacity="0.79"/>
<circle cx="567" cy="17" r="0.7" fill="#ffffff" opacity="0.51"/>
<circle cx="465" cy="18" r="1.2" fill="#ffffff" opacity="0.97"/>
<circle cx="447" cy="49" r="0.9" fill="#ffffff" opacity="0.44"/>
<clipPath id="pl"><circle cx="520" cy="95" r="52"/></clipPath><circle cx="520" cy="95" r="52" fill="#2f55c9"/><g clip-path="url(#pl)"><ellipse cx="506" cy="101" rx="14" ry="8" fill="#1a2f8a"/><ellipse cx="526" cy="77" rx="26" ry="2.5" fill="#ffffff" opacity=".7"/><ellipse cx="534" cy="115" rx="20" ry="2" fill="#ffffff" opacity=".6"/><circle cx="536" cy="107" r="55" fill="#000" opacity=".4"/></g>
<path d="M-20,163 L-13,164 L-7,167 L-0,167 L6,168 L13,169 L19,168 L26,165 L32,164 L39,166 L46,163 L52,167 L59,166 L65,161 L72,156 L78,154 L85,152 L92,154 L98,156 L105,155 L111,157 L118,153 L124,153 L131,153 L138,151 L144,150 L151,152 L157,156 L164,159 L170,162 L177,167 L183,171 L190,172 L197,170 L203,165 L210,163 L216,163 L223,156 L229,151 L236,149 L242,145 L249,141 L256,141 L262,143 L269,146 L275,145 L282,148 L288,146 L295,142 L302,139 L308,139 L315,142 L321,143 L328,142 L334,138 L341,137 L348,141 L354,137 L361,139 L367,140 L374,139 L380,139 L387,137 L393,135 L400,128 L407,125 L413,125 L420,125 L426,124 L433,126 L439,125 L446,126 L452,124 L459,124 L466,127 L472,126 L479,128 L485,125 L492,126 L498,127 L505,128 L512,133 L518,136 L525,136 L531,142 L538,143 L544,148 L551,153 L558,154 L564,155 L571,153 L577,155 L584,154 L590,161 L597,163 L603,166 L610,170 L617,173 L623,178 L630,183 L636,184 L643,186 L649,189 L656,192 L662,194 L669,195 L676,197 L682,198 L689,199 L695,196 L702,194 L708,196 L715,193 L722,194 L728,193 L735,192 L741,193 L748,193 L754,194 L761,196 L768,193 L774,195 L781,197 L787,194 L794,195 L800,193 L807,194 L813,190 L820,186 L820,305 L-20,305 Z" fill="#e3cfd0"/>
<path d="M-20,209 L-13,209 L-7,210 L-0,211 L6,214 L13,215 L19,217 L26,218 L32,217 L39,217 L46,215 L52,214 L59,214 L65,216 L72,216 L78,218 L85,219 L92,219 L98,219 L105,218 L111,216 L118,216 L124,216 L131,213 L138,213 L144,210 L151,208 L157,208 L164,207 L170,206 L177,205 L183,204 L190,204 L197,203 L203,200 L210,198 L216,199 L223,198 L229,197 L236,196 L242,196 L249,194 L256,195 L262,191 L269,190 L275,191 L282,192 L288,192 L295,190 L302,191 L308,193 L315,194 L321,195 L328,195 L334,195 L341,198 L348,198 L354,196 L361,195 L367,193 L374,191 L380,191 L387,191 L393,190 L400,190 L407,191 L413,192 L420,191 L426,190 L433,191 L439,190 L446,187 L452,186 L459,184 L466,182 L472,182 L479,180 L485,179 L492,177 L498,174 L505,170 L512,171 L518,169 L525,170 L531,172 L538,171 L544,168 L551,167 L558,168 L564,168 L571,168 L577,167 L584,167 L590,168 L597,169 L603,169 L610,170 L617,167 L623,165 L630,164 L636,163 L643,164 L649,164 L656,164 L662,164 L669,167 L676,168 L682,169 L689,172 L695,174 L702,174 L708,174 L715,172 L722,172 L728,175 L735,175 L741,177 L748,182 L754,185 L761,186 L768,189 L774,191 L781,193 L787,195 L794,194 L800,194 L807,194 L813,196 L820,198 L820,305 L-20,305 Z" fill="#c4aeb0"/>
<path d="M-20,248 L-13,249 L-7,249 L-0,249 L6,249 L13,250 L19,251 L26,251 L32,251 L39,251 L46,251 L52,252 L59,252 L65,252 L72,252 L78,251 L85,251 L92,251 L98,251 L105,251 L111,250 L118,250 L124,249 L131,249 L138,248 L144,246 L151,246 L157,245 L164,245 L170,245 L177,246 L183,246 L190,245 L197,244 L203,244 L210,242 L216,241 L223,241 L229,239 L236,239 L242,238 L249,237 L256,236 L262,236 L269,236 L275,234 L282,233 L288,233 L295,232 L302,231 L308,230 L315,228 L321,228 L328,228 L334,227 L341,227 L348,226 L354,226 L361,226 L367,226 L374,225 L380,224 L387,223 L393,223 L400,222 L407,223 L413,224 L420,224 L426,223 L433,222 L439,222 L446,222 L452,222 L459,222 L466,224 L472,224 L479,225 L485,225 L492,226 L498,226 L505,227 L512,229 L518,231 L525,232 L531,233 L538,233 L544,234 L551,236 L558,237 L564,237 L571,238 L577,239 L584,240 L590,240 L597,241 L603,241 L610,241 L617,241 L623,241 L630,242 L636,242 L643,242 L649,242 L656,241 L662,241 L669,241 L676,241 L682,241 L689,241 L695,241 L702,239 L708,239 L715,239 L722,239 L728,240 L735,241 L741,241 L748,241 L754,240 L761,241 L768,240 L774,239 L781,238 L787,238 L794,237 L800,237 L807,237 L813,237 L820,237 L820,305 L-20,305 Z" fill="#9d878a"/>
<path d="M-20,262 L6,261 L32,261 L59,260 L85,260 L111,259 L138,259 L164,258 L190,257 L216,256 L242,256 L269,254 L295,253 L321,255 L348,256 L374,255 L400,255 L426,256 L452,256 L479,257 L505,257 L531,259 L558,260 L584,260 L610,261 L636,261 L662,259 L689,260 L715,261 L741,260 L768,261 L794,261 L820,259 L820,305 L-20,305 Z" fill="#7a666a"/>
<ellipse cx="187" cy="292" rx="16" ry="5" fill="#4f3f43" opacity=".75"/><ellipse cx="184" cy="290" rx="11" ry="2" fill="#7a666a"/>
<ellipse cx="757" cy="273" rx="32" ry="8" fill="#4f3f43" opacity=".75"/><ellipse cx="754" cy="271" rx="27" ry="5" fill="#7a666a"/>
<ellipse cx="117" cy="288" rx="24" ry="6" fill="#4f3f43" opacity=".75"/><ellipse cx="114" cy="286" rx="19" ry="3" fill="#7a666a"/>
<ellipse cx="304" cy="284" rx="23" ry="6" fill="#4f3f43" opacity=".75"/><ellipse cx="301" cy="282" rx="18" ry="3" fill="#7a666a"/>
<ellipse cx="256" cy="287" rx="23" ry="6" fill="#4f3f43" opacity=".75"/><ellipse cx="253" cy="285" rx="18" ry="3" fill="#7a666a"/>
<ellipse cx="262" cy="274" rx="27" ry="7" fill="#4f3f43" opacity=".75"/><ellipse cx="259" cy="272" rx="22" ry="4" fill="#7a666a"/>
<ellipse cx="166" cy="287" rx="29" ry="7" fill="#4f3f43" opacity=".75"/><ellipse cx="163" cy="285" rx="24" ry="4" fill="#7a666a"/>
<ellipse cx="40" cy="275" rx="19" ry="5" fill="#4f3f43" opacity=".75"/><ellipse cx="37" cy="273" rx="14" ry="2" fill="#7a666a"/>
<ellipse cx="717" cy="294" rx="23" ry="6" fill="#4f3f43" opacity=".75"/><ellipse cx="714" cy="292" rx="18" ry="3" fill="#7a666a"/>
<ellipse cx="170" cy="266" rx="38" ry="6" fill="#000" opacity=".5"/>
<g transform="translate(170 264) rotate(0) scale(1.3108587168043242 1.3108587168043242)"><polygon points="-27.5,-30 -20.5,-30 -26.9,-12 -31.9,-12" fill="#d9dde6" stroke="#12151c" stroke-width="1.30" stroke-linejoin="round"/><rect x="-32.4" y="-13" width="6" height="5" rx="1" fill="#12151c"/><polygon points="-13.5,-30 -6.5,-30 -7.5,-6 -12.5,-6" fill="#ffffff" stroke="#12151c" stroke-width="1.30" stroke-linejoin="round"/><rect x="-13.0" y="-7" width="6" height="5" rx="1" fill="#12151c"/><polygon points="4.5,-30 11.5,-30 14.1,-2 9.1,-2" fill="#ffffff" stroke="#12151c" stroke-width="1.30" stroke-linejoin="round"/><rect x="8.6" y="-3" width="6" height="5" rx="1" fill="#12151c"/><polygon points="22.5,-30 29.5,-30 21.3,-14 16.3,-14" fill="#d9dde6" stroke="#12151c" stroke-width="1.30" stroke-linejoin="round"/><rect x="15.8" y="-15" width="6" height="5" rx="1" fill="#12151c"/><path d="M-30,-44 C-40,-52 -42,-40 -34,-34" fill="none" stroke="#12151c" stroke-width="1.83" stroke-linecap="round"/><ellipse cx="0" cy="-38" rx="31" ry="15.5" fill="#ffffff" stroke="#12151c" stroke-width="1.30"/><path d="M-24,-32 Q0,-23 22,-30" fill="none" stroke="#d9dde6" stroke-width="2.29" opacity=".8"/><polygon points="16,-38 32,-48 40,-60 26,-64 14,-56" fill="#ffffff" stroke="#12151c" stroke-width="1.30" stroke-linejoin="round"/><g transform="rotate(0 28 -52) translate(34 -68)"><path d="M2,-8 C-6,-30 4,-42 16,-46" fill="none" stroke="#12151c" stroke-width="2.75" stroke-linecap="round"/><path d="M8,-8 C6,-30 16,-40 26,-38" fill="none" stroke="#12151c" stroke-width="2.75" stroke-linecap="round"/><polygon points="-4,-4 -16,-8 -6,4" fill="#d9dde6" stroke="#12151c" stroke-width="1.30"/><polygon points="-2,-8 22,-10 34,2 28,12 8,12 -4,6" fill="#ffffff" stroke="#12151c" stroke-width="1.30" stroke-linejoin="round"/><polygon points="22,12 28,12 24,30 16,14" fill="#d9dde6" stroke="#12151c" stroke-width="1.30" stroke-linejoin="round"/><circle cx="14" cy="-1" r="2" fill="#12151c"/><circle cx="32" cy="3" r="1.8" fill="#12151c"/><circle cx="17" cy="0" r="30" fill="#cfe9ff" fill-opacity=".22" stroke="#e8f4ff" stroke-width="1.83"/><path d="M-3,-14 A24,24 0 0 1 16,-24" fill="none" stroke="#ffffff" stroke-width="1.98" stroke-linecap="round" opacity=".85"/></g></g>
<ellipse cx="360" cy="263" rx="38" ry="6" fill="#000" opacity=".5"/>
<g transform="translate(360 261) rotate(0) scale(0.6908225437558788 0.6908225437558788)"><polygon points="-21.5,-30 -14.5,-30 -15.5,-6 -20.5,-6" fill="#d9dde6" stroke="#12151c" stroke-width="1.53" stroke-linejoin="round"/><rect x="-21.0" y="-7" width="6" height="5" rx="1" fill="#12151c"/><polygon points="-13.5,-30 -6.5,-30 -7.5,-6 -12.5,-6" fill="#ffffff" stroke="#12151c" stroke-width="1.53" stroke-linejoin="round"/><rect x="-13.0" y="-7" width="6" height="5" rx="1" fill="#12151c"/><polygon points="10.5,-30 17.5,-30 16.5,-6 11.5,-6" fill="#ffffff" stroke="#12151c" stroke-width="1.53" stroke-linejoin="round"/><rect x="11.0" y="-7" width="6" height="5" rx="1" fill="#12151c"/><polygon points="18.5,-30 25.5,-30 24.5,-6 19.5,-6" fill="#d9dde6" stroke="#12151c" stroke-width="1.53" stroke-linejoin="round"/><rect x="19.0" y="-7" width="6" height="5" rx="1" fill="#12151c"/><path d="M-30,-44 C-40,-52 -42,-40 -34,-34" fill="none" stroke="#12151c" stroke-width="2.15" stroke-linecap="round"/><ellipse cx="0" cy="-38" rx="31" ry="15.5" fill="#ffffff" stroke="#12151c" stroke-width="1.53"/><path d="M-24,-32 Q0,-23 22,-30" fill="none" stroke="#d9dde6" stroke-width="2.69" opacity=".8"/><polygon points="16,-38 32,-48 40,-60 26,-64 14,-56" fill="#ffffff" stroke="#12151c" stroke-width="1.53" stroke-linejoin="round"/><g transform="rotate(0 28 -52) translate(34 -68)"><path d="M2,-8 C-6,-30 4,-42 16,-46" fill="none" stroke="#12151c" stroke-width="3.23" stroke-linecap="round"/><path d="M8,-8 C6,-30 16,-40 26,-38" fill="none" stroke="#12151c" stroke-width="3.23" stroke-linecap="round"/><polygon points="-4,-4 -16,-8 -6,4" fill="#d9dde6" stroke="#12151c" stroke-width="1.53"/><polygon points="-2,-8 22,-10 34,2 28,12 8,12 -4,6" fill="#ffffff" stroke="#12151c" stroke-width="1.53" stroke-linejoin="round"/><polygon points="22,12 28,12 24,30 16,14" fill="#d9dde6" stroke="#12151c" stroke-width="1.53" stroke-linejoin="round"/><circle cx="14" cy="-1" r="2" fill="#12151c"/><circle cx="32" cy="3" r="1.8" fill="#12151c"/><circle cx="17" cy="0" r="30" fill="#cfe9ff" fill-opacity=".22" stroke="#e8f4ff" stroke-width="2.15"/><path d="M-3,-14 A24,24 0 0 1 16,-24" fill="none" stroke="#ffffff" stroke-width="2.33" stroke-linecap="round" opacity=".85"/></g></g>
</svg>
