<svg xmlns="http://www.w3.org/2000/svg" viewBox="0 0 800 300" role="img" aria-labelledby="t26"><title id="t26">Mountain goats on the mountain at sunset</title>
<defs><linearGradient id="g26" x1="0" y1="0" x2="0" y2="1"><stop offset="0" stop-color="#5a3a73"/><stop offset="1" stop-color="#f08a4b"/></linearGradient></defs>
<rect width="800" height="300" fill="url(#g26)"/>
<circle cx="705" cy="62" r="15" fill="#ffcf7a" opacity=".95"/><circle cx="705" cy="62" r="35" fill="#ffcf7a" opacity=".22"/>
<g fill="#ffd9c0" opacity="0.8"><ellipse cx="417" cy="37" rx="33" ry="11"/><ellipse cx="398" cy="40" rx="21" ry="9"/><ellipse cx="438" cy="41" rx="23" ry="8"/></g>
<g fill="#ffd9c0" opacity="0.8"><ellipse cx="680" cy="46" rx="34" ry="11"/><ellipse cx="660" cy="49" rx="22" ry="9"/><ellipse cx="702" cy="50" rx="24" ry="8"/></g>
<g fill="#ffd9c0" opacity="0.8"><ellipse cx="526" cy="54" rx="30" ry="10"/><ellipse cx="508" cy="57" rx="19" ry="8"/><ellipse cx="545" cy="58" rx="21" ry="7"/></g>
<g fill="#ffd9c0" opacity="0.8"><ellipse cx="279" cy="35" rx="46" ry="15"/><ellipse cx="252" cy="38" rx="30" ry="12"/><ellipse cx="309" cy="39" rx="33" ry="11"/></g>
<path d="M415,108 q4,-5 9,0 q4,-5 9,0" fill="none" stroke="#241633" stroke-width="1.6" stroke-linecap="round"/>
<path d="M-20,193 L-13,191 L-7,183 L-0,182 L6,182 L13,180 L19,182 L26,180 L32,173 L39,164 L46,157 L52,157 L59,150 L65,152 L72,145 L78,148 L85,153 L92,158 L98,157 L105,151 L111,149 L118,148 L124,155 L131,162 L138,170 L144,171 L151,174 L157,179 L164,181 L170,182 L177,179 L183,181 L190,178 L197,178 L203,175 L210,170 L216,165 L223,165 L229,163 L236,161 L242,167 L249,161 L256,163 L262,164 L269,155 L275,157 L282,149 L288,158 L295,158 L302,153 L308,150 L315,155 L321,157 L328,155 L334,147 L341,140 L348,141 L354,139 L361,140 L367,140 L374,140 L380,131 L387,120 L393,116 L400,113 L407,113 L413,122 L420,120 L426,120 L433,115 L439,116 L446,112 L452,117 L459,122 L466,127 L472,128 L479,134 L485,132 L492,134 L498,132 L505,128 L512,129 L518,128 L525,129 L531,128 L538,133 L544,130 L551,132 L558,126 L564,127 L571,124 L577,122 L584,127 L590,115 L597,109 L603,102 L610,104 L617,103 L623,98 L630,96 L636,91 L643,91 L649,92 L656,92 L662,83 L669,88 L676,88 L682,88 L689,82 L695,88 L702,86 L708,90 L715,85 L722,85 L728,88 L735,84 L741,87 L748,90 L754,84 L761,90 L768,90 L774,92 L781,98 L787,105 L794,103 L800,107 L807,120 L813,128 L820,133 L820,305 L-20,305 Z" fill="#8b5a7c"/>
<clipPath id="c26118"><path d="M-20,-5 L820,-5 L826,123 L808,114 L790,112 L772,117 L754,127 L736,118 L718,122 L700,126 L682,120 L664,119 L646,124 L628,120 L610,125 L592,116 L574,110 L556,124 L538,126 L520,110 L502,119 L484,127 L466,125 L448,120 L430,116 L412,117 L394,121 L376,116 L358,117 L340,120 L322,119 L304,126 L286,125 L268,123 L250,120 L232,111 L214,120 L196,123 L178,125 L160,120 L142,116 L124,110 L106,116 L88,122 L70,122 L52,125 L34,126 L16,117 L-2,112 L-20,114 Z"/></clipPath>
<path d="M-20,193 L-13,191 L-7,183 L-0,182 L6,182 L13,180 L19,182 L26,180 L32,173 L39,164 L46,157 L52,157 L59,150 L65,152 L72,145 L78,148 L85,153 L92,158 L98,157 L105,151 L111,149 L118,148 L124,155 L131,162 L138,170 L144,171 L151,174 L157,179 L164,181 L170,182 L177,179 L183,181 L190,178 L197,178 L203,175 L210,170 L216,165 L223,165 L229,163 L236,161 L242,167 L249,161 L256,163 L262,164 L269,155 L275,157 L282,149 L288,158 L295,158 L302,153 L308,150 L315,155 L321,157 L328,155 L334,147 L341,140 L348,141 L354,139 L361,140 L367,140 L374,140 L380,131 L387,120 L393,116 L400,113 L407,113 L413,122 L420,120 L426,120 L433,115 L439,116 L446,112 L452,117 L459,122 L466,127 L472,128 L479,134 L485,132 L492,134 L498,132 L505,128 L512,129 L518,128 L525,129 L531,128 L538,133 L544,130 L551,132 L558,126 L564,127 L571,124 L577,122 L584,127 L590,115 L597,109 L603,102 L610,104 L617,103 L623,98 L630,96 L636,91 L643,91 L649,92 L656,92 L662,83 L669,88 L676,88 L682,88 L689,82 L695,88 L702,86 L708,90 L715,85 L722,85 L728,88 L735,84 L741,87 L748,90 L754,84 L761,90 L768,90 L774,92 L781,98 L787,105 L794,103 L800,107 L807,120 L813,128 L820,133 L820,305 L-20,305 Z" fill="#ffd9c0" clip-path="url(#c26118)" opacity=".96"/>
<path d="M-20,225 L-13,224 L-7,224 L-0,223 L6,219 L13,217 L19,215 L26,210 L32,205 L39,206 L46,211 L52,209 L59,209 L65,209 L72,207 L78,207 L85,209 L92,211 L98,211 L105,208 L111,209 L118,210 L124,210 L131,208 L138,207 L144,208 L151,210 L157,214 L164,218 L170,219 L177,219 L183,219 L190,222 L197,218 L203,217 L210,214 L216,212 L223,210 L229,210 L236,209 L242,211 L249,208 L256,204 L262,205 L269,204 L275,200 L282,198 L288,194 L295,190 L302,191 L308,190 L315,193 L321,194 L328,195 L334,191 L341,191 L348,193 L354,190 L361,187 L367,188 L374,185 L380,187 L387,185 L393,185 L400,180 L407,183 L413,186 L420,187 L426,190 L433,192 L439,193 L446,197 L452,198 L459,196 L466,197 L472,197 L479,197 L485,197 L492,196 L498,198 L505,200 L512,200 L518,197 L525,195 L531,195 L538,191 L544,189 L551,189 L558,186 L564,186 L571,183 L577,182 L584,185 L590,183 L597,180 L603,182 L610,181 L617,179 L623,177 L630,175 L636,169 L643,170 L649,169 L656,169 L662,165 L669,165 L676,167 L682,168 L689,168 L695,168 L702,168 L708,171 L715,170 L722,171 L728,169 L735,171 L741,173 L748,175 L754,179 L761,180 L768,184 L774,183 L781,185 L787,184 L794,187 L800,189 L807,191 L813,194 L820,197 L820,305 L-20,305 Z" fill="#5e3d66"/>
<clipPath id="c26155"><path d="M-20,-5 L820,-5 L826,149 L808,153 L790,148 L772,149 L754,152 L736,147 L718,157 L700,147 L682,150 L664,160 L646,154 L628,150 L610,161 L592,148 L574,147 L556,148 L538,159 L520,159 L502,153 L484,159 L466,152 L448,156 L430,163 L412,152 L394,151 L376,151 L358,153 L340,157 L322,149 L304,151 L286,156 L268,158 L250,155 L232,152 L214,158 L196,162 L178,156 L160,155 L142,163 L124,162 L106,148 L88,153 L70,160 L52,160 L34,151 L16,160 L-2,150 L-20,146 Z"/></clipPath>
<path d="M-20,225 L-13,224 L-7,224 L-0,223 L6,219 L13,217 L19,215 L26,210 L32,205 L39,206 L46,211 L52,209 L59,209 L65,209 L72,207 L78,207 L85,209 L92,211 L98,211 L105,208 L111,209 L118,210 L124,210 L131,208 L138,207 L144,208 L151,210 L157,214 L164,218 L170,219 L177,219 L183,219 L190,222 L197,218 L203,217 L210,214 L216,212 L223,210 L229,210 L236,209 L242,211 L249,208 L256,204 L262,205 L269,204 L275,200 L282,198 L288,194 L295,190 L302,191 L308,190 L315,193 L321,194 L328,195 L334,191 L341,191 L348,193 L354,190 L361,187 L367,188 L374,185 L380,187 L387,185 L393,185 L400,180 L407,183 L413,186 L420,187 L426,190 L433,192 L439,193 L446,197 L452,198 L459,196 L466,197 L472,197 L479,197 L485,197 L492,196 L498,198 L505,200 L512,200 L518,197 L525,195 L531,195 L538,191 L544,189 L551,189 L558,186 L564,186 L571,183 L577,182 L584,185 L590,183 L597,180 L603,182 L610,181 L617,179 L623,177 L630,175 L636,169 L643,170 L649,169 L656,169 L662,165 L669,165 L676,167 L682,168 L689,168 L695,168 L702,168 L708,171 L715,170 L722,171 L728,169 L735,171 L741,173 L748,175 L754,179 L761,180 L768,184 L774,183 L781,185 L787,184 L794,187 L800,189 L807,191 L813,194 L820,197 L820,305 L-20,305 Z" fill="#ffd9c0" clip-path="url(#c26155)" opacity=".96"/>
<path d="M-20,221 L-13,223 L-7,226 L-0,228 L6,230 L13,232 L19,234 L26,234 L32,236 L39,236 L46,236 L52,237 L59,238 L65,238 L72,239 L78,239 L85,240 L92,240 L98,239 L105,240 L111,241 L118,241 L124,241 L131,242 L138,243 L144,243 L151,243 L157,242 L164,241 L170,240 L177,238 L183,239 L190,238 L197,238 L203,239 L210,238 L216,238 L223,239 L229,239 L236,238 L242,239 L249,240 L256,240 L262,241 L269,242 L275,241 L282,241 L288,240 L295,239 L302,237 L308,236 L315,235 L321,235 L328,234 L334,233 L341,231 L348,230 L354,230 L361,229 L367,228 L374,228 L380,228 L387,226 L393,223 L400,222 L407,222 L413,222 L420,223 L426,224 L433,224 L439,225 L446,225 L452,225 L459,225 L466,224 L472,223 L479,222 L485,222 L492,221 L498,222 L505,223 L512,223 L518,223 L525,224 L531,223 L538,223 L544,223 L551,222 L558,220 L564,222 L571,223 L577,223 L584,223 L590,225 L597,226 L603,226 L610,227 L617,226 L623,225 L630,223 L636,221 L643,222 L649,221 L656,221 L662,221 L669,222 L676,222 L682,222 L689,222 L695,223 L702,224 L708,223 L715,223 L722,223 L728,223 L735,223 L741,223 L748,223 L754,223 L761,222 L768,222 L774,223 L781,225 L787,227 L794,229 L800,229 L807,230 L813,230 L820,231 L820,305 L-20,305 Z" fill="#3e2a50"/>
<clipPath id="c26205"><path d="M-20,-5 L820,-5 L826,202 L808,199 L790,202 L772,211 L754,197 L736,211 L718,213 L700,209 L682,213 L664,212 L646,210 L628,198 L610,211 L592,211 L574,202 L556,213 L538,213 L520,209 L502,199 L484,213 L466,210 L448,199 L430,204 L412,210 L394,208 L376,198 L358,201 L340,208 L322,205 L304,203 L286,207 L268,213 L250,199 L232,201 L214,209 L196,214 L178,213 L160,211 L142,213 L124,209 L106,205 L88,209 L70,213 L52,211 L34,208 L16,213 L-2,198 L-20,197 Z"/></clipPath>
<path d="M-20,221 L-13,223 L-7,226 L-0,228 L6,230 L13,232 L19,234 L26,234 L32,236 L39,236 L46,236 L52,237 L59,238 L65,238 L72,239 L78,239 L85,240 L92,240 L98,239 L105,240 L111,241 L118,241 L124,241 L131,242 L138,243 L144,243 L151,243 L157,242 L164,241 L170,240 L177,238 L183,239 L190,238 L197,238 L203,239 L210,238 L216,238 L223,239 L229,239 L236,238 L242,239 L249,240 L256,240 L262,241 L269,242 L275,241 L282,241 L288,240 L295,239 L302,237 L308,236 L315,235 L321,235 L328,234 L334,233 L341,231 L348,230 L354,230 L361,229 L367,228 L374,228 L380,228 L387,226 L393,223 L400,222 L407,222 L413,222 L420,223 L426,224 L433,224 L439,225 L446,225 L452,225 L459,225 L466,224 L472,223 L479,222 L485,222 L492,221 L498,222 L505,223 L512,223 L518,223 L525,224 L531,223 L538,223 L544,223 L551,222 L558,220 L564,222 L571,223 L577,223 L584,223 L590,225 L597,226 L603,226 L610,227 L617,226 L623,225 L630,223 L636,221 L643,222 L649,221 L656,221 L662,221 L669,222 L676,222 L682,222 L689,222 L695,223 L702,224 L708,223 L715,223 L722,223 L728,223 L735,223 L741,223 L748,223 L754,223 L761,222 L768,222 L774,223 L781,225 L787,227 L794,229 L800,229 L807,230 L813,230 L820,231 L820,305 L-20,305 Z" fill="#ffd9c0" clip-path="url(#c26205)" opacity=".96"/>
<polygon points="135,243 189,296 129,300" fill="#2d1f3d" opacity=".45"/>
<polygon points="215,238 262,307 209,300" fill="#2d1f3d" opacity=".45"/>
<polygon points="707,223 758,277 701,300" fill="#2d1f3d" opacity=".45"/>
<polygon points="347,230 401,273 341,300" fill="#2d1f3d" opacity=".45"/>
<polygon points="527,224 575,285 521,300" fill="#2d1f3d" opacity=".45"/>
<polygon points="352,249 343,272 348,272 340,281.8647723498 364,281.8647723498 356,272 361,272" fill="#2d1f3d"/>
<polygon points="169,244 158,273 164,273 155,284.626414994327 183,284.626414994327 174,273 180,273" fill="#2d1f3d"/>
<polygon points="104,259 96,281 100,281 93,289.7223117091083 115,289.7223117091083 108,281 112,281" fill="#2d1f3d"/>
<polygon points="550,213 538,244 545,244 534,256.72147070517155 566,256.72147070517155 555,244 562,244" fill="#2d1f3d"/>
<polygon points="318,245 307,274 313,274 304,285.8693803316752 332,285.8693803316752 323,274 329,274" fill="#2d1f3d"/>
<polygon points="567,223 557,249 563,249 554,259.33218393548896 580,259.33218393548896 571,249 577,249" fill="#2d1f3d"/>
<polygon points="370,242 362,264 366,264 359,273.2293559749304 381,273.2293559749304 374,264 378,264" fill="#2d1f3d"/>
<path d="M-20,266 L6,263 L32,263 L59,264 L85,263 L111,264 L138,263 L164,265 L190,265 L216,263 L242,262 L269,261 L295,262 L321,265 L348,265 L374,267 L400,267 L426,267 L452,266 L479,266 L505,269 L531,267 L558,267 L584,266 L610,265 L636,267 L662,268 L689,267 L715,267 L741,266 L768,266 L794,267 L820,266 L820,305 L-20,305 Z" fill="#2d1f3d"/>
<ellipse cx="90" cy="269" rx="38" ry="6" fill="#2d1f3d" opacity=".7"/>
<g transform="translate(90 267) rotate(14) scale(-1.3828027965098109 1.3828027965098109)"><polygon points="-33.5,-36 -26.5,-36 -31.1,-10 -36.1,-10" fill="#e2c6b6" stroke="#241633" stroke-width="1.23" stroke-linejoin="round"/><rect x="-36.6" y="-11" width="6" height="5" rx="1" fill="#241633"/><polygon points="-25.5,-36 -18.5,-36 -28.5,-16 -33.5,-16" fill="#fff0e4" stroke="#241633" stroke-width="1.23" stroke-linejoin="round"/><rect x="-34.0" y="-17" width="6" height="5" rx="1" fill="#241633"/><polygon points="26.5,-36 33.5,-36 14.5,-26 9.5,-26" fill="#fff0e4" stroke="#241633" stroke-width="1.23" stroke-linejoin="round"/><rect x="9.0" y="-27" width="6" height="5" rx="1" fill="#241633"/><polygon points="34.5,-36 41.5,-36 29.7,-18 24.7,-18" fill="#e2c6b6" stroke="#241633" stroke-width="1.23" stroke-linejoin="round"/><rect x="24.2" y="-19" width="6" height="5" rx="1" fill="#241633"/><path d="M-30,-50 C-40,-58 -42,-46 -34,-40" fill="none" stroke="#241633" stroke-width="1.74" stroke-linecap="round"/><ellipse cx="0" cy="-44" rx="31" ry="15.5" fill="#fff0e4" stroke="#241633" stroke-width="1.23"/><path d="M-24,-38 Q0,-29 22,-36" fill="none" stroke="#e2c6b6" stroke-width="2.17" opacity=".8"/><polygon points="16,-44 32,-54 40,-66 26,-70 14,-62" fill="#fff0e4" stroke="#241633" stroke-width="1.23" stroke-linejoin="round"/><g transform="rotate(0 28 -58) translate(34 -74)"><path d="M2,-8 C-6,-30 4,-42 16,-46" fill="none" stroke="#241633" stroke-width="2.60" stroke-linecap="round"/><path d="M8,-8 C6,-30 16,-40 26,-38" fill="none" stroke="#241633" stroke-width="2.60" stroke-linecap="round"/><polygon points="-4,-4 -16,-8 -6,4" fill="#e2c6b6" stroke="#241633" stroke-width="1.23"/><polygon points="-2,-8 22,-10 34,2 28,12 8,12 -4,6" fill="#fff0e4" stroke="#241633" stroke-width="1.23" stroke-linejoin="round"/><polygon points="22,12 28,12 24,30 16,14" fill="#e2c6b6" stroke="#241633" stroke-width="1.23" stroke-linejoin="round"/><circle cx="14" cy="-1" r="2" fill="#241633"/><circle cx="32" cy="3" r="1.8" fill="#241633"/></g></g>
<ellipse cx="460" cy="272" rx="38" ry="6" fill="#2d1f3d" opacity=".7"/>
<g transform="translate(460 270) rotate(0) scale(1.1753823770333391 1.1753823770333391)"><polygon points="-17.5,-10 -10.5,-10 -11.5,-7 -16.5,-7" fill="#e2c6b6" stroke="#241633" stroke-width="1.45" stroke-linejoin="round"/><rect x="-17.0" y="-8" width="6" height="5" rx="1" fill="#241633"/><polygon points="-7.5,-10 -0.5,-10 -1.5,-7 -6.5,-7" fill="#fff0e4" stroke="#241633" stroke-width="1.45" stroke-linejoin="round"/><rect x="-7.0" y="-8" width="6" height="5" rx="1" fill="#241633"/><polygon points="10.5,-10 17.5,-10 16.5,-7 11.5,-7" fill="#fff0e4" stroke="#241633" stroke-width="1.45" stroke-linejoin="round"/><rect x="11.0" y="-8" width="6" height="5" rx="1" fill="#241633"/><polygon points="20.5,-10 27.5,-10 26.5,-7 21.5,-7" fill="#e2c6b6" stroke="#241633" stroke-width="1.45" stroke-linejoin="round"/><rect x="21.0" y="-8" width="6" height="5" rx="1" fill="#241633"/><path d="M-30,-30 C-40,-38 -42,-26 -34,-20" fill="none" stroke="#241633" stroke-width="2.04" stroke-linecap="round"/><ellipse cx="0" cy="-24" rx="31" ry="15.5" fill="#fff0e4" stroke="#241633" stroke-width="1.45"/><path d="M-24,-18 Q0,-9 22,-16" fill="none" stroke="#e2c6b6" stroke-width="2.55" opacity=".8"/><polygon points="16,-24 32,-34 40,-46 26,-50 14,-42" fill="#fff0e4" stroke="#241633" stroke-width="1.45" stroke-linejoin="round"/><g transform="rotate(0 28 -38) translate(34 -54)"><path d="M2,-8 C-6,-30 4,-42 16,-46" fill="none" stroke="#241633" stroke-width="3.06" stroke-linecap="round"/><path d="M8,-8 C6,-30 16,-40 26,-38" fill="none" stroke="#241633" stroke-width="3.06" stroke-linecap="round"/><polygon points="-4,-4 -16,-8 -6,4" fill="#e2c6b6" stroke="#241633" stroke-width="1.45"/><polygon points="-2,-8 22,-10 34,2 28,12 8,12 -4,6" fill="#fff0e4" stroke="#241633" stroke-width="1.45" stroke-linejoin="round"/><polygon points="22,12 28,12 24,30 16,14" fill="#e2c6b6" stroke="#241633" stroke-width="1.45" stroke-linejoin="round"/><circle cx="14" cy="-1" r="2" fill="#241633"/><circle cx="32" cy="3" r="1.8" fill="#241633"/></g></g>
</svg>
